<?xml version="1.0" encoding="UTF-8" standalone="no"?>
<!-- Created with Inkscape (http://www.inkscape.org/) -->

<svg
   version="1.1"
   id="svg1"
   width="259.10919"
   height="259.10934"
   viewBox="0 0 259.10919 259.10935"
   sodipodi:docname="bruma-magica.svg"
   inkscape:version="1.4.2 (ebf0e94, 2025-05-08)"
   inkscape:export-filename="bruma-magica.png"
   inkscape:export-xdpi="96"
   inkscape:export-ydpi="96"
   xmlns:inkscape="http://www.inkscape.org/namespaces/inkscape"
   xmlns:sodipodi="http://sodipodi.sourceforge.net/DTD/sodipodi-0.dtd"
   xmlns="http://www.w3.org/2000/svg"
   xmlns:svg="http://www.w3.org/2000/svg">
  <defs
     id="defs1">
    <clipPath
       clipPathUnits="userSpaceOnUse"
       id="clipPath175">
      <path
         d="m 645.73,836.289 h 1437.75 v 416.703 H 645.73 Z"
         transform="translate(0,2.5e-5)"
         id="path175" />
    </clipPath>
  </defs>
  <sodipodi:namedview
     id="namedview1"
     pagecolor="#ffffff"
     bordercolor="#000000"
     borderopacity="0.25"
     inkscape:showpageshadow="2"
     inkscape:pageopacity="0.0"
     inkscape:pagecheckerboard="0"
     inkscape:deskcolor="#d1d1d1"
     showgrid="false"
     inkscape:zoom="2"
     inkscape:cx="78.5"
     inkscape:cy="112"
     inkscape:window-width="1130"
     inkscape:window-height="1000"
     inkscape:window-x="774"
     inkscape:window-y="0"
     inkscape:window-maximized="0"
     inkscape:current-layer="g1"
     showguides="true">
    <inkscape:page
       x="0"
       y="0"
       inkscape:label="1"
       id="page1"
       width="259.10919"
       height="259.10934"
       margin="0"
       bleed="0" />
    <sodipodi:guide
       position="584.66753,396.42437"
       orientation="1,0"
       id="guide2"
       inkscape:locked="false" />
    <sodipodi:guide
       position="129.55459,658.10535"
       orientation="1,0"
       id="guide3"
       inkscape:locked="false" />
  </sodipodi:namedview>
  <g
     id="g1"
     inkscape:groupmode="layer"
     inkscape:label="1"
     transform="translate(-45.006798,-58.668018)">
    <text
       xml:space="preserve"
       style="font-style:normal;font-variant:normal;font-weight:normal;font-stretch:normal;font-size:36.6667px;line-height:1.25;font-family:Urbanist;-inkscape-font-specification:'Urbanist, @wght=900';font-variant-ligatures:normal;font-variant-caps:normal;font-variant-numeric:normal;font-variant-east-asian:normal;font-variation-settings:'wght' 900;letter-spacing:-4px;display:none"
       x="53.03196"
       y="174.6492"
       id="text13"><tspan
         sodipodi:role="line"
         id="tspan13"
         x="0"
         y="0"
         style="font-style:normal;font-variant:normal;font-weight:normal;font-stretch:normal;font-size:36.6667px;font-family:Urbanist;-inkscape-font-specification:'Urbanist, @wght=900';font-variant-ligatures:normal;font-variant-caps:normal;font-variant-numeric:normal;font-variant-east-asian:normal;font-variation-settings:'wght' 900;letter-spacing:-4px;fill:#f50052;fill-opacity:1">BRUMA MÁGICA</tspan></text>
    <g
       id="g2">
      <path
         id="path3"
         d="m 304.11599,188.22268 c 0,71.55067 -58.004,129.55467 -129.55466,129.55467 -71.5504,0 -129.554531,-58.004 -129.554531,-129.55467 0,-71.55066 58.004131,-129.554661 129.554531,-129.554661 71.55066,0 129.55466,58.004001 129.55466,129.554661"
         style="fill:#2b2a20;fill-opacity:1;fill-rule:nonzero;stroke:none;stroke-width:0.133333" />
      <path
         id="path4"
         d="m 297.60799,188.22268 c 0,67.95733 -55.08933,123.04667 -123.04666,123.04667 -67.95667,0 -123.046265,-55.08934 -123.046265,-123.04667 0,-67.956 55.089595,-123.046662 123.046265,-123.046662 67.95733,0 123.04666,55.090662 123.04666,123.046662"
         style="fill:#f50052;fill-opacity:1;fill-rule:nonzero;stroke:none;stroke-width:0.133333" />
      <path
         id="path5"
         d="m 295.55472,188.22268 c 0,66.82267 -54.17067,120.99333 -120.99333,120.99333 -66.82173,0 -120.993059,-54.17066 -120.993059,-120.99333 0,-66.82133 54.171329,-120.993324 120.993059,-120.993324 66.82266,0 120.99333,54.171994 120.99333,120.993324"
         style="fill:#f2e8bf;fill-opacity:1;fill-rule:nonzero;stroke:none;stroke-width:0.133333" />
      <path
         id="path162"
         d="m 68.617845,132.69853 c 9.285226,0.14369 202.188045,0.14369 212.276135,-0.19761 8.65285,16.03649 13.41214,37.42901 12.59964,56.05595 l -238.225671,0.0144 c -0.02636,-22.35416 7.350849,-44.31528 13.349896,-55.87279 z"
         style="fill:#f8a972;fill-opacity:1;fill-rule:nonzero;stroke:none;stroke-width:0.165099"
         sodipodi:nodetypes="cccccc" />
      <path
         id="path163"
         d="M 281.03435,132.84222 H 68.579597 C 94.351604,87.662843 136.50809,69.368607 174.56153,69.368607 c 46.70346,0 83.67251,26.364706 106.47282,63.473613 z"
         style="display:inline;fill:#facdaa;fill-opacity:1;fill-rule:nonzero;stroke:none;stroke-width:0.165099"
         sodipodi:nodetypes="cccc" />
      <path
         id="path164"
         style="fill:#ff1060;fill-opacity:1;fill-rule:nonzero;stroke:none;stroke-width:0.165099"
         d="m 55.267949,188.57127 0.853145,13.94045 c 5.717035,47.89392 39.812829,87.07173 84.992186,100.24414 h 66.89649 c 46.7467,-13.62929 81.62742,-55.10075 85.48437,-105.25977 v -8.93945 z"
         sodipodi:nodetypes="ccccccc" />
      <path
         id="path166-5"
         d="m 108.07318,228.12306 c 0.92621,-0.20638 3.34822,-1.67741 4.90842,-3.19633 -1.07811,-0.26747 -1.04014,-0.96913 -1.56682,-1.55029 -0.67029,-0.73469 -2.27342,-0.26417 -2.27342,-1.27126 0,-0.99555 3.34494,-1.93333 4.47917,-2.13311 0.75946,-0.13041 1.83922,-1.36538 2.7357,-2.26847 -0.099,-0.099 -0.22123,-0.12547 -0.39787,-0.008 -0.80075,0.53823 -2.40552,0.67692 -3.6058,0.13868 -1.20523,-0.53987 1.87058,-1.87387 2.67132,-3.07745 0.80074,-1.20194 1.87223,-0.93448 2.27343,-1.33731 0.39955,-0.39956 2.06704,-1.99936 1.13424,-1.47106 -0.93777,0.54154 -0.89154,0.18328 -2.09677,-0.35495 -1.20029,-0.52831 -0.64225,-0.97574 -1.71209,-0.70829 -1.06985,0.26747 -2.00597,-1.7385 0.93612,-2.00596 1.4991,-0.13538 1.36207,-0.88988 2.46989,-1.60312 -1.02692,-0.0347 0.59105,-1.20523 -0.33184,-1.20523 -0.93612,0 -2.67298,-0.66866 -1.47104,-1.0649 1.20522,-0.40614 3.07581,-2.27343 1.87056,-2.27343 -1.20027,0 -2.13802,-0.79576 -0.39952,-1.3406 1.70547,-0.52006 3.40766,-6.56271 4.60793,-6.79221 v -0.0182 l 0.033,0.008 0.0347,-0.008 v 0.0182 c 1.20191,0.2295 2.90576,6.27215 4.60958,6.79221 1.73686,0.54484 0.80238,1.3406 -0.40284,1.3406 -1.19862,0 0.67031,1.86729 1.87389,2.27343 1.20028,0.39624 -0.53492,1.0649 -1.47105,1.0649 -0.9229,0 -0.31204,-0.033 -1.33399,0 1.10616,0.71489 1.97294,2.67297 3.47369,2.80835 2.94043,0.26746 2.00432,2.27343 0.93612,2.00596 -1.0715,-0.26745 -0.40449,-0.40613 -1.60477,0.12878 -1.20358,0.53492 -1.33565,0.73471 -2.27178,0.20638 -0.93777,-0.54153 0.80073,1.79958 1.20192,2.19914 0.40119,0.40283 1.4694,0.13537 2.27014,1.33731 0.80403,1.20358 3.87654,2.53758 2.67462,3.07745 -1.20193,0.53824 -2.80671,0.39955 -3.60909,-0.13868 -0.44742,-0.29719 -0.56465,0.28562 -0.78918,0.83705 0.6868,0.69014 1.38683,1.34557 1.92507,1.43969 1.13754,0.19975 4.47585,1.13753 4.47585,2.13309 0,1.0071 -1.60145,0.53657 -2.26847,1.27126 -0.34505,0.37478 -0.44577,0.80239 -0.7644,1.1359 1.5057,1.65264 4.29921,3.38784 5.30465,3.61074 1.20524,0.26745 0.80404,1.47103 -0.26417,1.47103 -1.07148,0 -2.40715,0.6637 -3.20787,1.06324 -0.80239,0.40614 -1.8739,0.54154 -3.87656,0.40614 -2.00431,-0.14199 -2.53757,2.00597 -3.87324,2.27013 -1.32409,0.26416 -2.12153,0.9097 -3.04278,0.1585 -0.91797,0.7512 -1.71869,0.10563 -3.03619,-0.1585 -1.33731,-0.26416 -1.8706,-2.41212 -3.87656,-2.27013 -2.00433,0.1354 -3.07251,0 -3.87489,-0.40614 -0.8057,-0.39954 -2.13804,-1.06324 -3.20954,-1.06324 -1.06656,0 -1.4694,-1.20358 -0.26747,-1.47103"
         style="fill:#2b2a20;fill-opacity:1;fill-rule:nonzero;stroke:none;stroke-width:0.165099" />
      <path
         id="path167-7"
         d="m 182.31368,230.1538 c 0.52336,-0.11552 1.89205,-0.94439 2.77367,-1.80455 -0.60922,-0.15188 -0.58776,-0.54812 -0.88493,-0.87501 -0.37973,-0.41605 -1.28448,-0.15026 -1.28448,-0.7182 0,-0.56464 1.89039,-1.09295 2.52933,-1.20687 0.43091,-0.0727 1.04013,-0.76936 1.54699,-1.27952 l -0.22454,-0.006 c -0.45238,0.30382 -1.35877,0.38141 -2.03734,0.0776 -0.68186,-0.30378 1.05664,-1.05829 1.50903,-1.73851 0.45236,-0.6769 1.05664,-0.52831 1.28447,-0.7545 0.22453,-0.22454 1.16891,-1.13094 0.64059,-0.83209 -0.52998,0.30709 -0.50356,0.104 -1.18378,-0.19979 -0.6802,-0.29883 -0.36321,-0.55143 -0.96748,-0.40284 -0.60426,0.1552 -1.13424,-0.9807 0.52833,-1.13093 0.84696,-0.0776 0.76936,-0.50357 1.39675,-0.90641 -0.58117,-0.0198 0.3335,-0.68021 -0.18988,-0.68021 -0.52666,0 -1.509,-0.37807 -0.83044,-0.60426 0.68186,-0.22453 1.73849,-1.28283 1.05828,-1.28283 -0.6802,0 -1.20853,-0.44742 -0.22784,-0.7578 0.96419,-0.29387 1.92671,-3.70485 2.60529,-3.83693 v -0.0103 l 0.0182,0.006 0.0198,-0.006 v 0.0103 c 0.67856,0.13208 1.6411,3.54306 2.60363,3.83693 0.98235,0.31038 0.45402,0.7578 -0.22784,0.7578 -0.67691,0 0.37972,1.0583 1.05995,1.28283 0.67856,0.22619 -0.30214,0.60426 -0.83211,0.60426 -0.52006,0 -0.17502,-0.0165 -0.75285,0 0.62408,0.40614 1.11443,1.50901 1.96304,1.58662 1.66089,0.15023 1.13093,1.28613 0.52831,1.13093 -0.60592,-0.14859 -0.22783,-0.22618 -0.90639,0.0743 -0.68023,0.30378 -0.75451,0.41606 -1.28448,0.11888 -0.52999,-0.30873 0.45237,1.01701 0.68021,1.24155 0.22618,0.22619 0.8288,0.0776 1.28283,0.7545 0.45402,0.68022 2.18922,1.43473 1.51066,1.73851 -0.68021,0.30377 -1.58496,0.22618 -2.03898,-0.0776 -0.25261,-0.16674 -0.3203,0.16181 -0.44578,0.47385 0.388,0.39128 0.78258,0.76111 1.08801,0.8123 0.64224,0.11392 2.52768,0.64224 2.52768,1.20687 0,0.56793 -0.90476,0.30215 -1.28118,0.71817 -0.19481,0.20969 -0.25094,0.4524 -0.43255,0.63896 0.85192,0.93612 2.43028,1.91515 2.99821,2.04064 0.68022,0.15189 0.45401,0.83209 -0.15025,0.83209 -0.60426,0 -1.35876,0.37477 -1.81113,0.60097 -0.45403,0.22785 -1.05829,0.30544 -2.19088,0.22785 -1.1326,-0.0776 -1.43472,1.13587 -2.18923,1.28445 -0.7479,0.1486 -1.19697,0.51512 -1.71869,0.0891 -0.51841,0.42596 -0.97079,0.0594 -1.71539,-0.0891 -0.75616,-0.14858 -1.05665,-1.36207 -2.18922,-1.28445 -1.13259,0.0776 -1.73685,0 -2.19088,-0.22785 -0.45568,-0.2262 -1.20853,-0.60097 -1.81281,-0.60097 -0.60427,0 -0.83044,-0.68022 -0.15187,-0.83209"
         style="fill:#2b2a20;fill-opacity:1;fill-rule:nonzero;stroke:none;stroke-width:0.165099" />
      <path
         id="path168-6"
         d="m 99.970061,223.34344 c 0.523369,-0.11554 1.892049,-0.94438 2.773679,-1.80456 -0.60921,-0.15188 -0.58775,-0.54812 -0.88493,-0.87502 -0.37974,-0.41604 -1.28449,-0.15025 -1.28449,-0.71818 0,-0.56465 1.89041,-1.09296 2.52934,-1.20688 0.43091,-0.0727 1.04013,-0.76938 1.547,-1.27953 l -0.22456,-0.006 c -0.45236,0.3038 -1.35877,0.38139 -2.03732,0.0776 -0.68187,-0.30378 1.05663,-1.0583 1.50902,-1.7385 0.45237,-0.67692 1.05664,-0.52833 1.28447,-0.75451 0.22453,-0.22456 1.16891,-1.13095 0.64059,-0.8321 -0.52997,0.30709 -0.50355,0.104 -1.18377,-0.19978 -0.6802,-0.29883 -0.36322,-0.55143 -0.96749,-0.40286 -0.60427,0.15521 -1.13422,-0.98068 0.52832,-1.13091 0.84698,-0.0776 0.76938,-0.50357 1.39675,-0.9064 -0.58115,-0.0198 0.33351,-0.68024 -0.18987,-0.68024 -0.52666,0 -1.509,-0.37807 -0.83045,-0.60425 0.68187,-0.22454 1.73851,-1.28282 1.05829,-1.28282 -0.6802,0 -1.20854,-0.44742 -0.22784,-0.75781 0.9642,-0.29387 1.92672,-3.70485 2.60529,-3.83693 v -0.0103 l 0.0182,0.006 0.0198,-0.006 v 0.0103 c 0.67857,0.13208 1.64109,3.54306 2.60364,3.83693 0.98235,0.31039 0.45401,0.75781 -0.22784,0.75781 -0.67691,0 0.37971,1.05828 1.05994,1.28282 0.67856,0.22618 -0.30214,0.60425 -0.8321,0.60425 -0.52007,0 -0.17501,-0.0165 -0.75286,0 0.62408,0.40615 1.11442,1.50902 1.96303,1.58664 1.66091,0.15023 1.13094,1.28612 0.52833,1.13091 -0.60593,-0.14857 -0.22784,-0.22617 -0.9064,0.0743 -0.68023,0.30378 -0.75451,0.41607 -1.28448,0.11886 -0.52997,-0.30871 0.45238,1.01702 0.68021,1.24157 0.22618,0.22617 0.8288,0.0776 1.28283,0.75451 0.45401,0.6802 2.18923,1.43472 1.51066,1.7385 -0.68021,0.30378 -1.58495,0.22619 -2.03897,-0.0776 -0.25261,-0.16676 -0.32031,0.1618 -0.44578,0.47383 0.38798,0.3913 0.78257,0.76111 1.08801,0.8123 0.64223,0.11391 2.52767,0.64224 2.52767,1.20687 0,0.56793 -0.90475,0.30214 -1.28117,0.71819 -0.19482,0.20967 -0.25095,0.45238 -0.43256,0.63894 0.85191,0.93611 2.43028,1.91514 2.99821,2.04063 0.68022,0.15191 0.45403,0.83212 -0.15024,0.83212 -0.60427,0 -1.35877,0.37477 -1.81115,0.60095 -0.45402,0.22785 -1.05828,0.30543 -2.19088,0.22785 -1.13259,-0.0776 -1.43471,1.13588 -2.18921,1.28445 -0.74791,0.1486 -1.19699,0.51513 -1.7187,0.089 -0.51842,0.42597 -0.97077,0.0594 -1.71538,-0.089 -0.75617,-0.14857 -1.05665,-1.36207 -2.18923,-1.28445 -1.13258,0.0776 -1.73686,0 -2.19089,-0.22785 -0.45568,-0.22618 -1.20853,-0.60095 -1.81279,-0.60095 -0.604273,0 -0.830446,-0.68021 -0.15189,-0.83212"
         style="fill:#2b2a20;fill-opacity:1;fill-rule:nonzero;stroke:none;stroke-width:0.165099" />
      <path
         id="path169"
         d="m 163.68049,233.45415 c 0.7512,-0.1684 2.71921,-1.36208 3.98551,-2.59703 -0.87337,-0.21958 -0.8453,-0.78587 -1.27125,-1.25971 -0.54483,-0.59767 -1.84748,-0.21627 -1.84748,-1.02857 0,-0.81725 2.7159,-1.57837 3.63715,-1.7385 0.61749,-0.11058 1.49745,-1.10619 2.22554,-1.84417 l -0.3236,-0.004 c -0.65048,0.43418 -1.95312,0.54482 -2.93051,0.10895 -0.97739,-0.43587 1.52057,-1.51894 2.17106,-2.49631 0.65049,-0.97904 1.52057,-0.76442 1.84747,-1.08636 0.32361,-0.32525 1.67741,-1.6279 0.9196,-1.19532 -0.7611,0.4375 -0.72314,0.14362 -1.70218,-0.29058 -0.97739,-0.43256 -0.52172,-0.79414 -1.39178,-0.57785 -0.86678,0.21627 -1.6279,-1.40833 0.76111,-1.62789 1.21842,-0.11057 1.10617,-0.72644 2.0076,-1.30263 -0.8354,-0.0264 0.47879,-0.9774 -0.27074,-0.9774 -0.76112,0 -2.17108,-0.54483 -1.19369,-0.86677 0.97739,-0.3269 2.49796,-1.84914 1.51893,-1.84914 -0.97575,0 -1.73687,-0.64718 -0.32524,-1.08304 1.38683,-0.42926 2.77035,-5.33604 3.74445,-5.52424 v -0.0149 l 0.0282,0.0103 0.0264,-0.0103 v 0.0149 c 0.97574,0.1882 2.36257,5.09498 3.74446,5.52424 1.41161,0.43586 0.65214,1.08304 -0.32525,1.08304 -0.97574,0 0.54317,1.52224 1.52056,1.84914 0.97575,0.32194 -0.43421,0.86677 -1.19531,0.86677 -0.74791,0 -0.25262,-0.0264 -1.08307,0 0.8998,0.57786 1.60313,2.16943 2.82157,2.28003 2.38899,0.21956 1.62953,1.84416 0.76111,1.62789 -0.87008,-0.21629 -0.32855,-0.32856 -1.3043,0.11059 -0.97739,0.4342 -1.0847,0.59598 -1.84415,0.16013 -0.76112,-0.43421 0.64884,1.46774 0.97574,1.79299 0.32524,0.32195 1.19531,0.10736 1.84416,1.08637 0.65214,0.97738 3.1501,2.06044 2.17272,2.49631 -0.97575,0.43586 -2.28003,0.32524 -2.93217,-0.10898 -0.36323,-0.24268 -0.45733,0.23115 -0.64059,0.67693 0.55638,0.56132 1.12761,1.09296 1.56514,1.17054 0.92291,0.16015 3.63551,0.92125 3.63551,1.73851 0,0.81228 -1.30101,0.43091 -1.84418,1.02856 -0.27901,0.30544 -0.36156,0.65381 -0.61912,0.92125 1.22174,1.34558 3.49185,2.75059 4.31077,2.93549 0.97738,0.21463 0.65213,1.19203 -0.21794,1.19203 -0.86843,0 -1.95315,0.54152 -2.60528,0.86842 -0.65214,0.32526 -1.52222,0.43421 -3.14846,0.32526 -1.62954,-0.11058 -2.06375,1.62787 -3.14845,1.84746 -1.07315,0.21298 -1.72199,0.738 -2.46989,0.12548 -0.74791,0.61252 -1.39675,0.0876 -2.46825,-0.12548 -1.08636,-0.21959 -1.52058,-1.95809 -3.15012,-1.84746 -1.62787,0.10896 -2.4963,0 -3.14844,-0.32526 -0.6538,-0.3269 -1.73685,-0.86842 -2.60528,-0.86842 -0.86843,0 -1.19533,-0.9774 -0.21793,-1.19203"
         style="fill:#2b2a20;fill-opacity:1;fill-rule:nonzero;stroke:none;stroke-width:0.165099" />
      <path
         id="path170"
         d="m 127.83069,229.09715 c 1.48919,-0.32854 5.38886,-2.69276 7.89837,-5.13624 -1.73354,-0.43918 -1.67575,-1.56516 -2.51942,-2.49963 -1.07811,-1.18376 -3.66025,-0.43256 -3.66025,-2.04063 0,-1.61303 5.3806,-3.11872 7.20661,-3.444 1.22173,-0.21298 2.96353,-2.19086 4.40816,-3.65036 -0.16345,-0.15849 -0.35828,-0.19481 -0.64224,-0.006 -1.28943,0.86015 -3.8683,1.07643 -5.80656,0.21626 -1.93498,-0.86512 3.01472,-3.00977 4.30415,-4.94474 1.28942,-1.93992 3.00978,-1.51231 3.65861,-2.15291 0.6406,-0.64554 3.32346,-3.2244 1.82437,-2.36752 -1.50902,0.86511 -1.43803,0.29057 -3.37466,-0.57291 -1.93661,-0.85852 -1.03352,-1.57835 -2.75552,-1.14909 -1.71869,0.43255 -3.22771,-2.79184 1.50737,-3.22441 2.41046,-0.21628 2.18923,-1.43472 3.97561,-2.57887 -1.65266,-0.0561 0.94932,-1.93826 -0.53657,-1.93826 -1.50571,0 -4.29921,-1.0781 -2.36425,-1.71869 1.93498,-0.64553 4.94805,-3.65696 3.00979,-3.65696 -1.93497,0 -3.44234,-1.28613 -0.64554,-2.15124 2.74726,-0.84697 5.48792,-10.57302 7.41793,-10.94118 v -0.0282 l 0.0561,0.0112 0.0544,-0.0112 v 0.0282 c 1.93332,0.36816 4.67564,10.09421 7.41794,10.94118 2.79515,0.86511 1.28945,2.15124 -0.64554,2.15124 -1.93332,0 1.07811,3.01143 3.01307,3.65696 1.93333,0.64059 -0.86017,1.71869 -2.36753,1.71869 -1.4826,0 -0.5019,-0.0511 -2.14795,0 1.78143,1.14415 3.17984,4.30085 5.58864,4.51713 4.7367,0.43257 3.22935,3.65696 1.50902,3.22441 -1.722,-0.42926 -0.64885,-0.6472 -2.58218,0.21629 -1.93496,0.86181 -2.15124,1.18046 -3.6553,0.32524 -1.50901,-0.86348 1.28777,2.90245 1.93332,3.54799 0.6439,0.6406 2.36753,0.21299 3.65531,2.15291 1.29108,1.93497 6.24078,4.07962 4.30416,4.94474 -1.93498,0.86017 -4.5155,0.64389 -5.80987,-0.21626 -0.72149,-0.48045 -0.90641,0.45731 -1.26796,1.34061 1.10121,1.11275 2.23048,2.16444 3.09726,2.31634 1.83097,0.32525 7.20497,1.83095 7.20497,3.44398 0,1.60807 -2.57722,0.85688 -3.65203,2.04065 -0.55472,0.60591 -0.71652,1.29602 -1.22998,1.82434 2.42201,2.66803 6.91769,5.44995 8.54062,5.81151 1.93828,0.43258 1.29273,2.36589 -0.42925,2.36589 -1.72035,0 -3.8716,1.07811 -5.1627,1.72201 -1.29106,0.64222 -3.01471,0.86181 -6.23747,0.64222 -3.22604,-0.21298 -4.08787,3.22771 -6.23747,3.66026 -2.12649,0.42596 -3.41096,1.46775 -4.89357,0.25096 -1.48093,1.21679 -2.76871,0.175 -4.89026,-0.25096 -2.15125,-0.43255 -3.01306,-3.87324 -6.24078,-3.66026 -3.2244,0.21959 -4.94638,0 -6.23747,-0.64222 -1.29274,-0.6439 -3.44068,-1.72201 -5.16102,-1.72201 -1.71869,0 -2.36754,-1.93331 -0.43256,-2.36589"
         style="fill:#2b2a20;fill-opacity:1;fill-rule:nonzero;stroke:none;stroke-width:0.165099" />
      <path
         id="path171"
         style="display:inline;fill:#2d7f80;fill-opacity:1;fill-rule:nonzero;stroke:none;stroke-width:0.171418"
         d="m 64.357422,233.95898 c 17.94241,43.18375 60.526378,73.55079 110.203128,73.55079 49.67744,0 92.26281,-30.36704 110.20507,-73.55079 z" />
      <path
         id="path172"
         clip-path="none"
         style="fill:#2b2a20;fill-opacity:1;fill-rule:nonzero;stroke:none;stroke-width:1.00726;stroke-dasharray:none;stroke-opacity:1"
         d="m 2026.6542,1078.4413 v -0.142 c -7.43,-1.39 -17.982,-38.7918 -28.522,-42.0318 -10.75,-3.32 -4.9657,-8.2809 2.4843,-8.2809 7.43,0 -4.1415,-11.5822 -11.5815,-14.0422 -7.43,-2.5 3.3072,-6.6248 9.0972,-6.6248 5.7,0 1.9273,0.2 8.2573,0 -6.85,-4.41 -12.225,-16.53453 -21.495,-17.35453 -18.2,-1.66 -12.4048,-14.06245 -5.7848,-12.42145 6.61,1.66 2.4953,2.49191 9.9253,-0.82809 7.44,-3.297 8.2621,-4.53849 14.0421,-1.21849 5.8,3.297 -4.951,-11.17177 -7.441,-13.65177 -2.47,-2.481 -9.0803,-0.8238 -14.0303,-8.2928 -4.97,-7.442 -24.0001,-15.6979 -16.5501,-18.9989 7.44,-3.321 17.3531,-2.48474 22.3231,0.81626 2.78,1.859 3.4858,-1.7552 4.8858,-5.1342 -4.24,-4.289 -8.5828,-8.34961 -11.9128,-8.93161 -7.03,-1.227 -27.7058,-7.02306 -27.7058,-13.21406 0,-6.219 9.914,-3.29609 14.054,-7.85509 2.12,-2.339 2.7502,-5.00417 4.7202,-7.01517 -7.271,-8.02078 -19.415,-16.29561 -27.3509,-20.20556 30.836,-14.15357 62.847,-26.19615 95.8345,-35.95124 1.75,0.54826 3.6498,1.13133 5.7612,1.54973 8.28,1.661 11.5693,14.90582 23.9793,14.06582 12.4,-0.821 19.0212,0.004 23.9912,2.48429 4.97,2.481 13.2188,6.61294 19.8388,6.61294 6.6,0 9.0962,7.44541 1.6562,9.08541 -5.72,1.289 -20.7157,10.36502 -30.3557,19.75602 6.65,1.68 6.4387,6.00876 9.6887,9.61776 4.14,4.559 14.0659,1.63609 14.0659,7.85509 0,6.191 -20.674,11.98706 -27.694,13.21406 -4.71,0.839 -11.4023,8.44015 -16.9523,14.04215 0.62,0.609 1.3706,0.74266 2.4606,0.0237 4.96,-3.301 14.8613,-4.13726 22.3113,-0.81626 7.45,3.301 -11.5782,11.5569 -16.5382,18.9989 -4.96,7.469 -11.564,5.8118 -14.054,8.2928 -1.9683,1.97625 -8.9237,8.68248 -8.7424,9.65324 l 0.012,0.0118 v 0.0118 l 0.012,0.0118 v 0.0118 l 0.012,0.0118 0.012,0.0118 0.012,0.0118 h 0.012 l 0.012,0.0118 c 0.1874,0.079 0.6961,-0.10907 1.6444,-0.65064 5.8,-3.32 5.5275,-1.12063 12.9775,2.20037 7.44,3.308 3.966,6.06074 10.576,4.40074 6.61,-1.641 12.4133,10.76145 -5.7967,12.42145 -9.26,0.82 -8.4025,5.50351 -15.2725,9.91351 6.35,0.20102 -3.6516,7.44102 2.0584,7.44102 5.79,0 16.5272,4.1248 9.0972,6.6248 -7.45,2.46 -19.0315,14.0422 -11.5815,14.0422 7.44,0 13.2343,4.9609 2.4843,8.2809 -10.56,3.24 -21.1002,40.6418 -28.5102,42.0318 v 0.142 l -0.2247,-0.059 z"
         transform="matrix(0.16509995,0,0,-0.16509995,-196.11028,440.82795)" />
      <path
         id="path174"
         clip-path="url(#clipPath175)"
         style="fill:#2b2a20;fill-opacity:1;fill-rule:nonzero;stroke:none"
         d="m 1893.6146,1110.9855 v -0.1893 c -11.12,-2.11 -26.9162,-58.1208 -42.7062,-62.9708 -16.1,-4.98 -7.4235,-12.3741 3.7265,-12.3741 11.13,0 -6.2027,-17.3574 -17.3427,-21.0574 -11.14,-3.73 4.9462,-9.9253 13.6162,-9.9253 8.55,0 2.8942,0.32 12.3742,0 -10.26,-6.599 -18.2875,-24.74041 -32.1775,-25.99041 -27.26,-2.48 -18.5914,-21.05369 -8.6714,-18.59669 9.89,2.48 3.7185,3.73068 14.8585,-1.23032 11.14,-4.957 12.3736,-6.80647 21.0336,-1.84547 8.69,4.961 -7.412,-16.74699 -11.132,-20.45399 -1.8426,-1.8386 -5.2346,-2.15451 -9.0854,-3.38337 51.2273,-34.99118 107.1946,-63.55859 166.7314,-84.54869 5.7768,1.16602 11.4159,1.71555 11.4159,7.44104 0,9.282 -30.9776,17.95235 -41.4876,19.80335 -7.05,1.25 -17.0553,12.63566 -25.3753,21.03366 0.92,0.903 2.0591,1.09366 3.6791,0.0237 7.43,-4.938 22.2715,-6.19132 33.4315,-1.23032 11.15,4.957 -17.3419,17.32271 -24.7719,28.47471 -7.43,11.16 -17.3392,8.69396 -21.0692,12.38596 -2.9693,2.98297 -13.5489,13.20535 -13.0603,14.50352 0,0.006 0.01,0.03 0.012,0.0355 l 0.012,0.0118 c 0,0.005 0.03,0.0195 0.035,0.0237 l 0.012,0.0118 c 0.2637,0.14071 1.0415,-0.12812 2.4961,-0.95822 8.69,-4.96 8.2648,-1.64045 19.4248,3.30055 11.14,4.957 5.9522,9.08112 15.8522,6.60112 9.89,-2.457 18.5986,16.11669 -8.6714,18.59669 -13.87,1.25 -12.601,8.23742 -22.891,14.85842 9.52,0.289 -5.4623,11.13196 3.0877,11.13196 8.67,0 24.7581,6.1953 13.6281,9.9253 -11.16,3.7 -28.5046,21.0574 -17.3546,21.0574 11.14,0 19.8265,7.3941 3.7265,12.3741 -15.81,4.85 -31.6062,60.8608 -42.7062,62.9708 v 0.1893 l -0.3194,-0.083 z"
         transform="matrix(0.16509995,0,0,-0.16509995,-196.11028,440.82795)" />
      <path
         id="path180"
         style="fill:#2b2a20;fill-opacity:1;fill-rule:nonzero;stroke:none;stroke-width:0.165099"
         d="m 283.30664,237.32617 -43.13281,16.85742 -23.38867,1.37696 -26.14258,7.15625 h -21.46289 l -24.21289,7.97656 111.51953,4.23437 c 11.21662,-10.60185 20.37729,-23.35508 26.82031,-37.60156 z" />
      <path
         id="path181"
         style="fill:#2b2a20;fill-opacity:1;fill-rule:nonzero;stroke:none;stroke-width:0.165099"
         d="m 55.489308,192.1883 0.631786,10.32342 c 2.332273,19.53839 9.386499,37.62608 19.990234,53.08984 l 112.658202,-2.25 -22.89062,-9.63086 -16.51172,-1.92578 -17.60938,-11.55664 -17.88672,-7.15625 L 92.683594,208.5 Z"
         sodipodi:nodetypes="cccccccccc" />
      <path
         id="text12"
         style="font-size:36.6667px;line-height:1.25;font-family:Urbanist;-inkscape-font-specification:'Urbanist, @wght=900';font-variation-settings:'wght' 900;letter-spacing:-4px;fill:#f50052"
         d="m 212.14453,141.68555 -1.4668,5.28125 h 3.66602 l 3.30078,-5.28125 z m 52.38672,6.82031 c -1.73556,0 -3.36675,0.34825 -4.89453,1.04492 -1.52778,0.68444 -2.87209,1.63715 -4.0332,2.85938 -1.14889,1.21 -2.05485,2.62299 -2.71485,4.23632 -0.64778,1.60112 -0.9707,3.32437 -0.9707,5.16993 0,1.83333 0.32292,3.55658 0.9707,5.16992 0.66,1.60111 1.56596,3.01215 2.71485,4.23437 1.16111,1.22223 2.50542,2.18224 4.0332,2.87891 1.52778,0.68445 3.15897,1.02539 4.89453,1.02539 2.07777,0 3.9905,-0.48171 5.73828,-1.44727 1.37402,-0.75906 2.56252,-1.71115 3.56641,-2.85546 l -1.38867,3.82617 h 5.83007 l 1.4668,-4.03321 h 10.23047 l 1.4668,4.03321 h 1.68554 c -0.79226,-8.63428 -2.59772,-17.42453 -5.27148,-25.66602 h -6.09375 l -7.50195,20.66992 -4.5586,-2.48242 c -0.63555,0.74556 -1.39879,1.34466 -2.29101,1.79688 -0.89222,0.44 -1.85224,0.6582 -2.87891,0.6582 -0.97778,0 -1.8998,-0.20018 -2.76758,-0.60352 -0.85555,-0.41555 -1.61343,-0.9786 -2.27344,-1.6875 -0.64777,-0.7211 -1.15481,-1.55107 -1.52148,-2.49218 -0.36667,-0.94112 -0.55078,-1.94984 -0.55078,-3.02539 0,-1.08778 0.18411,-2.10186 0.55078,-3.04297 0.36667,-0.94112 0.87371,-1.76768 1.52148,-2.47656 0.66001,-0.72112 1.41789,-1.28222 2.27344,-1.68555 0.86778,-0.40334 1.7898,-0.60547 2.76758,-0.60547 1.02667,0 1.98669,0.22016 2.87891,0.66016 0.89222,0.44 1.65546,1.02643 2.29101,1.75976 l 4.91406,-2.64062 c -1.14889,-1.60112 -2.59792,-2.87675 -4.3457,-3.83008 -1.74778,-0.96556 -3.66051,-1.44922 -5.73828,-1.44922 z m -30.51758,0.0371 c -1.62556,0 -3.20269,0.31756 -4.73047,0.95312 -1.51556,0.63556 -2.87789,1.54492 -4.08789,2.73047 -1.19778,1.17334 -2.15244,2.56831 -2.86133,4.18164 -0.69666,1.61334 -1.04492,3.40332 -1.04492,5.3711 0,1.82111 0.31757,3.53901 0.95313,5.15234 0.63555,1.61333 1.52153,3.03704 2.6582,4.27148 1.13667,1.22223 2.47027,2.18029 3.99805,2.87696 1.54,0.69666 3.20724,1.04492 5.0039,1.04492 1.82112,0 3.51368,-0.36628 5.07813,-1.09961 1.56445,-0.73333 2.92874,-1.74741 4.08984,-3.04297 1.16112,-1.29555 2.04709,-2.78598 2.65821,-4.47265 0.19194,-0.52314 0.34909,-1.05757 0.47265,-1.60157 v 9.74024 h 5.5 v -25.66602 h -5.5 v 12.09961 h -9.62109 v 4.76758 h 3.44531 c -0.37889,0.64778 -0.79922,1.20888 -1.26367,1.68555 -0.46445,0.47666 -0.96078,0.86826 -1.48633,1.17382 -0.52556,0.30556 -1.06864,0.53838 -1.63086,0.69727 -0.55,0.14667 -1.10574,0.21875 -1.66797,0.21875 -0.99,0 -1.91933,-0.19483 -2.78711,-0.58594 -0.86777,-0.40333 -1.63101,-0.95371 -2.29101,-1.65039 -0.66,-0.70888 -1.1797,-1.53349 -1.5586,-2.47461 -0.36666,-0.94111 -0.55078,-1.94983 -0.55078,-3.02539 0,-1.17333 0.19678,-2.24147 0.58789,-3.20703 0.40334,-0.96555 0.94106,-1.79747 1.61328,-2.49414 0.67223,-0.69667 1.43547,-1.23439 2.29102,-1.61328 0.85556,-0.37889 1.74154,-0.56836 2.6582,-0.56836 0.90444,0 1.79578,0.20213 2.67578,0.60547 0.89222,0.39111 1.71148,1.00823 2.45704,1.85156 l 4.91406,-2.64062 c -1.39334,-1.85778 -2.9578,-3.20209 -4.69336,-4.03321 -1.73555,-0.83111 -3.49485,-1.24609 -5.2793,-1.24609 z m -172.074217,0.43945 c -2.163059,6.59791 -4.076298,14.12425 -5.292969,22.06836 v 3.59766 h 10.707032 c 1.417779,0 2.713384,-0.31026 3.886718,-0.9336 1.061891,-0.57518 1.928138,-1.32077 2.59961,-2.23632 v 3.16992 h 5.5 v -9.97266 h 1.90625 l 5.792968,9.97266 h 6.34375 L 87.296875,164.1621 c 0.916667,-0.44 1.71059,-1.02108 2.382813,-1.74219 0.684445,-0.73333 1.209505,-1.56865 1.576171,-2.50976 0.366668,-0.95334 0.550782,-1.98008 0.550782,-3.08008 0,-1.43 -0.33559,-2.73828 -1.007813,-3.92383 -0.66,-1.19778 -1.558644,-2.15244 -2.695312,-2.86133 -1.136668,-0.70889 -2.408896,-1.0625 -3.814454,-1.0625 H 73.839844 v 6.24414 c -0.10718,-1.08687 -0.430347,-2.05654 -0.96875,-2.9082 -0.660001,-1.06333 -1.558645,-1.88063 -2.695313,-2.45508 -1.136667,-0.58667 -2.406943,-0.88086 -3.8125,-0.88086 z m 31.109375,0 v 14.96094 c 0,2.06556 0.440311,3.94759 1.320313,5.64648 0.892222,1.68667 2.121101,3.03099 3.685547,4.03321 1.576667,1.00222 3.391982,1.50195 5.445312,1.50195 1.54,0 2.94568,-0.28688 4.2168,-0.86133 1.27111,-0.57444 2.36994,-1.37372 3.29882,-2.40039 0.9289,-1.02667 1.64538,-2.21219 2.14649,-3.55664 0.50111,-1.35667 0.75,-2.81105 0.75,-4.36328 v -14.96094 h -5.5 v 14.96094 c 0,1.05111 -0.18947,2.00917 -0.56836,2.87695 -0.37889,0.85556 -0.93464,1.54135 -1.66797,2.05469 -0.73333,0.50111 -1.62467,0.75 -2.67578,0.75 -1.03889,0 -1.93218,-0.2562 -2.67773,-0.76953 -0.73334,-0.51333 -1.294439,-1.19718 -1.685551,-2.05274 -0.391112,-0.86778 -0.587891,-1.82048 -0.587891,-2.85937 v -14.96094 z m 25.701172,0 -4.98633,25.66602 h 5.60938 l 2.67578,-13.85938 5.24414,13.85938 h 3.8125 l 5.24414,-13.85938 2.67578,13.85938 h 5.61133 3.29687 l 1.4668,-4.03321 h 10.22852 l 1.46679,4.03321 h 5.83008 l -9.3125,-25.66602 h -6.19726 l -7.66211,21.11914 -4.10352,-21.11914 h -4.69336 l -5.75781,15.14258 -5.75586,-15.14258 z m 57.62891,0 -4.98633,25.66602 h 5.60937 l 2.67774,-13.85938 5.24414,13.85938 h 3.8125 l 5.24414,-13.85938 2.67578,13.85938 h 5.60937 3.29688 l 1.4668,-4.03321 h 10.23047 l 1.46679,4.03321 h 5.83008 l -9.31445,-25.66602 h -6.19531 l -7.66407,21.11914 -4.10351,-21.11914 h -4.69336 l -5.75586,15.14258 -5.75781,-15.14258 z m -114.232426,4.69336 h 3.556641 c 0.733334,0 1.363116,0.20214 1.888672,0.60547 0.525556,0.40333 0.787109,0.98441 0.787109,1.74219 0,0.74555 -0.261553,1.36267 -0.787109,1.85156 -0.525556,0.48889 -1.155338,0.73242 -1.888672,0.73242 h -3.556641 z m 17.19336,0 h 4.289062 c 0.48889,0 0.936511,0.1281 1.339844,0.38477 0.403334,0.24444 0.726258,0.57468 0.970703,0.99023 0.244445,0.41555 0.367188,0.87389 0.367188,1.375 0,0.50111 -0.122743,0.95945 -0.367188,1.375 -0.244445,0.41556 -0.567369,0.75115 -0.970703,1.00781 -0.403333,0.24444 -0.850954,0.36719 -1.339844,0.36719 h -4.289062 z m 75.156246,2.9336 3.11719,8.50585 h -6.19726 z m 57.63086,0 3.11524,8.50585 h -6.19531 z m 72.71485,0 3.11523,8.50585 h -6.19531 z m -211.001956,0.18554 v 5.44141 c -0.122101,-0.17888 -0.255797,-0.34859 -0.400391,-0.51172 -0.476667,-0.53778 -1.124469,-0.90406 -1.943359,-1.09961 0.635556,-0.29333 1.124574,-0.6976 1.466797,-1.21094 0.342222,-0.51333 0.580399,-1.06372 0.714843,-1.65039 0.0746,-0.3323 0.128903,-0.65526 0.16211,-0.96875 z m -11.69336,6.39649 h 4.619141 c 0.635556,0 1.211275,0.15879 1.724609,0.47656 0.525556,0.31778 0.940538,0.73276 1.246094,1.24609 0.317778,0.50112 0.476563,1.03349 0.476563,1.59571 0,0.67222 -0.158785,1.27132 -0.476563,1.79687 -0.305556,0.52556 -0.720538,0.94054 -1.246094,1.24609 -0.513334,0.29334 -1.089053,0.43946 -1.724609,0.43946 h -4.619141 z" />
      <path
         id="path182"
         style="fill:#2b2a20;fill-opacity:1;fill-rule:nonzero;stroke:none;stroke-width:0.165099"
         d="m 292.22263,167.18198 -26.73435,1.96841 -26.14062,28.89258 -34.94532,28.3457 -22.01367,1.92383 -22.83984,5.7793 124.38086,1.83008 c 5.20587,-11.91963 8.52093,-24.85497 9.56445,-38.42579 v -13.4082 c 0,-3.01979 -0.1216,-6.01055 -0.35742,-8.96875 -0.29189,-2.67127 -0.49053,-5.2716 -0.91409,-7.93716 z"
         sodipodi:nodetypes="ccccccccscc" />
      <path
         id="path183"
         d="m 265.48905,169.97651 -6.39763,21.46301 -7.63588,5.15935 15.47813,2.06376 -21.66937,3.50838 -26.20928,23.52674 -13.00162,1.44464 22.08212,-19.19289 9.49291,-1.44462 -5.15904,-1.03187 12.17578,-8.04862 20.84388,-27.44788"
         style="fill:#f2e8bf;fill-opacity:1;fill-rule:nonzero;stroke:none;stroke-width:0.165099" />
      <path
         id="path184-7"
         d="m 272.09305,171.42113 14.859,0.61914 -13.00163,15.27174 -7.63588,35.90923 11.55701,-36.11559 14.86012,-16.13454 -0.22055,-1.73582 -20.41807,2.18584"
         style="fill:#f2e8bf;fill-opacity:1;fill-rule:nonzero;stroke:none;stroke-width:0.165099"
         sodipodi:nodetypes="cccccccc" />
      <path
         id="path185-9"
         d="m 281.72365,241.52092 -29.71798,13.75944 -21.18894,1.37694 -32.19448,6.32662 28.34271,-3.57605 33.84582,8.255 -22.8386,-8.80643 16.23459,-0.54813 27.51688,-16.78737"
         style="fill:#f2e8bf;fill-opacity:1;fill-rule:nonzero;stroke:none;stroke-width:0.165099" />
      <path
         id="path186-5"
         d="m 204.22815,230.17452 v 19.53761 c 0,0 15.30808,-7.65206 0,-19.53761"
         style="fill:#f2e8bf;fill-opacity:1;fill-rule:nonzero;stroke:none;stroke-width:0.165099" />
      <path
         id="path187-4"
         d="m 216.9458,247.19832 c -0.24929,2.8176 -2.58545,5.03357 -5.46646,5.03357 h -8.77177 c -2.88098,0 -3.12203,-2.21597 -3.37132,-5.03357 h 17.60955"
         style="fill:#2b2a20;fill-opacity:1;fill-rule:nonzero;stroke:none;stroke-width:0.165099" />
      <path
         id="path188-3"
         d="m 60.213991,198.32088 18.436711,8.80642 12.932278,28.34106 17.88694,14.0335 -24.490938,-11.55699 -9.354566,-28.89251 -15.410425,-10.73148"
         style="fill:#f2e8bf;fill-opacity:1;fill-rule:nonzero;stroke:none;stroke-width:0.165099" />
      <path
         id="path189-1"
         d="m 107.26749,223.35993 19.2622,7.70687 12.10678,11.27963 19.26222,5.50445 -23.9395,-2.47652 -8.25499,-12.65656 -18.43671,-9.35787"
         style="fill:#f2e8bf;fill-opacity:1;fill-rule:nonzero;stroke:none;stroke-width:0.165099" />
      <path
         id="path190-2"
         d="m 82.228414,210.42601 7.429505,3.30199 3.095622,3.50838 4.952996,1.85738 -7.635876,0.20637 -2.682869,-4.12751 2.682869,0.61913 -7.842247,-5.36574"
         style="fill:#f2e8bf;fill-opacity:1;fill-rule:nonzero;stroke:none;stroke-width:0.165099" />
      <path
         id="path191-3"
         d="m 67.782178,209.80689 3.714738,3.30198 2.063765,5.57212 -4.746625,-1.85737 5.159368,4.54024 4.127491,7.01677 -13.001616,-9.0805 4.952986,1.23823 -5.778482,-7.01673 5.572121,-0.20638 -2.063746,-3.50837"
         style="fill:#f2e8bf;fill-opacity:1;fill-rule:nonzero;stroke:none;stroke-width:0.165099" />
      <path
         id="path192-3"
         d="m 114.11253,230.34201 8.66775,4.74664 1.85738,8.97647 -2.78524,-5.67447 -5.36575,-2.06378 h 3.81711 l -6.19125,-5.98486"
         style="fill:#f2e8bf;fill-opacity:1;fill-rule:nonzero;stroke:none;stroke-width:0.165099" />
      <path
         id="path193-4"
         d="m 246.77729,208.50094 -10.18074,9.63194 9.35523,-0.82551 -10.18072,4.40157 -9.6316,8.80642 -13.208,1.92507 h 23.39037 l 9.0805,-9.906 -9.63127,2.47649 17.06076,-6.3266 8.25501,-12.10847 -16.51,6.87808 2.20046,-4.95298"
         style="fill:#f2e8bf;fill-opacity:1;fill-rule:nonzero;stroke:none;stroke-width:0.165099" />
      <path
         id="path194-1"
         d="M 100.59098,122.61021 H 150.012 c 0,0 -4.14401,-11.24331 -13.91133,-5.02893 -8.58023,-10.0612 -16.2739,-3.84849 -21.89391,1.4793 -4.44119,-5.9205 -7.69861,-0.8899 -13.61578,3.54963"
         style="fill:#f2e8bf;fill-opacity:1;fill-rule:nonzero;stroke:none;stroke-width:0.165099" />
      <path
         id="path195-1"
         d="m 190.94152,201.87769 h 33.32376 c 0,0 -2.79365,-7.58139 -9.37966,-3.3928 -5.78558,-6.78395 -10.97402,-2.59207 -14.76356,1.00049 -2.99442,-3.99211 -5.19007,-0.5993 -9.18054,2.39231"
         style="fill:#f2e8bf;fill-opacity:1;fill-rule:nonzero;stroke:none;stroke-width:0.165099" />
      <path
         id="path34"
         d="m 186.26532,106.18109 c 0.51205,-1.59376 1.98786,-2.75323 3.75185,-2.75323 0.52947,0 1.03347,0.10724 1.49457,0.29624 0.55092,-3.00656 3.17145,-5.287975 6.33752,-5.287975 0.73859,0 1.43693,0.14878 2.09777,0.378 1.071,-4.46092 5.07485,-7.779812 9.86417,-7.779812 4.93677,0 9.04785,3.523972 9.96202,8.191322 0.90881,-0.48792 1.93021,-0.78951 3.03471,-0.78951 3.56418,0 6.45413,2.888615 6.45413,6.454145 0,0.44234 -0.0455,0.87395 -0.13002,1.29082 h -42.86672"
         style="fill:#f2e8bf;fill-opacity:1;fill-rule:nonzero;stroke:none;stroke-width:0.134042" />
      <path
         id="path35"
         d="m 77.447,176.81751 c 0.31501,-0.98119 1.22382,-1.69563 2.30956,-1.69563 0.32573,0 0.63536,0.0671 0.91952,0.18364 0.33913,-1.85113 1.953,-3.25723 3.90199,-3.25723 0.45573,0 0.88601,0.0938 1.29215,0.23457 0.65949,-2.74652 3.12453,-4.79067 6.07346,-4.79067 3.04008,0 5.56945,2.16881 6.13378,5.04401 0.55896,-0.30159 1.18895,-0.48791 1.8672,-0.48791 2.19562,0 3.97436,1.78008 3.97436,3.9757 0,0.27211 -0.0282,0.5375 -0.0791,0.79352 H 77.44698"
         style="fill:#f2e8bf;fill-opacity:1;fill-rule:nonzero;stroke:none;stroke-width:0.134042" />
      <path
         id="path187"
         d="m 193.15201,269.89512 v 22.2412 c 0,0 -20.864,-9.13707 0,-22.2412"
         style="fill:#f2e8bf;fill-opacity:1;fill-rule:nonzero;stroke:none;stroke-width:0.133333" />
      <path
         id="path188"
         d="m 198.15201,290.23885 h -28.104 l 6.12,6.12133 h 19.05334 l 2.93066,-6.12133"
         style="fill:#2b2a20;fill-opacity:1;fill-rule:nonzero;stroke:none;stroke-width:0.133333" />
    </g>
  </g>
</svg>
