<?xml version="1.0" encoding="UTF-8" standalone="no"?>
<!-- Created with Inkscape (http://www.inkscape.org/) -->

<svg
   version="1.1"
   id="svg1"
   width="267.24493"
   height="289.0296"
   viewBox="0 0 267.24493 289.0296"
   sodipodi:docname="logo.svg"
   inkscape:version="1.4.2 (ebf0e94, 2025-05-08)"
   xmlns:inkscape="http://www.inkscape.org/namespaces/inkscape"
   xmlns:sodipodi="http://sodipodi.sourceforge.net/DTD/sodipodi-0.dtd"
   xmlns="http://www.w3.org/2000/svg"
   xmlns:svg="http://www.w3.org/2000/svg">
  <defs
     id="defs1">
    <inkscape:path-effect
       effect="fillet_chamfer"
       id="path-effect12"
       is_visible="true"
       lpeversion="1"
       nodesatellites_param="F,0,0,1,0,3.0379126,0,1 @ F,0,0,1,0,3.0379126,0,1 @ F,0,0,1,0,3.126301,0,1 @ F,0,0,1,0,3.8080583,0,1"
       radius="0"
       unit="px"
       method="auto"
       mode="F"
       chamfer_steps="1"
       flexible="false"
       use_knot_distance="true"
       apply_no_radius="true"
       apply_with_radius="true"
       only_selected="false"
       hide_knots="false" />
    <inkscape:path-effect
       effect="fillet_chamfer"
       id="path-effect11"
       is_visible="true"
       lpeversion="1"
       nodesatellites_param="F,0,0,1,0,3.5533468,0,1 @ F,0,0,1,0,3.7727312,0,1 @ F,0,0,1,0,3.6843429,0,1"
       radius="0"
       unit="px"
       method="auto"
       mode="F"
       chamfer_steps="1"
       flexible="false"
       use_knot_distance="true"
       apply_no_radius="true"
       apply_with_radius="true"
       only_selected="false"
       hide_knots="false" />
  </defs>
  <sodipodi:namedview
     id="namedview1"
     pagecolor="#ffffff"
     bordercolor="#000000"
     borderopacity="0.25"
     inkscape:showpageshadow="2"
     inkscape:pageopacity="0.0"
     inkscape:pagecheckerboard="0"
     inkscape:deskcolor="#d1d1d1"
     showgrid="false"
     inkscape:zoom="2"
     inkscape:cx="114"
     inkscape:cy="116.25"
     inkscape:window-width="1920"
     inkscape:window-height="1009"
     inkscape:window-x="-8"
     inkscape:window-y="-8"
     inkscape:window-maximized="1"
     inkscape:current-layer="g1"
     showguides="true">
    <inkscape:page
       x="0"
       y="3.5892648e-14"
       inkscape:label="1"
       id="page1"
       width="267.24493"
       height="289.0296"
       margin="0"
       bleed="0" />
    <sodipodi:guide
       position="298.18939,131.29169"
       orientation="0,1"
       id="guide4"
       inkscape:locked="false"
       inkscape:label=""
       inkscape:color="rgb(0,134,229)" />
    <sodipodi:guide
       position="133.6225,-35.109406"
       orientation="-1,0"
       id="guide5"
       inkscape:locked="false"
       inkscape:label=""
       inkscape:color="rgb(0,134,229)" />
    <sodipodi:guide
       position="56.214988,229.62466"
       orientation="1,0"
       id="guide10"
       inkscape:locked="false" />
    <sodipodi:guide
       position="210.71782,247.30233"
       orientation="1,0"
       id="guide11"
       inkscape:locked="false" />
  </sodipodi:namedview>
  <g
     id="g1"
     inkscape:groupmode="layer"
     inkscape:label="1"
     style="display:inline"
     transform="translate(-298.41687,-215.03706)">
    <path
       id="path44"
       d="m 558.01263,335.22488 c 6.16379,6.16378 7.64917,17.31734 7.64917,27.97147 0,65.59422 -46.2376,115.76708 -101.96077,129.7255 -10.30689,2.58184 -31.48491,11.14481 -31.48491,11.14481 0,0 -21.18087,-8.48752 -30.92675,-10.73302 -62.20396,-14.33214 -102.8725,-70.76878 -102.8725,-130.13729 0,-16.23593 3.12063,-22.67136 8.42075,-27.97147 l 95.776,-107.98182 c 16.27333,-16.27467 42.664,-16.27467 58.93733,0"
       style="fill:#230f04;fill-opacity:1;fill-rule:nonzero;stroke:none;stroke-width:0.133333"
       sodipodi:nodetypes="csscssccc" />
    <path
       id="path45"
       d="m 557.59801,341.8225 c 4.73829,5.46176 4.24428,16.57419 4.2546,21.27059 0.11802,53.72797 -37.1321,112.59908 -106.95213,128.96371 -8.71568,2.04281 -22.8519,7.11743 -22.8519,7.11743 0,0 -16.85548,-6.91289 -20.42298,-7.62086 -71.61201,-14.2114 -108.54223,-74.3161 -108.57712,-128.35699 -0.006,-8.82963 -0.15275,-17.97197 8.82514,-26.78599 l 91.92534,-104.16733 c 15.56963,-15.57096 40.92783,-15.61378 56.4166,0 18.4597,18.60869 61.60203,68.33585 97.38245,109.57944 z"
       style="display:inline;fill:#913520;fill-opacity:1;fill-rule:nonzero;stroke:none;stroke-width:0.133333"
       sodipodi:nodetypes="ssscssccss" />
    <path
       id="path45-3"
       d="m 317.07542,338.80929 91.23113,-104.94123 c 14.36943,-13.99575 35.23016,-12.78837 50.64412,2.75 31.60996,31.8651 59.73189,72.99869 91.24411,104.96032 -108.78388,42.26266 -215.47019,53.97954 -233.11936,-2.76909 z"
       style="display:inline;fill:#25938f;fill-opacity:1;fill-rule:nonzero;stroke:none;stroke-width:0.132689"
       sodipodi:nodetypes="ccscc" />
    <path
       id="path46"
       d="M 432.48131,489.21799 C 380.1764,489.56374 307.9748,436.10801 307.68632,363.27087 c -0.0343,-8.66193 3.53517,-17.23366 9.73499,-24.08766 0.42875,-0.47398 1.07379,-1.04925 1.5724,-1.26025 0.47071,-0.19919 1.74086,-0.14895 2.71957,-0.15515 103.97767,-0.65845 106.23493,-1.33656 222.41448,-0.28087 0.36089,0.003 1.18591,0.14188 1.71719,0.36894 0.40645,0.17371 4.06193,3.1511 4.06193,3.1511 5.81449,6.36579 8.45197,14.31813 8.39991,22.45432 -0.28596,44.69024 -41.60065,125.19994 -125.82548,125.75669 z"
       style="fill:#2a2225;fill-opacity:1;fill-rule:nonzero;stroke:none;stroke-width:0.133333"
       sodipodi:nodetypes="sscsccscss" />
    <path
       d="m 337.32454,399.26672 v -22.4 h 14.176 v 4.416 h -9.76 v 3.776 h 7.616 v 4.416 h -7.616 v 5.376 h 9.76 v 4.416 z m 26.33998,0.416 q -1.888,0 -3.616,-0.592 -1.712,-0.592 -3.008,-1.712 -1.28,-1.12 -1.84,-2.656 l 4.144,-1.536 q 0.192,0.544 0.8,1.024 0.608,0.464 1.52,0.768 0.912,0.288 2,0.288 1.04,0 1.952,-0.304 0.928,-0.32 1.488,-0.88 0.576,-0.56 0.576,-1.312 0,-0.752 -0.592,-1.248 -0.592,-0.496 -1.52,-0.784 -0.928,-0.304 -1.904,-0.464 -2.416,-0.352 -4.336,-1.136 -1.904,-0.8 -3.008,-2.192 -1.104,-1.408 -1.104,-3.568 0,-2.08 1.168,-3.632 1.184,-1.552 3.104,-2.416 1.936,-0.864 4.176,-0.864 1.856,0 3.584,0.592 1.728,0.592 3.008,1.712 1.296,1.12 1.856,2.688 l -4.144,1.504 q -0.192,-0.544 -0.8,-1.008 -0.608,-0.464 -1.52,-0.752 -0.912,-0.288 -1.984,-0.288 -1.024,-0.016 -1.952,0.304 -0.912,0.32 -1.504,0.88 -0.576,0.56 -0.576,1.28 0,0.944 0.544,1.424 0.56,0.48 1.472,0.688 0.912,0.208 2.016,0.368 2.272,0.336 4.192,1.2 1.92,0.848 3.072,2.272 1.168,1.408 1.168,3.44 0,2.08 -1.168,3.632 -1.168,1.552 -3.088,2.416 -1.92,0.864 -4.176,0.864 z m 22.40406,0 q -2.272,0 -4.272,-0.896 -2,-0.912 -3.52,-2.512 -1.504,-1.6 -2.368,-3.696 -0.848,-2.112 -0.848,-4.512 0,-2.416 0.848,-4.512 0.864,-2.112 2.368,-3.696 1.52,-1.6 3.52,-2.496 2,-0.912 4.272,-0.912 2.72,0 5.008,1.264 2.288,1.248 3.792,3.344 l -3.936,2.128 q -0.896,-1.056 -2.16,-1.68 -1.264,-0.64 -2.704,-0.64 -1.36,0 -2.56,0.56 -1.2,0.56 -2.112,1.552 -0.896,0.992 -1.408,2.288 -0.512,1.296 -0.512,2.8 0,1.488 0.512,2.8 0.512,1.296 1.408,2.288 0.912,0.976 2.112,1.552 1.2,0.56 2.56,0.56 1.456,0 2.704,-0.64 1.264,-0.64 2.16,-1.696 l 3.936,2.144 q -1.504,2.08 -3.792,3.344 -2.288,1.264 -5.008,1.264 z m 12.24479,-0.416 v -22.4 h 8.896 q 1.824,0 3.296,0.928 1.488,0.912 2.352,2.464 0.88,1.536 0.88,3.408 0,1.472 -0.512,2.736 -0.512,1.248 -1.44,2.192 -0.928,0.944 -2.16,1.472 l 5.328,9.2 h -5.088 l -5.104,-8.8 h -2.032 v 8.8 z m 4.416,-13.216 h 3.952 q 0.72,0 1.312,-0.352 0.608,-0.368 0.96,-0.976 0.368,-0.624 0.368,-1.376 0,-0.736 -0.368,-1.344 -0.352,-0.624 -0.96,-0.992 -0.592,-0.368 -1.312,-0.368 h -3.952 z m 15.97282,13.216 v -22.4 h 4.416 v 22.4 z m 26.196,-22.4 v 4.416 h -6.592 v 17.984 h -4.416 v -17.984 h -6.592 v -4.416 z m 12.81994,22.816 q -2.272,0 -4.272,-0.896 -2,-0.912 -3.52,-2.512 -1.52,-1.6 -2.384,-3.696 -0.864,-2.112 -0.864,-4.512 0,-2.4 0.864,-4.496 0.864,-2.112 2.384,-3.712 1.52,-1.6 3.52,-2.496 2,-0.912 4.272,-0.912 2.288,0 4.288,0.912 2,0.896 3.52,2.496 1.52,1.6 2.368,3.712 0.864,2.096 0.864,4.496 0,2.4 -0.864,4.512 -0.848,2.096 -2.368,3.696 -1.52,1.6 -3.52,2.512 -2,0.896 -4.288,0.896 z m 0,-4.416 q 1.36,0 2.56,-0.56 1.2,-0.576 2.112,-1.568 0.912,-0.992 1.424,-2.288 0.528,-1.296 0.528,-2.784 0,-1.488 -0.528,-2.784 -0.512,-1.312 -1.424,-2.288 -0.912,-0.992 -2.112,-1.552 -1.2,-0.576 -2.56,-0.576 -1.36,0 -2.56,0.576 -1.2,0.56 -2.112,1.552 -0.912,0.992 -1.44,2.288 -0.512,1.296 -0.512,2.784 0,1.488 0.512,2.8 0.528,1.296 1.44,2.288 0.912,0.976 2.112,1.552 1.2,0.56 2.56,0.56 z m 14.3392,4 v -22.4 h 8.896 q 1.824,0 3.296,0.928 1.488,0.912 2.352,2.464 0.88,1.536 0.88,3.408 0,1.472 -0.512,2.736 -0.512,1.248 -1.44,2.192 -0.928,0.944 -2.16,1.472 l 5.328,9.2 h -5.088 l -5.104,-8.8 h -2.032 v 8.8 z m 4.416,-13.216 h 3.952 q 0.72,0 1.312,-0.352 0.608,-0.368 0.96,-0.976 0.368,-0.624 0.368,-1.376 0,-0.736 -0.368,-1.344 -0.352,-0.624 -0.96,-0.992 -0.592,-0.368 -1.312,-0.368 h -3.952 z m 15.49281,13.216 v -22.4 h 14.176 v 4.416 h -9.76 v 3.776 h 7.616 v 4.416 h -7.616 v 5.376 h 9.76 v 4.416 z m 26.33999,0.416 q -1.888,0 -3.616,-0.592 -1.712,-0.592 -3.008,-1.712 -1.28,-1.12 -1.84,-2.656 l 4.144,-1.536 q 0.192,0.544 0.8,1.024 0.608,0.464 1.52,0.768 0.912,0.288 2,0.288 1.04,0 1.952,-0.304 0.928,-0.32 1.488,-0.88 0.576,-0.56 0.576,-1.312 0,-0.752 -0.592,-1.248 -0.592,-0.496 -1.52,-0.784 -0.928,-0.304 -1.904,-0.464 -2.416,-0.352 -4.336,-1.136 -1.904,-0.8 -3.008,-2.192 -1.104,-1.408 -1.104,-3.568 0,-2.08 1.168,-3.632 1.184,-1.552 3.104,-2.416 1.936,-0.864 4.176,-0.864 1.856,0 3.584,0.592 1.728,0.592 3.008,1.712 1.296,1.12 1.856,2.688 l -4.144,1.504 q -0.192,-0.544 -0.8,-1.008 -0.608,-0.464 -1.52,-0.752 -0.912,-0.288 -1.984,-0.288 -1.024,-0.016 -1.952,0.304 -0.912,0.32 -1.504,0.88 -0.576,0.56 -0.576,1.28 0,0.944 0.544,1.424 0.56,0.48 1.472,0.688 0.912,0.208 2.016,0.368 2.272,0.336 4.192,1.2 1.92,0.848 3.072,2.272 1.168,1.408 1.168,3.44 0,2.08 -1.168,3.632 -1.168,1.552 -3.088,2.416 -1.92,0.864 -4.176,0.864 z"
       id="text3"
       style="font-size:32px;line-height:1.25;font-family:Urbanist;-inkscape-font-specification:'Urbanist, @wght=800';font-variation-settings:'wght' 800;letter-spacing:0.5px;fill:#fef5e0"
       aria-label="ESCRITORES" />
    <g
       id="g2"
       transform="translate(89.836947,-11.141367)"
       style="display:inline">
      <path
         id="path57"
         d="m 285.31292,329.8251 -7.95755,-7.38918 -48.19861,26.62841 52.17739,-0.19793 3.97877,-19.0413"
         style="fill:#2a2225;fill-opacity:1;fill-rule:nonzero;stroke:none;stroke-width:0.227358"
         sodipodi:nodetypes="ccccc" />
      <path
         id="path62"
         d="m 277.35537,322.43592 -5.6817,9.94697 -3.22168,-1.89391 -28.41988,14.77835 -8.86343,2.68547 46.18669,-25.51688"
         style="display:inline;fill:#fef5e0;fill-opacity:1;fill-rule:nonzero;stroke:none;stroke-width:0.227358"
         sodipodi:nodetypes="cccccc" />
      <path
         id="path56"
         style="display:inline;fill:#fade54;fill-opacity:1;fill-rule:nonzero;stroke:none;stroke-width:0.227358"
         d="m 350.60533,247.33134 c -16.30146,-3.23086 -32.70216,6.38522 -37.60447,22.62436 -5.21649,17.27983 4.56045,35.51744 21.84245,40.73459 11.518,3.47708 23.46089,0.2907 31.69003,-7.33778 a 35.001785,35.001785 0 0 1 -0.0706,-0.0226 35.001785,35.001785 0 0 1 -22.51266,-44.08462 35.001785,35.001785 0 0 1 6.65526,-11.91368 z" />
      <path
         id="path58"
         d="m 244.82545,348.44538 62.12233,-34.78902 17.36686,1.35696 33.64645,-23.13153 79.82687,56.98577 -192.92839,2.32782"
         style="fill:#2a2225;fill-opacity:1;fill-rule:nonzero;stroke:none;stroke-width:0.227358"
         sodipodi:nodetypes="cccccc" />
      <path
         id="path59"
         d="m 357.96109,291.88179 -7.33534,16.91832 -16.57044,9.99729 -5.7807,9.40096 -3.95997,-13.18504 33.64645,-23.13153"
         style="fill:#fef5e0;fill-opacity:1;fill-rule:nonzero;stroke:none;stroke-width:0.227358" />
      <path
         id="path60"
         d="m 306.94778,313.65636 0.35441,8.14079 -9.1428,7.19439 -18.44073,6.43501 2.12109,-7.62198 25.10803,-14.14821"
         style="fill:#fef5e0;fill-opacity:1;fill-rule:nonzero;stroke:none;stroke-width:0.227358" />
      <path
         id="path61"
         d="m 392.28721,316.77588 -9.69973,12.41769 -0.95979,8.8312 -6.10282,7.51314 -13.07052,0.26234 16.2692,-10.84402 0.42001,-7.39907 13.14365,-10.78128"
         style="fill:#fef5e0;fill-opacity:1;fill-rule:nonzero;stroke:none;stroke-width:0.227358" />
      <path
         id="path63"
         d="m 281.83975,327.80457 -12.77772,10.20541 -11.01879,3.34798 11.38277,0.62431 10.29265,-6.55572 2.12109,-7.62198"
         style="fill:#fef5e0;fill-opacity:1;fill-rule:nonzero;stroke:none;stroke-width:0.227358" />
      <path
         id="path64"
         d="m 403.65279,333.20243 12.12506,-10.61086 40.23015,26.40568 -36.44008,-0.25939 -15.91513,-15.53543"
         style="fill:#2a2225;fill-opacity:1;fill-rule:nonzero;stroke:none;stroke-width:0.227358"
         sodipodi:nodetypes="ccccc" />
      <path
         id="path65"
         d="m 415.77785,322.59157 -0.37743,10.23116 -10.23116,7.58015 -16.29481,5.30429 16.67225,-14.39865 10.23115,-8.71695"
         style="fill:#fef5e0;fill-opacity:1;fill-rule:nonzero;stroke:none;stroke-width:0.227358"
         sodipodi:nodetypes="cccccc" />
    </g>
    <g
       id="g3"
       transform="matrix(1.218206,0,0,1.218206,15.639626,-65.124278)"
       style="display:inline">
      <path
         id="path47"
         d="m 266.43254,384.78647 c 0,0 1.35035,40.35882 57.256,56.19358 12.10118,3.42755 25.89877,1.35545 38.75716,0.10446 51.62685,-5.02276 54.74951,-56.29804 54.74951,-56.29804 H 266.43254"
         style="display:inline;fill:#25938f;fill-opacity:1;fill-rule:nonzero;stroke:none;stroke-width:0.133333"
         inkscape:label="Ceu"
         sodipodi:nodetypes="csscc" />
      <path
         style="display:inline;fill:#35ccc6;fill-opacity:1;stroke:none;stroke-width:1px;stroke-linecap:butt;stroke-linejoin:miter;stroke-opacity:1"
         d="m 409.96296,402.94813 c 0,0 -6.05403,7.39568 -4.66237,11.18895 1.66121,4.52799 11.18249,2.0745 12.88249,6.58807 1.35181,3.58912 -5.14258,6.96681 -4.24264,10.69499 1.63143,6.75851 15.68893,13.74439 15.68893,13.74439 l 9.07973,0.45422 c 3.99694,-4.9531 -16.2202,-8.84646 -14.51562,-15.7896 1.31391,-5.35185 12.29289,-1.16251 15.553,-5.60552 2.25189,-3.06896 -1.78574,-8.34382 0.47014,-11.40984 2.20573,-2.99786 7.19175,-2.08081 10.51406,-3.7585 3.25681,-1.64462 9.08331,-6.10716 9.08331,-6.10716 z"
         id="path6"
         sodipodi:nodetypes="caaaccaaaacc"
         transform="matrix(0.82087923,0,0,0.82087923,-11.848152,54.014719)" />
      <g
         id="g6"
         transform="translate(-5.9513744,2.4626377)">
        <path
           id="path52-2"
           d="m 308.11145,401.4459 -1.32,0.93964 1.068,-2.15328 -1.868,-9.02896 -0.908,5.00284 0.908,2.13072 -1.124,-0.92675 -3.276,18.04985 9.444,0.12894 -2.924,-14.143"
           style="display:inline;fill:#414140;fill-opacity:1;fill-rule:nonzero;stroke:none;stroke-width:0.146594" />
        <path
           id="path52-7-1"
           d="m 290.4884,397.09688 -1.32,0.84109 1.068,-1.92745 -1.868,-8.08205 -0.908,4.47816 0.908,1.90727 -1.124,-0.82956 -1.77224,7.8254 2.82549,8.39633 5.11475,0.0506 -2.924,-12.65975"
           style="display:inline;fill:#414140;fill-opacity:1;fill-rule:nonzero;stroke:none;stroke-width:0.138694"
           sodipodi:nodetypes="ccccccccccc" />
        <path
           id="path53-1-6"
           d="m 294.95839,399.10919 1.84133,1.05909 -1.492,-2.42619 2.60934,-10.16742 1.268,5.63471 -1.268,2.39891 1.57066,-1.04352 4.57467,20.32443 -13.18933,0.14556 4.08533,-15.92557"
           style="display:inline;fill:#414140;fill-opacity:1;fill-rule:nonzero;stroke:none;stroke-width:0.131631" />
        <path
           id="path52"
           d="m 294.27039,402.57098 -1.32,0.83239 1.068,-1.90752 -1.868,-7.9985 -0.908,4.43187 0.908,1.88754 -1.124,-0.82098 -4.14667,16.0624 7.76615,9.32232 3.05641,-7.68441 -3.43189,-14.12511"
           style="fill:#262625;fill-opacity:1;fill-rule:nonzero;stroke:none;stroke-width:0.137975"
           sodipodi:nodetypes="ccccccccccc" />
        <path
           id="path53"
           d="m 304.43871,405.60404 -1.84133,1.08666 1.492,-2.48933 -2.60934,-10.432 -1.268,5.78133 1.268,2.46134 -1.57066,-1.07067 -5.33435,20.34082 2.66606,3.78152 6.13354,4.5081 5.14941,-7.62777 -4.08533,-16.34"
           style="fill:#262625;fill-opacity:1;fill-rule:nonzero;stroke:none;stroke-width:0.133333"
           sodipodi:nodetypes="cccccccccccc" />
        <path
           id="path52-7"
           d="m 278.95064,394.36764 -1.32,0.77733 1.068,-1.78133 -1.868,-7.46934 -0.908,4.13867 0.908,1.76267 -1.124,-0.76667 -1.71358,8.22501 7.88158,6.81366 -2.924,-11.7"
           style="display:inline;fill:#262625;fill-opacity:1;fill-rule:nonzero;stroke:none;stroke-width:0.133333"
           sodipodi:nodetypes="cccccccccc" />
        <path
           id="path53-1"
           d="m 280.55696,396.92385 1.84133,1.08666 -1.492,-2.48933 2.60934,-10.432 1.268,5.78133 -1.268,2.46134 1.57066,-1.07067 4.57467,20.85333 -6.4828,2.2503 -4.40778,-11.29522 1.78658,-7.14574"
           style="display:inline;fill:#262625;fill-opacity:1;fill-rule:nonzero;stroke:none;stroke-width:0.133333"
           sodipodi:nodetypes="ccccccccccc" />
        <path
           id="path54"
           d="m 319.13965,412.3837 -4.18,2.46534 3.38533,-5.648 -5.92267,-23.68 -2.876,13.12133 2.876,5.58933 -3.56533,-2.43333 -5.64498,27.29321 25.19831,20.38012 -9.27066,-37.088"
           style="display:inline;fill:#262625;fill-opacity:1;fill-rule:nonzero;stroke:none;stroke-width:0.133333"
           sodipodi:nodetypes="cccccccccc" />
      </g>
      <g
         id="g5"
         style="display:inline"
         transform="translate(2.0315724,4.0631449)">
        <path
           id="path50-9"
           d="m 388.22323,399.65764 -1.84134,1.08534 1.49067,-2.488 -2.60933,-10.432 -1.26667,5.78 1.26667,2.46266 -1.56934,-1.072 -4.93379,22.29121 13.54846,-1.28721 -4.08533,-16.34"
           style="display:inline;fill:#414140;fill-opacity:1;fill-rule:nonzero;stroke:none;stroke-width:0.133333"
           sodipodi:nodetypes="cccccccccc" />
        <path
           id="path50-8-9"
           d="m 393.65064,393.99168 1.84134,1.08534 -1.49067,-2.488 2.60933,-10.432 1.26667,5.78 -1.26667,2.46266 1.56934,-1.072 4.57466,20.85467 -6.26375,3.1922 -6.92558,-3.04287 4.08533,-16.34"
           style="display:inline;fill:#414140;fill-opacity:1;fill-rule:nonzero;stroke:none;stroke-width:0.133333"
           sodipodi:nodetypes="ccccccccccc" />
        <path
           id="path51-2-5"
           d="m 406.99556,399.27499 -1.32,0.83821 1.068,-1.92082 -1.868,-8.05419 -0.908,4.46273 0.908,1.90068 -1.124,-0.82669 -3.68644,18.00733 4.36819,-2.15929 4.15963,-6.16076 -1.59738,-6.0872"
           style="display:inline;fill:#414140;fill-opacity:1;fill-rule:nonzero;stroke:none;stroke-width:0.138455"
           sodipodi:nodetypes="ccccccccccc" />
        <path
           id="path49"
           d="m 374.72901,407.58987 -3.38534,-5.648 5.96028,-20.66497 2.83839,10.1063 -2.876,5.58933 3.56533,-2.43333 8.26299,33.75256 -16.72749,13.79531 -9.56616,-5.56651 7.94745,-32.30022"
           style="fill:#262625;fill-opacity:1;fill-rule:nonzero;stroke:none;stroke-width:0.133333"
           sodipodi:nodetypes="cccccccccc" />
        <path
           id="path50"
           d="m 394.27862,404.34314 -1.84134,1.15091 1.49067,-2.6383 -2.60933,-11.06219 -1.26667,6.12917 1.26667,2.61142 -1.56934,-1.13676 -4.57466,22.11449 3.63388,6.5319 9.77573,-7.02081 -4.30561,-16.67983"
           style="fill:#262625;fill-opacity:1;fill-rule:nonzero;stroke:none;stroke-width:0.137301"
           sodipodi:nodetypes="ccccccccccc" />
        <path
           id="path50-8"
           d="m 403.63693,404.97033 -1.84134,1.08534 1.49067,-2.488 -2.60933,-10.432 -1.26667,5.78 1.26667,2.46266 -1.56934,-1.072 -4.57466,20.85467 2.88331,0.0327 8.26852,-8.03264 -2.04783,-8.19066"
           style="display:inline;fill:#262625;fill-opacity:1;fill-rule:nonzero;stroke:none;stroke-width:0.133333"
           sodipodi:nodetypes="ccccccccccc" />
        <path
           id="path51-2"
           d="m 407.86309,396.93525 1.32,0.77734 -1.068,-1.78134 1.868,-7.46933 0.908,4.13867 -0.908,1.76266 1.124,-0.76666 2.37942,10.84541 -4.38232,6.67642 -5.08859,-0.22572 3.84749,-13.95742"
           style="display:inline;fill:#262625;fill-opacity:1;fill-rule:nonzero;stroke:none;stroke-width:0.133333"
           sodipodi:nodetypes="ccccccccccc" />
      </g>
      <g
         id="g4"
         transform="translate(1.4408104,1.5507125)">
        <path
           id="path81"
           d="m 350.33607,414.72585 1.584,-0.33334 11.39573,25.74328 -14.06239,1.75672 1.08266,-27.16666"
           style="fill:#262625;fill-opacity:1;fill-rule:nonzero;stroke:none;stroke-width:0.133333"
           sodipodi:nodetypes="ccccc" />
        <path
           id="path82"
           d="m 346.34007,441.08451 c 4.52534,-0.0653 9.024,-1.33066 13.00934,-3.77466 0.003,-10e-4 0.004,-10e-4 0.005,-0.003 l -8.908,-22.55333 -4.10667,26.33066"
           style="fill:#fade54;fill-opacity:1;fill-rule:nonzero;stroke:none;stroke-width:0.133333" />
        <path
           id="path83"
           d="m 351.92007,414.39251 -24.16666,4.16667 -10.83333,23.33333 h 32.33333 l 2.66666,-27.5"
           style="fill:#262625;fill-opacity:1;fill-rule:nonzero;stroke:none;stroke-width:0.133333" />
      </g>
      <path
         id="path7"
         style="font-variation-settings:'wght' 800;fill:#fade54;fill-opacity:1;stroke-width:1.03666;stroke-linecap:round;stroke-linejoin:round;paint-order:markers fill stroke"
         d="m 363.12438,284.4687 c 0,0 0.0114,-2.95732 -0.93461,-3.90336 -0.94604,-0.94603 -3.90336,-0.9346 -3.90336,-0.9346 0,0 2.95952,-0.0514 3.90336,-1.00791 0.92302,-0.93543 0.93461,-3.83006 0.93461,-3.83006 0,0 -0.0156,2.92536 0.91628,3.86671 0.94745,0.95707 3.92168,0.97126 3.92168,0.97126 0,0 -2.9579,0.004 -3.90336,0.95293 -0.94024,0.94342 -0.9346,3.88503 -0.9346,3.88503 z"
         sodipodi:nodetypes="cacacacac" />
      <path
         id="path7-8"
         style="font-variation-settings:'wght' 800;display:inline;fill:#fade54;fill-opacity:1;stroke-width:1.03666;stroke-linecap:round;stroke-linejoin:round;paint-order:markers fill stroke"
         d="m 302.22177,304.21242 c 0,0 0.0114,-2.95732 -0.93461,-3.90336 -0.94604,-0.94603 -3.90336,-0.9346 -3.90336,-0.9346 0,0 2.95952,-0.0514 3.90336,-1.00791 0.92302,-0.93543 0.93461,-3.83006 0.93461,-3.83006 0,0 -0.0156,2.92536 0.91628,3.86671 0.94745,0.95707 3.92168,0.97126 3.92168,0.97126 0,0 -2.9579,0.004 -3.90336,0.95293 -0.94024,0.94342 -0.9346,3.88503 -0.9346,3.88503 z"
         sodipodi:nodetypes="cacacacac" />
      <path
         id="path7-8-1"
         style="font-variation-settings:'wght' 800;display:inline;fill:#fade54;fill-opacity:1;stroke-width:1.03666;stroke-linecap:round;stroke-linejoin:round;paint-order:markers fill stroke"
         d="m 307.05974,289.30667 c 0,0 0.0114,-2.95732 -0.93461,-3.90336 -0.94604,-0.94603 -3.90336,-0.9346 -3.90336,-0.9346 0,0 2.95952,-0.0514 3.90336,-1.00791 0.92302,-0.93543 0.93461,-3.83006 0.93461,-3.83006 0,0 -0.0156,2.92536 0.91628,3.86671 0.94745,0.95707 3.92168,0.97126 3.92168,0.97126 0,0 -2.9579,0.004 -3.90336,0.95293 -0.94024,0.94342 -0.9346,3.88503 -0.9346,3.88503 z"
         sodipodi:nodetypes="cacacacac" />
      <path
         id="path7-8-1-2"
         style="font-variation-settings:'wght' 800;display:inline;fill:#fade54;fill-opacity:1;stroke-width:1.03666;stroke-linecap:round;stroke-linejoin:round;paint-order:markers fill stroke"
         d="m 354.41221,268.36625 c 0,0 0.0114,-2.95732 -0.93462,-3.90336 -0.94603,-0.94603 -3.90336,-0.9346 -3.90336,-0.9346 0,0 2.95952,-0.0514 3.90336,-1.00791 0.92302,-0.93543 0.93462,-3.83006 0.93462,-3.83006 0,0 -0.0156,2.92536 0.91627,3.86671 0.94745,0.95707 3.92168,0.97126 3.92168,0.97126 0,0 -2.9579,0.004 -3.90336,0.95293 -0.94024,0.94342 -0.9346,3.88503 -0.93459,3.88503 z"
         sodipodi:nodetypes="cacacacac" />
      <path
         id="path7-8-1-2-2"
         style="font-variation-settings:'wght' 800;display:inline;fill:#fade54;fill-opacity:1;stroke-width:1.03666;stroke-linecap:round;stroke-linejoin:round;paint-order:markers fill stroke"
         d="m 383.7633,292.94111 c 0,0 0.0114,-2.95732 -0.93462,-3.90336 -0.94603,-0.94603 -3.90336,-0.9346 -3.90336,-0.9346 0,0 2.95952,-0.0514 3.90336,-1.00791 0.92302,-0.93543 0.93462,-3.83006 0.93462,-3.83006 0,0 -0.0156,2.92536 0.91627,3.86671 0.94745,0.95707 3.92168,0.97126 3.92168,0.97126 0,0 -2.9579,0.004 -3.90336,0.95293 -0.94024,0.94342 -0.9346,3.88503 -0.93459,3.88503 z"
         sodipodi:nodetypes="cacacacac" />
    </g>
    <ellipse
       style="font-variation-settings:'wght' 800;display:inline;fill:#f50052;fill-opacity:1;stroke:#fef5e0;stroke-width:0.578268;stroke-linecap:round;stroke-linejoin:round;stroke-dasharray:none;stroke-opacity:1;paint-order:markers fill stroke"
       id="path9-6-1-9"
       cx="365.4071"
       cy="338.35074"
       rx="9.0000553"
       ry="9" />
    <path
       d="m 320.19236,352.78025 h 4.396 l 7.112,19.6 h -4.102 l -1.176,-3.248 h -8.064 l -1.176,3.248 h -4.102 z m -0.42,12.488 h 5.236 l -2.632,-7.182 z m 21.05399,7.476 q -1.988,0 -3.738,-0.784 -1.75,-0.798 -3.08,-2.198 -1.316,-1.4 -2.072,-3.234 -0.742,-1.848 -0.742,-3.948 0,-2.114 0.742,-3.948 0.756,-1.848 2.072,-3.234 1.33,-1.4 3.08,-2.184 1.75,-0.798 3.738,-0.798 2.38,0 4.382,1.106 2.002,1.092 3.318,2.926 l -3.444,1.862 q -0.784,-0.924 -1.89,-1.47 -1.106,-0.56 -2.366,-0.56 -1.19,0 -2.24,0.49 -1.05,0.49 -1.848,1.358 -0.784,0.868 -1.232,2.002 -0.448,1.134 -0.448,2.45 0,1.302 0.448,2.45 0.448,1.134 1.232,2.002 0.798,0.854 1.848,1.358 1.05,0.49 2.24,0.49 1.274,0 2.366,-0.56 1.106,-0.56 1.89,-1.484 l 3.444,1.876 q -1.316,1.82 -3.318,2.926 -2.002,1.106 -4.382,1.106 z m 15.17332,-19.964 h 4.396 l 7.112,19.6 h -4.102 l -1.176,-3.248 h -8.064 l -1.176,3.248 h -4.102 z m -0.42,12.488 h 5.236 l -2.632,-7.182 z m 12.45799,7.112 3.808,-19.6 h 3.262 l 4.55,11.998 4.564,-11.998 h 3.262 l 3.808,19.6 h -3.948 l -2.17,-11.242 -4.186,11.046 h -2.66 l -4.172,-11.046 -2.184,11.242 z m 24.91869,0 v -19.6 h 7.224 q 1.61,0 2.898,0.812 1.302,0.812 2.072,2.17 0.77,1.344 0.77,2.968 0,1.652 -0.784,3.01 -0.784,1.344 -2.1,2.142 -1.302,0.798 -2.856,0.798 h -3.36 v 7.7 z m 3.864,-11.564 h 2.926 q 0.644,0 1.162,-0.308 0.518,-0.322 0.826,-0.854 0.322,-0.546 0.322,-1.204 0,-0.644 -0.322,-1.176 -0.308,-0.546 -0.826,-0.868 -0.518,-0.322 -1.162,-0.322 h -2.926 z m 13.90074,-8.036 h 4.396 l 7.112,19.6 h -4.102 l -1.176,-3.248 h -8.064 l -1.176,3.248 h -4.102 z m -0.42,12.488 h 5.236 l -2.632,-7.182 z m 12.458,7.112 3.808,-19.6 h 3.262 l 4.55,11.998 4.564,-11.998 h 3.262 l 3.808,19.6 h -3.948 l -2.17,-11.242 -4.186,11.046 h -2.66 l -4.172,-11.046 -2.184,11.242 z m 24.91868,0 v -19.6 h 12.404 v 3.864 h -8.54 v 3.304 h 6.664 v 3.864 h -6.664 v 4.704 h 8.54 v 3.864 z m 14.36128,0 v -19.6 h 4.172 l 7.644,12.614 v -12.614 h 3.864 v 19.6 h -4.172 l -7.644,-12.614 v 12.614 z m 32.73,-19.6 v 3.864 h -5.768 v 15.736 h -3.864 v -15.736 h -5.768 v -3.864 z m 9.62997,19.964 q -1.988,0 -3.738,-0.784 -1.75,-0.798 -3.08,-2.198 -1.33,-1.4 -2.086,-3.234 -0.756,-1.848 -0.756,-3.948 0,-2.1 0.756,-3.934 0.756,-1.848 2.086,-3.248 1.33,-1.4 3.08,-2.184 1.75,-0.798 3.738,-0.798 2.002,0 3.752,0.798 1.75,0.784 3.08,2.184 1.33,1.4 2.072,3.248 0.756,1.834 0.756,3.934 0,2.1 -0.756,3.948 -0.742,1.834 -2.072,3.234 -1.33,1.4 -3.08,2.198 -1.75,0.784 -3.752,0.784 z m 0,-3.864 q 1.19,0 2.24,-0.49 1.05,-0.504 1.848,-1.372 0.798,-0.868 1.246,-2.002 0.462,-1.134 0.462,-2.436 0,-1.302 -0.462,-2.436 -0.448,-1.148 -1.246,-2.002 -0.798,-0.868 -1.848,-1.358 -1.05,-0.504 -2.24,-0.504 -1.19,0 -2.24,0.504 -1.05,0.49 -1.848,1.358 -0.798,0.868 -1.26,2.002 -0.448,1.134 -0.448,2.436 0,1.302 0.448,2.45 0.462,1.134 1.26,2.002 0.798,0.854 1.848,1.358 1.05,0.49 2.24,0.49 z m 16.87999,3.5 v -19.6 h 6.496 q 2.03,0 3.794,0.77 1.778,0.756 3.122,2.114 1.358,1.344 2.114,3.122 0.77,1.764 0.77,3.794 0,2.03 -0.77,3.808 -0.756,1.764 -2.114,3.122 -1.344,1.344 -3.122,2.114 -1.764,0.756 -3.794,0.756 z m 3.864,-3.864 h 2.632 q 1.204,0 2.268,-0.462 1.078,-0.462 1.904,-1.274 0.826,-0.812 1.288,-1.89 0.476,-1.078 0.476,-2.31 0,-1.232 -0.476,-2.296 -0.462,-1.078 -1.288,-1.89 -0.812,-0.826 -1.89,-1.288 -1.064,-0.462 -2.282,-0.462 h -2.632 z m 13.45131,3.864 v -19.6 h 12.404 v 3.864 h -8.54 v 3.304 h 6.664 v 3.864 h -6.664 v 4.704 h 8.54 v 3.864 z"
       id="text54"
       style="font-size:28px;font-family:Urbanist;-inkscape-font-specification:'Urbanist, @wght=800';font-variation-settings:'wght' 800;letter-spacing:-1.15px;fill:#fef5e0;stroke-width:1.33333"
       aria-label="ACAMPAMENTO DE" />
    <path
       style="fill:#9a031e;fill-opacity:1;stroke:#fef5e0;stroke-width:0.578268;stroke-linecap:butt;stroke-linejoin:miter;stroke-dasharray:none;stroke-opacity:1"
       d="m 445.97249,330.27357 c 3.55406,0 7.90713,-1.42284 7.90713,-1.42284 2.5018,0.99441 4.27485,1.21543 7.90714,1.42284 v 12.84911 c 0,2.50277 -6.175,3.27278 -7.90714,4.72805 -1.72882,-1.40218 -7.90713,-2.24539 -7.90713,-4.72805 z"
       id="path9"
       sodipodi:nodetypes="ccccccc" />
    <path
       sodipodi:type="star"
       style="font-variation-settings:'wght' 800;fill:#5f0f40;fill-opacity:1;stroke:#fef5e0;stroke-width:0.976511;stroke-linecap:round;stroke-linejoin:round;stroke-dasharray:none;stroke-opacity:1;paint-order:markers fill stroke"
       id="path11"
       inkscape:flatsided="true"
       sodipodi:sides="3"
       sodipodi:cx="310.16687"
       sodipodi:cy="387.36807"
       sodipodi:r1="20.506098"
       sodipodi:r2="10.253048"
       sodipodi:arg1="-1.5707963"
       sodipodi:arg2="-0.52359878"
       inkscape:rounded="0"
       inkscape:randomized="0"
       d="m 311.94354,369.93926 14.09577,24.41458 a 2.1781874,2.1781874 120 0 1 -1.88637,3.26728 l -28.06053,0 a 2.1271564,2.1271564 60.000002 0 1 -1.84217,-3.19073 l 14.13996,-24.49113 a 2.0515257,2.0515257 1.535234e-6 0 1 3.55334,0 z"
       inkscape:transform-center-y="-3.0358052"
       inkscape:path-effect="#path-effect11"
       transform="matrix(0.59217724,0,0,0.59217724,226.52712,111.38855)"
       inkscape:transform-center-x="1.6570246e-06" />
    <path
       style="font-variation-settings:'wght' 800;fill:#e36414;fill-opacity:1;stroke:#fef5e0;stroke-width:0.944532;stroke-linecap:round;stroke-linejoin:round;stroke-dasharray:none;stroke-opacity:1;paint-order:markers fill stroke"
       id="rect11"
       width="23.75"
       height="23.75"
       x="526.16687"
       y="409.74307"
       inkscape:path-effect="#path-effect12"
       sodipodi:type="rect"
       d="m 529.20478,409.74307 h 17.67418 a 3.0379126,3.0379126 45 0 1 3.03791,3.03792 v 17.58578 a 3.126301,3.126301 135 0 1 -3.1263,3.1263 h -16.81564 a 3.8080583,3.8080583 45 0 1 -3.80806,-3.80806 v -16.90402 a 3.0379126,3.0379126 135 0 1 3.03791,-3.03792 z"
       transform="matrix(0.43290944,0.43290944,-0.43290944,0.43290944,446.9012,-77.083918)" />
  </g>
</svg>
