<?xml version="1.0" encoding="UTF-8" standalone="no"?>
<!-- Created with Inkscape (http://www.inkscape.org/) -->

<svg
   version="1.1"
   id="svg1"
   width="295.44702"
   height="294.65186"
   viewBox="0 0 295.44702 294.65185"
   sodipodi:docname="poeira-e-fumaca.svg"
   inkscape:version="1.4.2 (ebf0e94, 2025-05-08)"
   inkscape:export-filename="poeira-e-fumaca.png"
   inkscape:export-xdpi="96"
   inkscape:export-ydpi="96"
   xmlns:inkscape="http://www.inkscape.org/namespaces/inkscape"
   xmlns:sodipodi="http://sodipodi.sourceforge.net/DTD/sodipodi-0.dtd"
   xmlns:xlink="http://www.w3.org/1999/xlink"
   xmlns="http://www.w3.org/2000/svg"
   xmlns:svg="http://www.w3.org/2000/svg">
  <defs
     id="defs1">
    <inkscape:path-effect
       effect="fillet_chamfer"
       id="path-effect2"
       is_visible="true"
       lpeversion="1"
       nodesatellites_param="F,0,0,1,0,20.004499,0,1 @ F,0,0,1,0,19.620552,0,1 @ F,0,0,1,0,16.548976,0,1 @ F,0,0,1,0,18.852658,0,1"
       radius="0"
       unit="px"
       method="auto"
       mode="F"
       chamfer_steps="1"
       flexible="false"
       use_knot_distance="true"
       apply_no_radius="true"
       apply_with_radius="true"
       only_selected="false"
       hide_knots="false" />
  </defs>
  <sodipodi:namedview
     id="namedview1"
     pagecolor="#ffffff"
     bordercolor="#000000"
     borderopacity="0.25"
     inkscape:showpageshadow="2"
     inkscape:pageopacity="0.0"
     inkscape:pagecheckerboard="0"
     inkscape:deskcolor="#d1d1d1"
     showguides="true"
     inkscape:zoom="1.8416777"
     inkscape:cx="169.41075"
     inkscape:cy="149.04888"
     inkscape:window-width="1920"
     inkscape:window-height="1009"
     inkscape:window-x="-8"
     inkscape:window-y="-8"
     inkscape:window-maximized="1"
     inkscape:current-layer="g1"
     showgrid="false">
    <inkscape:page
       x="0"
       y="0"
       inkscape:label="1"
       id="page1"
       width="295.44702"
       height="294.65186"
       margin="0"
       bleed="0" />
    <sodipodi:guide
       position="147.26056,23.792794"
       orientation="1,0"
       id="guide2"
       inkscape:locked="false" />
  </sodipodi:namedview>
  <g
     id="g1"
     inkscape:groupmode="layer"
     inkscape:label="1"
     transform="translate(-28.971151,-332.24553)">
    <path
       id="path80"
       d="m 287.58666,469.86667 c 0,4.08 -0.21333,8.12 -0.64,12.08 -0.18667,1.78667 -0.41333,3.57334 -0.69333,5.33334 -0.17334,1.2 -0.38667,2.4 -0.6,3.57333 -0.10667,0.57333 -0.21334,1.13333 -0.33334,1.69333 -0.64,3.21334 -1.42666,6.37334 -2.33333,9.48 -0.22667,0.77334 -0.46667,1.53334 -0.70667,2.30667 0,0.0267 -0.0133,0.0533 -0.0267,0.0667 -0.24,0.78666 -0.50667,1.57333 -0.77334,2.36 -0.22666,0.65333 -0.45333,1.30666 -0.69333,1.96 -0.08,0.24 -0.17333,0.49333 -0.25333,0.73333 -0.21334,0.54667 -0.42667,1.10667 -0.64,1.65333 -0.41334,1.09334 -0.85334,2.17334 -1.30667,3.24 -0.21333,0.48 -0.41333,0.96 -0.62667,1.44 -0.0667,0.16 -0.13333,0.33334 -0.21333,0.49334 -0.62667,1.41333 -1.29333,2.8 -1.97333,4.17333 -0.0267,0.04 -0.04,0.0667 -0.0533,0.10667 -0.34666,0.72 -0.70666,1.42666 -1.08,2.13333 -0.41333,0.78667 -0.84,1.57333 -1.26666,2.36 -0.0533,0.08 -0.0933,0.17333 -0.14667,0.25333 -0.56,1.01334 -1.13333,2.01334 -1.73333,3.01334 -0.64,1.08 -1.29334,2.13333 -1.97334,3.18666 -0.61333,0.96 -1.24,1.89334 -1.88,2.82667 -0.0933,0.14693 -0.18666,0.2932 -0.29333,0.44013 -0.61333,0.8796 -1.22667,1.74627 -1.86667,2.61294 -0.18666,0.25373 -0.36,0.49386 -0.56,0.74693 -0.56,0.75987 -1.13333,1.51973 -1.74666,2.26667 -0.98667,1.26666 -2.01334,2.51973 -3.08,3.74693 -0.49334,0.6 -1.01334,1.1864 -1.54667,1.7728 -0.34667,0.38707 -0.69333,0.78707 -1.04,1.16053 -0.18667,0.21294 -0.38667,0.42654 -0.58667,0.62654 -0.73333,0.8 -1.48,1.5864 -2.25333,2.35986 l -0.77333,0.77347 h -0.0133 c -0.16,0.17347 -0.32,0.33333 -0.49333,0.4932 -0.36,0.34693 -0.72,0.7068 -1.08,1.04013 -0.4,0.3864 -0.8,0.75987 -1.2,1.13334 -0.97333,0.91973 -1.96,1.8 -2.97333,2.66666 h -4.21334 c 1.06667,-0.86666 2.10667,-1.74693 3.13334,-2.66666 0.98666,-0.86667 1.97333,-1.75987 2.93333,-2.66667 8.93333,-8.45373 16.48,-18.36013 22.22667,-29.3468 -17.98667,4.84 -36.17334,8.69333 -54.88,12.0536 -3.17334,0.5728 -6.41334,1.15987 -9.70667,1.6796 -1.77333,0.2932 -3.57333,0.57347 -5.37333,0.85373 -17.96,2.70614 -36.93333,4.1864 -54.29333,0.45307 -0.52,-0.1068 -1.04,-0.22653 -1.57334,-0.33333 -1.41333,-0.3068 -2.82666,-0.6 -4.24,-0.8932 -11.45346,-2.41347 -22.94666,-4.6668 -34.45346,-6.8268 -0.0135,0.24 -0.0135,0.48 -0.0265,0.72 -0.13333,-0.28 -0.2672,-0.54667 -0.4136,-0.8 -4.05306,-0.74667 -8.106662,-1.49334 -12.159862,-2.21334 h -0.01293 c -2.7876,-0.50666 -5.573466,-1 -8.360533,-1.49333 -3.8,-0.66667 -7.6,-1.33333 -11.412933,-1.98667 5.666667,10.50667 12.973466,20.00014 21.5864,28.13347 0.9604,0.91973 1.933333,1.8 2.919866,2.66667 1.027062,0.9068 2.067192,1.8 3.133862,2.66666 h -4.227195 c -0.212933,-0.18706 -0.427067,-0.37346 -0.639467,-0.55986 -0.773466,-0.68027 -1.546933,-1.38707 -2.3204,-2.1068 -0.933333,-0.86667 -1.853066,-1.74694 -2.772933,-2.66667 h -0.01347 c -0.146933,-0.14693 -0.280266,-0.2932 -0.426533,-0.42653 -0.400533,-0.4136 -0.814133,-0.8272 -1.200533,-1.24014 -0.319867,-0.3204 -0.639067,-0.65373 -0.946934,-0.98706 -0.3864,-0.4 -0.759333,-0.8 -1.1068,-1.2 -0.7192,-0.7728 -1.426,-1.55987 -2.1192,-2.34627 -0.693733,-0.8 -1.373466,-1.6136 -2.053733,-2.44013 -0.599466,-0.73334 -1.185866,-1.48027 -1.759866,-2.22654 -0.2796,-0.33333 -0.5468,-0.68026 -0.8,-1.02653 -0.559867,-0.73333 -1.1068,-1.46667 -1.640134,-2.2136 -0.0932,-0.1068 -0.1728,-0.22653 -0.24,-0.33333 -0.626666,-0.86667 -1.2396,-1.73334 -1.8396,-2.62654 -0.1328,-0.18706 -0.253733,-0.38706 -0.387066,-0.5868 -0.559867,-0.81333 -1.0932,-1.65333 -1.626534,-2.49333 -0.01347,-0.0267 -0.02653,-0.04 -0.04013,-0.0667 -0.799467,-1.26666 -1.5728,-2.56 -2.319733,-3.85333 -0.466667,-0.78667 -0.9068,-1.58667 -1.346933,-2.4 -0.212934,-0.37333 -0.4124,-0.74667 -0.599467,-1.12 -0.213467,-0.37333 -0.413467,-0.74667 -0.600533,-1.12 -0.03947,-0.0667 -0.06613,-0.13333 -0.0932,-0.2 -0.546267,-1.04 -1.053067,-2.09333 -1.546267,-3.14667 -0.373467,-0.74666 -0.7204,-1.50666 -1.053733,-2.26666 -0.173467,-0.37334 -0.333334,-0.74667 -0.493734,-1.12 -0.253066,-0.56 -0.492666,-1.12 -0.706266,-1.68 -0.172934,-0.38667 -0.333334,-0.76 -0.466667,-1.13334 -0.292667,-0.68 -0.559867,-1.37333 -0.812933,-2.06666 -0.1068,-0.22667 -0.187067,-0.46667 -0.2672,-0.69334 -0.319867,-0.84 -0.626134,-1.69333 -0.919867,-2.56 -0.0932,-0.22666 -0.1604,-0.45333 -0.2396,-0.66666 -0.320267,-0.94667 -0.627067,-1.90667 -0.9208,-2.86667 -0.3192,-1.02667 -0.626,-2.05333 -0.906267,-3.09333 -0.04013,-0.10667 -0.06667,-0.2 -0.09373,-0.30667 -0.266133,-0.97333 -0.5192,-1.96 -0.773467,-2.94667 -0.02547,-0.10666 -0.05253,-0.21333 -0.07907,-0.32 -0.240134,-1.02666 -0.4808,-2.05333 -0.7068,-3.09333 -0.214134,-0.97333 -0.4,-1.96 -0.587067,-2.94667 -0.253067,-1.24 -0.453067,-2.48 -0.639467,-3.73333 -0.173466,-1.13333 -0.333333,-2.25333 -0.4672,-3.4 -0.119866,-0.97333 -0.226666,-1.96 -0.319866,-2.96 -0.04013,-0.32 -0.0796,-0.64 -0.09373,-0.96 -0.0792,-0.84 -0.1464,-1.69333 -0.199467,-2.56 -0.02653,-0.22667 -0.04013,-0.45333 -0.04013,-0.69333 -0.06667,-1.05334 -0.1192,-2.12 -0.1468,-3.18667 -0.0396,-1.16 -0.06613,-2.33333 -0.06613,-3.50667 v -0.16 c 0,-13.35999 0.426695,-20.72289 4.653228,-32.62956 l 2.826373,-0.88311 c 12.724647,-13.73904 22.383288,-24.01697 34.529551,-35.99031 13.04765,-12.89556 26.68709,-26.31362 39.13545,-39.81158 7.39761,-8.02135 26.20311,-26.59791 37.67913,-26.59791 14.54193,0 26.45991,20.14894 36.56296,29.42915 28.63378,26.30169 56.11083,54.7497 66.14637,67.65662 4.38666,12.12 6.77333,25.2 6.77333,38.82666"
       style="fill:#fce5da;fill-opacity:1;fill-rule:nonzero;stroke:none;stroke-width:0.133333"
       sodipodi:nodetypes="cccccccccccccccccccccccccccccccscccccccccccccccccccccccccccccccccccccccccccccccccccccccccccccccccccccccccsscccssscc" />
    <path
       id="path81"
       d="m 287.58666,469.86667 c 0,4.08 -0.21333,8.12 -0.64,12.08 -0.18667,1.78667 -0.41333,3.57334 -0.69333,5.33334 -0.17334,1.2 -0.38667,2.4 -0.6,3.57333 -0.0267,0.12 -0.04,0.24 -0.0667,0.34667 -0.08,0.45333 -0.17333,0.90666 -0.26667,1.34666 -0.64,3.21334 -1.42666,6.37334 -2.33333,9.48 -0.22667,0.77334 -0.46667,1.53334 -0.70667,2.30667 0,0.0267 -0.0133,0.0533 -0.0267,0.0667 -0.24,0.78666 -0.50667,1.57333 -0.77334,2.36 -0.22666,0.65333 -0.45333,1.30666 -0.69333,1.96 -0.08,0.24 -0.17333,0.49333 -0.25333,0.73333 -0.21334,0.54667 -0.42667,1.10667 -0.64,1.65333 -0.21334,0.54667 -0.42667,1.06667 -0.65334,1.61334 0.0133,0.0133 0,0.0267 0,0.0267 -0.21333,0.53334 -0.42666,1.06667 -0.65333,1.6 -0.21333,0.48 -0.41333,0.96 -0.62667,1.44 -0.0667,0.16 -0.13333,0.33334 -0.21333,0.49334 -0.33333,0.76 -0.69333,1.52 -1.05333,2.28 -0.0133,0.0133 -0.0133,0.0133 0,0.0267 l -0.0133,0.0133 c -0.0933,0.21333 -0.18666,0.4 -0.30666,0.61333 -0.18667,0.41333 -0.4,0.82667 -0.6,1.24 -0.0267,0.04 -0.04,0.0667 -0.0533,0.10667 -0.34666,0.72 -0.70666,1.42666 -1.08,2.13333 -0.41333,0.78667 -0.84,1.57333 -1.26666,2.36 l -0.0133,0.0133 c -0.0133,0.0133 -0.0133,0.0267 -0.0267,0.04 -0.0267,0.0667 -0.0667,0.13334 -0.10667,0.2 -0.21333,0.38667 -0.42667,0.77334 -0.65333,1.16 -0.34667,0.62667 -0.70667,1.24 -1.08,1.85334 -0.64,1.08 -1.29334,2.13333 -1.97334,3.18666 -0.61333,0.96 -1.24,1.89334 -1.88,2.82667 -0.0933,0.14693 -0.18666,0.2932 -0.29333,0.44013 -0.61333,0.8796 -1.22667,1.74627 -1.86667,2.61294 -0.18666,0.25373 -0.36,0.49386 -0.56,0.74693 -0.56,0.75987 -1.13333,1.51973 -1.74666,2.26667 -0.98667,1.26666 -2.01334,2.51973 -3.08,3.74693 -0.49334,0.6 -1.01334,1.1864 -1.54667,1.7728 -0.34667,0.38707 -0.69333,0.78707 -1.04,1.16053 -0.18667,0.21294 -0.38667,0.42654 -0.58667,0.62654 -0.73333,0.8 -1.49333,1.5864 -2.25333,2.35986 l -0.77333,0.77347 h -0.0133 c -0.16,0.17347 -0.32,0.33333 -0.49333,0.4932 -0.36,0.34693 -0.72,0.7068 -1.08,1.04013 -0.4,0.3864 -0.8,0.75987 -1.2,1.13334 -0.97333,0.91973 -1.96,1.8 -2.97333,2.66666 h -4.21334 c 1.06667,-0.86666 2.10667,-1.74693 3.13334,-2.66666 0.98666,-0.86667 1.97333,-1.75987 2.93333,-2.66667 8,-7.57347 14.89333,-16.3068 20.36,-25.9468 0,-0.0133 0,-0.0133 0.0133,-0.0267 0.62667,-1.12 1.25334,-2.22666 1.85334,-3.37333 -0.45334,0.12 -0.90667,0.24 -1.36,0.36 -0.69334,0.18667 -1.38667,0.37333 -2.09334,0.54667 -0.6,0.17333 -1.18666,0.32 -1.8,0.48 h -0.0133 c -16.26667,4.2 -32.73333,7.64 -49.61333,10.66693 -3.17334,0.5728 -6.41334,1.15987 -9.70667,1.6796 -1.77333,0.2932 -3.57333,0.57347 -5.37333,0.85373 -17.96,2.70614 -36.93333,4.1864 -54.29333,0.45307 -0.52,-0.1068 -1.04,-0.22653 -1.57334,-0.33333 -1.41333,-0.3068 -2.82666,-0.6 -4.24,-0.8932 -11.45346,-2.41347 -22.94666,-4.6668 -34.45346,-6.8268 -0.0135,0.24 -0.0135,0.48 -0.0265,0.72 -0.13333,-0.28 -0.2672,-0.54667 -0.4136,-0.8 -4.05306,-0.74667 -8.106662,-1.49334 -12.159862,-2.21334 h -0.01293 c -2.7876,-0.50666 -5.573466,-1 -8.360533,-1.49333 -0.7328,-0.13333 -1.4796,-0.25333 -2.212933,-0.38667 -0.4136,-0.08 -0.840133,-0.14666 -1.266667,-0.21333 -0.947466,-0.17333 -1.9068,-0.34667 -2.866133,-0.50667 -1.0672,-0.18666 -2.147467,-0.37333 -3.2276,-0.56 -0.613067,-0.10666 -1.226667,-0.21333 -1.8396,-0.32 5.666667,10.50667 12.973466,20.00014 21.5864,28.13347 0.9604,0.91973 1.933333,1.8 2.919866,2.66667 1.027062,0.9068 2.067192,1.8 3.133862,2.66666 h -4.227195 c -0.212933,-0.18706 -0.427067,-0.37346 -0.639467,-0.55986 -0.773466,-0.68027 -1.546933,-1.38707 -2.3204,-2.1068 -0.933333,-0.86667 -1.853066,-1.74694 -2.772933,-2.66667 h -0.01347 c -0.146933,-0.14693 -0.280266,-0.2932 -0.426533,-0.42653 -0.400533,-0.4136 -0.814133,-0.8272 -1.200533,-1.24014 -0.319867,-0.3204 -0.639067,-0.65373 -0.946934,-0.98706 -0.3864,-0.4 -0.759333,-0.8 -1.1068,-1.2 -0.7192,-0.7728 -1.426,-1.55987 -2.1192,-2.34627 -0.693733,-0.8 -1.373466,-1.6136 -2.053733,-2.44013 -0.599466,-0.73334 -1.185866,-1.48027 -1.759866,-2.22654 -0.2796,-0.33333 -0.5468,-0.68026 -0.8,-1.02653 -0.559867,-0.73333 -1.1068,-1.46667 -1.640134,-2.2136 -0.0932,-0.1068 -0.1728,-0.22653 -0.24,-0.33333 -0.626666,-0.86667 -1.2396,-1.73334 -1.8396,-2.62654 -0.1328,-0.18706 -0.253733,-0.38706 -0.387066,-0.5868 -0.559867,-0.81333 -1.0932,-1.65333 -1.626534,-2.49333 -0.01347,-0.0267 -0.02653,-0.04 -0.04013,-0.0667 -0.799467,-1.26666 -1.5728,-2.56 -2.319733,-3.85333 v -0.0133 c -0.466667,-0.78667 -0.9068,-1.57334 -1.346933,-2.38667 -0.07907,-0.14667 -0.1604,-0.29333 -0.239467,-0.44 -0.133333,-0.22667 -0.240133,-0.45333 -0.36,-0.68 -0.2,-0.37333 -0.386933,-0.74667 -0.5864,-1.12 -0.04067,-0.0667 -0.08027,-0.13333 -0.107333,-0.2 -0.01347,-0.0267 -0.02653,-0.04 -0.04013,-0.0667 -0.533333,-1.01333 -1.026533,-2.05333 -1.506133,-3.08 -0.373467,-0.74666 -0.7204,-1.50666 -1.053733,-2.26666 -0.173467,-0.37334 -0.333334,-0.74667 -0.493734,-1.12 -0.132266,-0.29334 -0.253066,-0.57334 -0.3864,-0.86667 -0.106266,-0.26667 -0.213066,-0.54667 -0.319866,-0.81333 -0.172934,-0.38667 -0.333334,-0.76 -0.466667,-1.13334 -0.08013,-0.2 -0.173467,-0.4 -0.253067,-0.6 -0.2,-0.48 -0.387066,-0.97333 -0.559866,-1.46666 -0.1068,-0.22667 -0.187067,-0.46667 -0.2672,-0.69334 -0.319867,-0.84 -0.626134,-1.69333 -0.919867,-2.56 -0.0932,-0.22666 -0.1604,-0.45333 -0.2396,-0.66666 -0.320267,-0.94667 -0.627067,-1.90667 -0.9208,-2.86667 -0.1068,-0.32 -0.199467,-0.64 -0.292667,-0.97333 -0.2136,-0.70667 -0.427066,-1.41334 -0.6136,-2.12 -0.04013,-0.10667 -0.06667,-0.2 -0.09373,-0.30667 -0.266133,-0.97333 -0.5192,-1.96 -0.773467,-2.94667 -0.02547,-0.10666 -0.05253,-0.21333 -0.07907,-0.32 -0.240134,-1.02666 -0.4808,-2.05333 -0.7068,-3.09333 -0.214134,-0.97333 -0.4,-1.96 -0.587067,-2.94667 -0.253067,-1.24 -0.453067,-2.48 -0.639467,-3.73333 -0.173466,-1.13333 -0.333333,-2.25333 -0.4672,-3.4 -0.119866,-0.97333 -0.226666,-1.96 -0.319866,-2.96 -0.04013,-0.32 -0.0796,-0.64 -0.09373,-0.96 -0.0792,-0.84 -0.1464,-1.69333 -0.199467,-2.56 -0.02653,-0.22667 -0.04013,-0.45333 -0.04013,-0.69333 -0.06667,-1.05334 -0.1192,-2.12 -0.1468,-3.18667 -0.0396,-1.16 -0.06613,-2.33333 -0.06613,-3.50667 v -0.16 c 0,-13.35999 1.648407,-21.91067 5.87494,-33.81734 l 2.273743,-1.18054 c 5.949345,-6.38148 38.604175,-36.90109 39.510975,-36.51442 8.2796,3.57333 2.67368,2.9656 0.35274,13.23227 1.8672,-0.72 3.97454,-0.33334 5.94747,1.08 3.54627,2.53333 1.64013,7.93333 3.73333,9.93333 2.5864,2.46667 7.13334,0.72 10.0672,3.86667 3.2124,3.46666 1.5192,7.30666 1.98587,11.08 7.04013,-2.02667 11.3468,-1.76 16.09347,1.8 1.17333,0.86666 2.37333,1.93333 3.64,3.22666 2.84,2.86667 -0.17334,1.86667 4.01333,2.65334 2.36,0.45333 3.57333,-1.13334 5.37333,-0.0533 h 0.0133 c 0.29333,0.17334 0.6,0.41334 0.92,0.73334 -1.88,-6.45334 2.94666,-19.66667 11.69333,-16.30667 -2.4,-8.38667 7.94667,-20.09333 16.62667,-15.06667 -2.12,-4.8 1.33333,-8.61333 5.25333,-10.93333 3.21333,-1.89333 8.14666,-3.4 11.76,-2.01333 2.8,1.08 3.82666,4.46666 6.29333,5.64 4.14667,1.96 8.62667,-0.78667 12.94667,0.94666 4.53333,1.84 5.41333,5.93334 6.4,10.12 6.22666,-1.54666 14.26666,-2.08 18.01333,3.94667 2.22667,-3.26667 2.29333,-7.34667 6.06667,-9.53333 2.78666,-1.6 22.25333,6.08 26.68,18.33333 4.38666,12.12 6.77333,25.2 6.77333,38.82666"
       style="fill:#fbd9c3;fill-opacity:1;fill-rule:nonzero;stroke:none;stroke-width:0.133333"
       sodipodi:nodetypes="ccccccccccccscccccccccccccsccccccccccccccccccccccccccccccccccccccccccccccccccccccccccccccccccccccccccccccccccccccccccccccccccccccccssccccccccccccccccccccccccc" />
    <path
       id="path82"
       d="m 322.0559,479.92275 c -0.10639,2.11986 -34.88497,-0.0575 -35.10924,2.02392 -0.18667,1.78667 -0.41333,3.57334 -0.69333,5.33334 -0.17334,1.2 -0.38667,2.4 -0.6,3.57333 -0.10667,0.57333 -0.21334,1.13333 -0.33334,1.69333 -0.64,3.21334 -1.42666,6.37334 -2.33333,9.48 -0.22667,0.77334 -0.46667,1.53334 -0.70667,2.30667 0,0.0267 -0.0133,0.0533 -0.0267,0.0667 -0.24,0.78666 -0.50667,1.57333 -0.77334,2.36 -0.22666,0.65333 -0.45333,1.30666 -0.69333,1.96 -0.08,0.24 -0.17333,0.49333 -0.25333,0.73333 -0.21334,0.54667 -0.42667,1.10667 -0.64,1.65333 -0.41334,1.09334 -0.85334,2.17334 -1.30667,3.24 -0.21333,0.48 -0.41333,0.96 -0.62667,1.44 -0.0667,0.16 -0.13333,0.33334 -0.21333,0.49334 -0.62667,1.41333 -1.29333,2.8 -1.97333,4.17333 -0.0267,0.04 -0.04,0.0667 -0.0533,0.10667 -0.34666,0.72 -0.70666,1.42666 -1.08,2.13333 -0.41333,0.78667 -0.84,1.57333 -1.26666,2.36 -0.0533,0.08 -0.0933,0.17333 -0.14667,0.25333 -0.56,1.01334 -1.13333,2.01334 -1.73333,3.01334 -0.64,1.08 -1.29334,2.13333 -1.97334,3.18666 -0.61333,0.96 -1.24,1.89334 -1.88,2.82667 -0.0933,0.14693 -0.18666,0.2932 -0.29333,0.44013 -0.61333,0.8796 -1.22667,1.74627 -1.86667,2.61294 -0.18666,0.25373 -0.36,0.49386 -0.56,0.74693 -0.56,0.75987 -1.13333,1.51973 -1.74666,2.26667 -0.98667,1.26666 -2.01334,2.51973 -3.08,3.74693 -0.49334,0.6 -1.01334,1.1864 -1.54667,1.7728 -0.34667,0.38707 -0.69333,0.78707 -1.04,1.16053 -0.18667,0.21294 -0.38667,0.42654 -0.58667,0.62654 -0.73333,0.8 -1.49333,1.5864 -2.25333,2.35986 l -0.77333,0.77347 h -0.0133 c -0.16,0.17347 -0.32,0.33333 -0.49333,0.4932 -0.36,0.34693 -0.72,0.7068 -1.08,1.04013 -0.4,0.3864 -0.8,0.75987 -1.2,1.13334 -0.97333,0.91973 -1.96,1.8 -2.97333,2.66666 h -4.21334 c 1.06667,-0.86666 2.10667,-1.74693 3.13334,-2.66666 0.98666,-0.86667 1.97333,-1.75987 2.93333,-2.66667 8.93333,-8.45373 16.48,-18.36013 22.22667,-29.3468 -17.98667,4.84 -36.17334,8.69333 -54.88,12.0536 -3.17334,0.5728 -6.41334,1.15987 -9.70667,1.6796 -1.77333,0.2932 -3.57333,0.57347 -5.37333,0.85373 -17.96,2.70614 -36.93333,4.1864 -54.29333,0.45307 -0.52,-0.1068 -1.04,-0.22653 -1.57334,-0.33333 -1.41333,-0.3068 -2.82666,-0.6 -4.24,-0.8932 -11.45346,-2.41347 -22.94666,-4.6668 -34.45346,-6.8268 -0.0135,0.24 -0.0135,0.48 -0.0265,0.72 -0.13333,-0.28 -0.2672,-0.54667 -0.4136,-0.8 -4.05306,-0.74667 -8.106662,-1.49334 -12.159862,-2.21334 h -0.01293 c -2.7876,-0.50666 -5.573466,-1 -8.360533,-1.49333 -3.8,-0.66667 -7.6,-1.33333 -11.412933,-1.98667 5.666667,10.50667 12.973466,20.00014 21.5864,28.13347 0.9604,0.91973 1.933333,1.8 2.919866,2.66667 1.027062,0.9068 2.067192,1.8 3.133862,2.66666 h -4.227195 c -0.212933,-0.18706 -0.427067,-0.37346 -0.639467,-0.55986 -0.773466,-0.68027 -1.546933,-1.38707 -2.3204,-2.1068 -0.933333,-0.86667 -1.853066,-1.74694 -2.772933,-2.66667 h -0.01347 c -0.146933,-0.14693 -0.280266,-0.2932 -0.426533,-0.42653 -0.400533,-0.4136 -0.814133,-0.8272 -1.200533,-1.24014 -0.319867,-0.3204 -0.639067,-0.65373 -0.946934,-0.98706 -0.3864,-0.4 -0.759333,-0.8 -1.1068,-1.2 -0.7192,-0.7728 -1.426,-1.55987 -2.1192,-2.34627 -0.693733,-0.8 -1.373466,-1.6136 -2.053733,-2.44013 -0.599466,-0.73334 -1.185866,-1.48027 -1.759866,-2.22654 -0.2796,-0.33333 -0.5468,-0.68026 -0.8,-1.02653 -0.559867,-0.73333 -1.1068,-1.46667 -1.640134,-2.2136 -0.0932,-0.1068 -0.1728,-0.22653 -0.24,-0.33333 -0.626666,-0.86667 -1.2396,-1.73334 -1.8396,-2.62654 -0.1328,-0.18706 -0.253733,-0.38706 -0.387066,-0.5868 -0.559867,-0.81333 -1.0932,-1.65333 -1.626534,-2.49333 -0.01347,-0.0267 -0.02653,-0.04 -0.04013,-0.0667 -0.799467,-1.26666 -1.5728,-2.56 -2.319733,-3.85333 -0.466667,-0.78667 -0.9068,-1.58667 -1.346933,-2.4 -0.212934,-0.37333 -0.4124,-0.74667 -0.599467,-1.12 -0.2,-0.37333 -0.386933,-0.74667 -0.5864,-1.12 -0.04067,-0.0667 -0.08027,-0.13333 -0.107333,-0.2 -0.546267,-1.04 -1.053067,-2.09333 -1.546267,-3.14667 -0.373467,-0.74666 -0.7204,-1.50666 -1.053733,-2.26666 -0.173467,-0.37334 -0.333334,-0.74667 -0.493734,-1.12 -0.253066,-0.56 -0.492666,-1.12 -0.706266,-1.68 -0.172934,-0.38667 -0.333334,-0.76 -0.466667,-1.13334 -0.292667,-0.68 -0.559867,-1.37333 -0.812933,-2.06666 -0.1068,-0.22667 -0.187067,-0.46667 -0.2672,-0.69334 -0.319867,-0.84 -0.626134,-1.69333 -0.919867,-2.56 -0.0932,-0.22666 -0.1604,-0.45333 -0.2396,-0.66666 -0.320267,-0.94667 -0.627067,-1.90667 -0.9208,-2.86667 -0.3192,-1.02667 -0.626,-2.05333 -0.906267,-3.09333 -0.04013,-0.10667 -0.06667,-0.2 -0.09373,-0.30667 -0.266133,-0.97333 -0.5192,-1.96 -0.773467,-2.94667 -0.02547,-0.10666 -0.05253,-0.21333 -0.07907,-0.32 -0.240134,-1.02666 -0.4808,-2.05333 -0.7068,-3.09333 -0.214134,-0.97333 -0.4,-1.96 -0.587067,-2.94667 -0.253067,-1.24 -0.453067,-2.48 -0.639467,-3.73333 -0.173466,-1.13333 -0.333333,-2.25333 -0.4672,-3.4 -0.119866,-0.97333 -0.226666,-1.96 -0.319866,-2.96 -0.04013,-0.32 -0.0796,-0.64 -0.09373,-0.96 -0.0792,-0.84 -0.1464,-1.69333 -0.199467,-2.56 -0.02653,-0.22667 -0.04013,-0.45333 -0.04013,-0.69333 -0.06667,-1.05334 -0.1192,-2.12 -0.1468,-3.18667 -0.0396,-1.16 -0.06613,-2.33333 -0.06613,-3.50667 v -0.16 c 0,-0.66525 -22.673315,21.1173 -29.388612,15.23115 -1.3614,-1.19331 1.885109,-6.79982 1.890516,-7.03351 0.286697,-12.39109 27.361176,-28.90837 31.302913,-40.01273 -0.426,2.78667 1.75505,-0.47824 2.14145,2.90843 0.159866,0.08 0.3204,0.14667 0.4808,0.2 4.3588,1.68 9.358799,-1.56 12.732799,3.38667 5.3864,7.93333 -4.5204,15.57333 -4.026533,22.79999 3.24,2.42667 12.2,1.06667 16.466666,1.48 7.079067,0.68 6.9864,-1.02666 9.0932,-8.09333 2.519733,-8.46666 6.400533,-15.4 16.293733,-14.77333 3.81306,0.24 7.89266,1.6 9.9328,4.94667 -2.55987,-12.25334 8.50666,-16.17334 16.82666,-8.42667 0.52,-1.17333 1.22667,-2.25333 2.09334,-3.13333 1.90666,-1.97334 4.6,-2.90667 7.78666,-1.4 3.01334,1.44 4.50667,4.16 5.24,7.22666 h 0.0133 c 0.78666,3.30667 0.73333,7 0.8,9.86667 5.78666,-1.13333 11.02666,-2.58667 13.49333,4.22667 2.04,5.6 -2.41333,11.63999 -0.57333,16.18666 8.69333,-2.61333 17.34666,-0.0667 17.45333,9.53333 -0.46667,-6.74666 8.45333,-11.88 13.98666,-12.88 5,-0.90666 10.50667,2.26667 15,0.86667 -0.45333,-5.98667 -2.97333,-13.41333 1.76,-18.61333 4.86667,-5.33333 9.57334,-1.69333 15.12,-3.18667 -0.48,-6.12 0.30667,-13.30666 6.92,-15.57333 4.48,-1.54667 8.93334,0.0933 11.37334,4.09333 -0.64,-12.29333 17.78666,-15.56 22.38666,-4.58666 0.90667,-0.6 1.82667,-1.33334 2.76,-2.13334 0.72,-0.61333 1.44,-1.26666 2.17334,-1.93333 0.63516,1.75491 7.21105,3.36334 7.76118,5.15725 1.95385,6.37129 18.76411,17.5504 24.93437,24.51676"
       style="fill:#f4c7a2;fill-opacity:1;fill-rule:nonzero;stroke:none;stroke-width:0.133333"
       sodipodi:nodetypes="cccccccccccccccccccccccccccccccccccccccccccccccccccccccccccccccccccccccccccccccccccccccccccccccccccccccccsssscccccccccccccccccccccccccccsc" />
    <path
       id="path83"
       d="m 102.94693,556.17347 h -4.227199 c -0.212933,-0.18706 -0.427067,-0.37346 -0.639467,-0.55986 -0.773466,-0.68027 -1.546933,-1.38707 -2.3204,-2.1068 -0.933333,-0.86667 -1.853066,-1.74694 -2.772933,-2.66667 h -0.01347 c -0.146933,-0.14693 -0.280266,-0.2932 -0.426533,-0.42653 -0.400533,-0.4136 -0.814133,-0.8272 -1.200533,-1.24014 -0.319867,-0.3204 -0.639067,-0.65373 -0.946934,-0.98706 -0.3864,-0.4 -0.759333,-0.8 -1.1068,-1.2 -0.7192,-0.7728 -1.426,-1.55987 -2.1192,-2.34627 -0.693733,-0.8 -1.373466,-1.6136 -2.053733,-2.44013 -0.599466,-0.73334 -1.185866,-1.48027 -1.759866,-2.22654 -0.2796,-0.33333 -0.5468,-0.68026 -0.8,-1.02653 -0.559867,-0.73333 -1.1068,-1.46667 -1.640134,-2.2136 -0.0932,-0.1068 -0.1728,-0.22653 -0.24,-0.33333 -0.626666,-0.86667 -1.2396,-1.73334 -1.8396,-2.62654 -0.1328,-0.18706 -0.253733,-0.38706 -0.387066,-0.5868 -0.559867,-0.81333 -1.0932,-1.65333 -1.626534,-2.49333 -0.01347,-0.0267 -0.02653,-0.04 -0.04013,-0.0667 -0.799467,-1.26666 -1.5728,-2.56 -2.319733,-3.85333 -0.466667,-0.78667 -9.462831,-5.35918 -13.613965,-8.82559 -11.801083,-9.85451 -14.244903,-16.75275 -31.063718,-33.69258 -0.0396,-1.16 29.000792,-15.06879 29.607463,-14.51247 0.866133,0.08 1.656629,0.51064 2.562896,0.75064 0.947466,0.24 1.907333,0.56 2.894266,0.97333 6.853734,2.88 9.319867,9.56 9.972933,16.52 0.480267,5.10667 -1.933333,12.36 0.08027,16.93334 5.866667,-0.94667 10.5864,-5.97334 13.906266,0.74666 2.973334,6.02667 -1.893333,13.2 -2.093333,19.02667 -3.8,-0.66667 -7.6,-1.33333 -11.412933,-1.98667 5.666667,10.50667 12.973466,20.00014 21.5864,28.13347 0.9604,0.91973 1.933333,1.8 2.919866,2.66667 1.027064,0.9068 2.067194,1.8 3.133864,2.66666"
       style="fill:#c58e6c;fill-opacity:1;fill-rule:nonzero;stroke:none;stroke-width:0.133333"
       sodipodi:nodetypes="cccccccccccccccccccccscccccccccccc" />
    <path
       id="path84"
       d="m 107.25306,528.40001 c -4.05306,-0.74667 -8.106662,-1.49334 -12.159862,-2.21334 4.680266,-1.50666 9.413602,-2.62666 12.159862,2.21334"
       style="fill:#c58e6c;fill-opacity:1;fill-rule:nonzero;stroke:none;stroke-width:0.133333" />
    <path
       id="path85"
       d="m 307.09964,501.51551 c -8.94385,9.52837 -13.9406,14.46276 -23.98956,24.53669 -0.41333,0.78667 -9.31009,-1.7855 -9.73675,-0.99883 -0.0533,0.08 -0.0933,0.17333 -0.14667,0.25333 -0.56,1.01334 -1.13333,2.01334 -1.73333,3.01334 -0.64,1.08 -1.29334,2.13333 -1.97334,3.18666 -0.61333,0.96 -1.24,1.89334 -1.88,2.82667 -0.0933,0.14693 -0.18666,0.2932 -0.29333,0.44013 -0.61333,0.8796 -1.22667,1.74627 -1.86667,2.61294 -0.18666,0.25373 -0.36,0.49386 -0.56,0.74693 -0.56,0.75987 -1.13333,1.51973 -1.74666,2.26667 -0.98667,1.26666 -2.01334,2.51973 -3.08,3.74693 -0.49334,0.6 -1.01334,1.1864 -1.54667,1.7728 -0.34667,0.38707 -0.69333,0.78707 -1.04,1.16053 -0.18667,0.21294 -0.38667,0.42654 -0.58667,0.62654 -0.73333,0.8 -1.49333,1.5864 -2.25333,2.35986 l -0.77333,0.77347 h -0.0133 c -0.16,0.17347 -0.32,0.33333 -0.49333,0.4932 -0.36,0.34693 -0.72,0.7068 -1.08,1.04013 -0.4,0.3864 -0.8,0.75987 -1.2,1.13334 -0.97333,0.91973 -1.96,1.8 -2.97333,2.66666 h -4.21334 c 1.06667,-0.86666 2.10667,-1.74693 3.13334,-2.66666 0.98666,-0.86667 1.97333,-1.75987 2.93333,-2.66667 8.93333,-8.45373 16.48,-18.36013 22.22667,-29.3468 -17.98667,4.84 -36.17334,8.69333 -54.88,12.0536 -3.17334,0.5728 -6.41334,1.15987 -9.70667,1.6796 -1.77333,0.2932 -3.57333,0.57347 -5.37333,0.85373 -17.96,2.70614 -36.93333,4.1864 -54.29333,0.45307 -0.52,-0.1068 -1.04,-0.22653 -1.57334,-0.33333 -1.41333,-0.3068 -2.82666,-0.6 -4.24,-0.8932 -11.45346,-2.41347 -22.94666,-4.6668 -34.45346,-6.8268 0.24066,-6.64 0.0141,-17.21334 5.4,-21.90667 3.50733,-3.06667 9.2136,-2.45333 13.54693,-2.30667 -2.82707,-5.34666 -6.4136,-15.52 -0.82707,-20.66666 4.78747,-4.44 10.18694,-0.74667 15.08027,0.8 1.28,-4.2 5.38667,-8.65334 9.98667,-6 6.2,3.6 1.45333,14.30666 5.68,17.38666 4.02666,2.94667 10.02666,-7.37333 15.05333,-1.92 2.18667,2.37334 1.05333,7.24 -0.66667,11.32 -0.96,2.29334 -2.10666,4.32 -2.94666,5.53334 8.8,-10.96 15.74666,-0.94667 19.32,7.30666 2.24,-1.78666 4.42666,-3.64 6.65333,-5.04 4.33333,-2.70666 8.84,-3.66666 14.18666,1.14667 -4.78666,-9.38667 8.05334,-13.76 14.86667,-10.12 -0.17333,-15.08 13.4,-19.56 25.50667,-12.17333 -6.70667,-7.98667 3.06666,-19.10667 11.38666,-20.38667 6.25334,-0.94667 8.29334,2.53333 12.54667,6.08 3.46667,2.90667 7.58667,3.08 11.86667,3.84 0.86666,0.16 37.41066,-1.75711 38.29066,-1.51711"
       style="fill:#c58e6c;fill-opacity:1;fill-rule:nonzero;stroke:none;stroke-width:0.133333"
       sodipodi:nodetypes="ccccccccccccccccccccccccccccccccccccccccccccccccccc" />
    <path
       id="path101"
       d="m 203.99066,439.57068 c -1.796,3.70933 -3.55067,7.44 -5.26266,11.18933 -2.596,5.692 -5.08134,11.43467 -7.46534,17.21733 -0.11866,-0.328 -0.27733,-0.60533 -0.48,-0.72933 -0.08,-0.052 -0.15066,-0.0867 -0.21866,-0.11467 -0.13467,-0.14533 -0.284,-0.288 -0.436,-0.42133 0.43066,-1.47467 0.86666,-2.95067 1.30933,-4.42267 1.99467,-6.644 4.128,-13.23866 6.316,-19.82 0.824,-2.47733 1.65733,-4.95066 2.524,-7.41333 0.98133,0.26 2.024,-0.12933 2.53733,-1.552 0.50267,1.148 0.924,3.484 2.29867,1.16533 0.272,0.41334 0.544,0.74534 0.81466,1.004 -0.65066,1.296 -1.304,2.59067 -1.93733,3.89734 z m -12.408,36.17466 c -0.70133,-0.38 -1.48133,-0.69867 -2.23333,-0.972 0.37867,-0.96133 0.768,-1.91867 1.152,-2.87733 0.22267,0.488 0.48133,0.99333 0.71333,1.46266 0.104,0.79734 0.228,1.59467 0.368,2.38667 z M 188.62,474.51867 c -0.22134,-0.076 -0.436,-0.148 -0.64134,-0.216 0.18534,-0.688 0.37067,-1.376 0.56267,-2.06 0.14533,-0.51866 0.29733,-1.03733 0.444,-1.55466 0.34533,-0.0133 0.716,-0.0787 1.02933,-0.14934 0.02,0.1 0.048,0.20534 0.08,0.31334 -0.344,0.844 -0.692,1.68666 -1.03066,2.53466 -0.14934,0.376 -0.29334,0.75467 -0.444,1.132 z m -1.28534,-3.736 c -0.0293,0.15467 -0.056,0.31067 -0.084,0.468 -0.028,-0.0933 -0.0493,-0.18533 -0.0827,-0.276 -0.0613,-0.16666 -0.132,-0.316 -0.20934,-0.45466 0.004,-0.0413 0.0107,-0.0853 0.012,-0.12 h -0.088 c -0.0867,-0.14134 -0.18533,-0.26134 -0.28533,-0.38267 0.26667,-3.84533 0.53067,-7.692 0.792,-11.53866 0.48133,-7.05867 0.972,-14.11734 1.44,-21.176 0.10133,-1.54267 0.20267,-3.08267 0.30533,-4.624 0.44934,-0.44534 0.856,-0.96 1.40934,-1.3 0.28,0.92933 0.56533,2.43733 1.76933,2.492 0.91333,0.044 1.51067,-1.00934 1.52533,-1.78667 0.0747,0.48933 0.25334,1.04267 0.55067,1.50267 -1.02133,5.31333 -2.03867,10.62533 -3.05333,15.94 -1.352,7.08133 -2.70667,14.164 -4.00134,21.25599 z m -1.42533,-1.46133 c -0.216,-0.188 -0.436,-0.376 -0.64933,-0.58267 -0.19334,-1.05066 -0.68134,-2.05466 -1.448,-2.70266 -0.276,-0.54933 -0.68134,-0.95467 -1.53067,-0.968 -0.52133,-0.007 -1.66667,0.364 -1.91333,0.964 -0.484,0.37733 -0.82934,0.904 -1.04,1.51733 -0.55067,1.604 -0.22,3.752 0.71066,5.06533 -0.0267,0.0627 -0.0467,0.12934 -0.072,0.19334 -0.35866,-0.412 -0.716,-0.828 -1.08,-1.23467 -0.692,-0.776 -1.39333,-1.54267 -2.10133,-2.30133 -1.00933,-1.89734 -2.02,-3.79467 -3.02267,-5.692 -3.284,-6.21467 -6.576,-12.42267 -9.876,-18.62533 -1.27066,-2.38667 -2.54133,-4.77067 -3.80533,-7.16 0.23467,-0.532 0.352,-1.116 0.31733,-1.656 0.89334,0.684 1.72667,2.024 3.012,1.67333 1.332,-0.364 1.77334,-2.44533 1.74267,-3.60533 2.58133,2.904 4.132,1.85866 5.09867,-1.63467 1.73333,2.68667 3.77733,1.16533 4.69733,-1.024 1.20533,0.89733 1.596,2.216 3.472,1.71467 1.59067,-0.42534 1.60267,-1.712 2.29067,-2.98667 -0.372,3.53333 2.73333,3.20267 3.92133,0.644 0.63333,1.36667 0.91333,2.77867 2.792,2.64267 0.532,-0.0373 0.936,-0.244 1.292,-0.52 -0.352,4.48933 -0.708,8.98 -1.05467,13.47066 -0.544,7.05867 -1.096,14.11867 -1.63333,21.17867 -0.04,0.54266 -0.08,1.08666 -0.12,1.62933 z m -7.44267,3.12 c 0.40667,0.46267 0.81867,0.92 1.22134,1.38667 -0.0413,0.24933 -0.0653,0.49333 -0.0493,0.72133 -0.0427,-0.0387 -0.0867,-0.0773 -0.13066,-0.11733 -0.34667,-0.664 -0.692,-1.32934 -1.04134,-1.99067 z m -2.11866,4.46133 c -0.007,-0.0493 -0.012,-0.1 -0.0173,-0.152 0.28667,-0.51066 0.49734,-1.092 0.52267,-1.41066 0.0507,-0.60667 0.04,-0.96534 -0.0693,-1.24667 0.85866,0.59067 1.71466,1.184 2.57066,1.77733 0.17734,0.34 0.35467,0.68134 0.53334,1.02134 -1.252,0.428 -2.24667,0.148 -3.54,0.0107 z m -0.30934,-6.04266 c -0.22266,-0.12267 -0.42666,-0.0933 -0.59866,0.0253 -2.20667,-1.876 -4.44934,-3.70933 -6.73867,-5.48266 -6.66933,-5.164 -13.66133,-9.892 -20.36,-15.01734 -1.692,-1.29466 -3.376,-2.616 -5.032,-3.96933 1.46267,-0.17467 2.79067,-1.91467 2.97867,-3.844 0.50133,1.02933 2.132,1.764 3.228,1.19333 0.007,-0.003 0.0107,-0.007 0.0173,-0.0107 0.72667,0.70533 1.448,1.41333 2.17733,2.11333 2.91734,2.80667 5.836,5.612 8.75334,8.41733 5.38,5.172 10.81466,10.29467 15.872,15.78533 0.35866,0.688 0.71333,1.38 1.07333,2.068 0.14133,0.272 0.28267,0.54267 0.424,0.81467 -0.48133,-0.42267 -0.96133,-0.84667 -1.44533,-1.264 -0.0333,-0.396 -0.13334,-0.71067 -0.34934,-0.82933 z m -3.05466,-0.196 c -2.37067,-1.56534 -4.75867,-3.10134 -7.15467,-4.62533 -6.72933,-4.276 -13.53467,-8.43067 -20.29867,-12.652 -2.21466,-1.38134 -4.43866,-2.75334 -6.65333,-4.14134 1.11733,-1.256 0.79733,-3.336 1.87333,-4.496 0.57734,1.00134 1.252,1.492 1.928,1.628 1.344,1.17734 2.70667,2.33334 4.104,3.456 3.25867,2.61467 6.60134,5.12267 9.964,7.6 3.38534,2.49467 6.77867,4.98 10.116,7.53867 2.28667,1.752 4.524,3.56266 6.728,5.41333 -0.2,-0.009 -0.40266,0.0693 -0.60666,0.27867 z m -22.55067,-30.376 c 1.03467,0.71733 2.052,2.156 3.48533,1.444 1.51067,-0.752 0.972,-2.37067 1.372,-3.632 1.00134,0.636 1.59734,1.62 2.968,1.33067 0.69334,-0.14534 1.23867,-0.61867 1.608,-1.22 2.62534,5.06133 5.224,10.13733 7.83334,15.20666 2.38,4.62134 4.78133,9.23467 7.18133,13.84667 -1.36267,-1.41067 -2.74933,-2.79733 -4.15333,-4.16933 -5.756,-5.62267 -11.692,-11.06134 -17.56667,-16.55867 -1.084,-1.01333 -2.17467,-2.02267 -3.26267,-3.03333 0.88667,-0.78134 0.61734,-2.15334 0.53467,-3.21467 z m 38.56533,27.596 c -0.156,0.53066 -0.31066,1.06 -0.46533,1.58933 -0.072,0.016 -0.13867,0.0387 -0.20133,0.0627 0.11733,-0.67734 0.236,-1.35467 0.35466,-2.032 0.0933,0.12933 0.19867,0.25733 0.312,0.38 z m 6.77067,-33.32267 c 1.36,0.19867 1.67867,-0.756 2.34533,-1.80533 0.264,1.06267 1.052,1.892 1.928,2.22 -0.78266,2.068 -1.564,4.136 -2.32666,6.212 -1.196,3.24267 -2.312,6.516 -3.41334,9.792 -1.7,5.06 -3.308,10.14933 -4.82666,15.26533 -0.192,-0.10533 -0.368,-0.164 -0.504,-0.14933 -0.016,0.001 -0.028,0.005 -0.0413,0.007 0.264,-1.512 0.528,-3.02267 0.792,-4.53467 1.23734,-7.084 2.50534,-14.16133 3.792,-21.23733 0.38534,-2.12 0.78,-4.23867 1.16934,-6.35734 0.28533,0.30267 0.644,0.524 1.08533,0.588 z m 20.60533,-18.52133 c -0.444,-4.78267 -5.57333,-7.12667 -9.35733,-8.924 -4.11467,-1.95467 -8.71467,-2.46 -13.22267,-2.79067 -7.05866,-0.51866 -14.76,-0.204 -21.724,0.964 -0.39333,0.0653 -0.78666,0.132 -1.18,0.2 -8.188,1.40667 -16.42933,3.184 -24.03466,6.62267 -7.152,3.236 -14.92374,8.60133 -19.90294,14.73467 -1.6452,2.02533 -3.19053,4.31066 -2.78373,6.996 0.34373,2.26666 1.86613,4.296 3.1088,6.15333 1.63907,2.452 3.1656,5.22533 5.38027,7.22133 1.24293,1.12 3.3976,3.47467 5.19226,2.74 0.30667,-0.12533 0.55867,-0.28266 0.77067,-0.464 1.81333,1.192 3.632,2.37734 5.46667,3.53867 3.336,2.11467 6.68533,4.212 10.03066,6.312 6.42667,4.03467 12.82934,8.10933 19.12934,12.34 -0.0333,0.003 -0.0667,10e-4 -0.1,0.005 -0.13867,0.007 -0.26267,0.032 -0.37067,0.08 -0.004,0 -0.008,0 -0.012,0.001 0,10e-4 0,10e-4 0,10e-4 -0.112,0.052 -0.20933,0.12266 -0.27467,0.23066 -0.40266,0.67467 -0.0373,1.06134 0.55867,1.22934 -0.40533,0.32266 -0.50133,0.768 0.0427,1.184 -0.676,4.51866 -2.29867,8.864 -4.64934,12.78933 -0.208,0.34667 0.31867,0.648 0.53867,0.31467 2.404,-3.64134 3.95733,-7.78267 4.7,-12.07067 0.064,0.16133 0.16,0.30933 0.31067,0.40533 0.0707,0.28134 0.15866,0.548 0.26133,0.78534 0.003,0.0707 0.0173,0.13466 0.0227,0.20266 -0.20934,1.328 -0.48534,2.648 -0.79734,3.94934 -0.49333,2.05333 -1.10133,4.07866 -1.848,6.05466 -0.13066,0.34534 0.41467,0.48534 0.548,0.15067 0.80267,-2.00933 1.45734,-4.076 1.912,-6.192 0.204,-0.94667 0.35334,-1.89867 0.476,-2.85467 0.94667,2.02667 3.88534,2.55067 6.21734,1.81067 -0.104,0.48533 -0.20934,0.95067 -0.33734,1.37333 -0.0133,0.0467 -0.0253,0.0987 -0.0387,0.14534 -1.99067,3.336 -4.71734,5.82266 -7.74534,8.53733 1.24,1.6 2.81867,-1.59733 3.74934,-2.48667 1.12933,-1.07866 2.228,-2.244 3.25733,-3.46133 -0.0827,0.20933 -0.16533,0.41733 -0.27067,0.604 -0.34666,0.61867 -0.88266,0.848 -1.07466,1.552 -0.12667,0.468 -0.148,0.856 -0.1,1.188 -0.41867,0.456 -0.844,0.90533 -1.28134,1.34533 -0.58933,0.59467 -2.64,2.16 -1.74133,3.076 1.23067,-0.89466 2.176,-2.492 3.212,-3.82133 0.10933,0.192 0.25867,0.34267 0.43333,0.46933 -0.45066,0.944 -0.93333,1.86934 -1.304,2.848 -1.09733,2.90134 -1.78266,7.33734 0.74134,9.76267 0.12666,0.12133 0.24133,0.22133 0.34933,0.30533 0.32533,0.45334 0.67867,0.936 0.912,1.54267 0.29067,0.75867 0.216,3.34133 0.90533,3.592 1.22534,0.44667 1.34134,-2.37067 1.40534,-3.12267 0.14533,-1.696 -0.88934,-2.91733 -2.04,-3.90533 -0.0547,-0.60667 -0.13867,-1.20133 -0.16667,-1.588 -0.0707,-0.96267 -0.164,-2.00267 -0.17867,-3.04533 0.86534,-1.036 1.83067,-1.89334 2.72667,-2.82934 -0.20133,1.68534 0.056,3.108 1.00267,4.96267 0.50133,0.98133 1.10266,2.66667 1.88533,4.19867 0.148,0.70933 0.38533,1.372 0.59333,1.684 0.364,0.54533 0.948,0.92933 1.29334,1.55333 0.37066,0.668 0.544,1.79867 1.14933,2.30933 1.33067,1.12134 1.94267,-0.824 1.748,-1.94133 -0.21467,-1.23733 -1.35867,-2.71867 -2.28133,-3.524 -0.58,-2.844 -1.528,-5.65333 -1.66934,-8.572 1.28534,-1.21733 2.812,-2.30667 3.55334,-3.95867 0.37333,1.65734 0.836,3.31734 1.22,4.82934 0.19733,0.77733 0.35866,1.55733 1.264,1.17066 -0.57867,-1.59333 -0.868,-3.34666 -1.39734,-4.97333 -0.22133,-0.684 -0.5,-1.36533 -0.784,-2.048 0.268,-0.16133 0.516,-0.32133 0.74,-0.48933 0.36134,1.812 0.64134,4.53066 1.652,5.69333 0.40934,0.47067 1.408,1.40133 1.65867,0.096 0.036,-0.188 -0.58267,-1.096 -0.58933,-1.11067 -0.84134,-1.63866 -1.57067,-3.264 -2.50934,-4.844 0.756,-0.63066 1.15867,-1.41333 0.92267,-2.868 -0.28,-1.73466 -1.02933,-3.35466 -2.016,-4.79333 0.19467,0.0347 0.392,0.064 0.59067,0.0827 0.044,0.064 0.0693,0.11733 0.10133,0.16933 0.096,-0.0507 0.196,-0.1 0.29333,-0.14933 0.0613,0.001 0.12267,0.007 0.184,0.007 0.44,-0.003 0.992,-0.0333 1.50134,-0.13066 0.61866,2.62133 1.41333,5.20266 2.41733,7.704 0.648,1.61333 1.38533,3.16133 2.26,4.664 0.16133,0.27866 0.54933,0.0347 0.42267,-0.248 -1.24534,-2.772 -2.44267,-5.56667 -3.408,-8.452 -0.42134,-1.25734 -0.788,-2.53334 -1.11467,-3.81867 0.196,-0.068 0.36933,-0.15333 0.51333,-0.256 1.11334,2.64933 2.54534,5.15333 4.344,7.42 0.79067,0.99733 1.64134,1.944 2.544,2.84267 0.332,0.33066 0.84933,-0.18667 0.51467,-0.51467 -2.936,-2.86533 -5.39733,-6.31467 -7.1,-10.07867 0.12533,-0.24 0.12667,-0.54 -0.0733,-0.92133 -0.009,-0.0173 -0.0213,-0.0333 -0.032,-0.0507 0.61733,-0.67733 0.85866,-1.54533 0.34266,-2.81333 -0.28533,-0.70133 -1.41466,-3.82533 -2.596,-4.868 0.012,-0.0267 0.0227,-0.0547 0.0347,-0.084 0.004,-0.007 0.0107,-0.012 0.0147,-0.02 l -0.004,-0.005 c 0.0147,-0.0373 0.0293,-0.0733 0.044,-0.11067 h 0.076 c 0.004,-0.0573 0.004,-0.128 0.004,-0.2 0.76666,-1.87867 1.54266,-3.752 2.32933,-5.62266 3.18667,-7.57067 6.53866,-15.07334 10.06,-22.49467 0.828,-1.74133 1.65866,-3.48533 2.496,-5.22533 2.44533,1.61333 4.79733,-2.292 6.33066,-4.78 2.69334,-4.368 4.12667,-10.09067 3.65067,-15.22267"
       style="fill:#6c230f;fill-opacity:1;fill-rule:nonzero;stroke:none;stroke-width:0.133333" />
    <path
       id="path102"
       d="m 202.41333,533.08001 c 0,1.0132 -0.0533,2.0132 -0.16,3.00026 -17.96,2.70614 -36.93333,4.1864 -54.29333,0.45307 -0.52,-0.1068 -1.04,-0.22653 -1.57334,-0.33333 -0.12,-1.02654 -0.17333,-2.06667 -0.17333,-3.12 0,-14.38667 10.8,-26.24 24.73333,-27.89334 1.09334,-0.14666 2.22667,-0.21333 3.36,-0.21333 7.65334,0 14.6,3.06667 19.66667,8.01333 5.2,5.12 8.44,12.22667 8.44,20.09334"
       style="fill:#e36414;fill-opacity:1;fill-rule:nonzero;stroke:none;stroke-width:0.133333" />
    <path
       id="path104"
       d="m 107.6932,528.48001 c -0.0135,0.24 -0.0135,0.48 -0.0265,0.72 -0.13333,-0.28 -0.2672,-0.54667 -0.4136,-0.8 0.1464,0.04 0.29387,0.0667 0.44014,0.08"
       style="fill:#653527;fill-opacity:1;fill-rule:nonzero;stroke:none;stroke-width:0.133333" />
    <path
       id="path106"
       d="m 211.48286,601.3864 -23.05521,21.68288 -25.3849,-1.8253 -18.37934,-20.40056 c -9.10902,-9.60996 -61.736843,-60.84351 -77.62752,-77.28455 -1.601803,-1.65728 5.014724,-0.62883 8.270908,-0.85217 3.812933,0.65334 7.612933,1.32 11.412933,1.98667 2.787067,0.49333 5.572933,0.98667 8.360533,1.49333 h 0.01293 c 4.0532,0.72 8.106806,1.46667 12.159866,2.21334 0.1464,0.25333 0.28027,0.52 0.4136,0.8 0.0131,-0.24 0.0131,-0.48 0.0265,-0.72 11.5068,2.16 23,4.41333 34.45346,6.8268 1.41334,0.2932 2.82667,0.5864 4.24,0.8932 0.53334,0.1068 1.05334,0.22653 1.57334,0.33333 1.81333,0.3864 3.64,0.71973 5.49333,1 10.49333,1.6 21.45333,1.5068 32.34667,0.54693 5.53333,-0.48026 11.04,-1.18706 16.45333,-2 1.8,-0.28026 3.6,-0.56053 5.37333,-0.85373 3.29333,-0.51973 6.53333,-1.1068 9.70667,-1.6796 18.70666,-3.36027 37.28067,-18.15357 54.88,-12.0536 4.35521,1.50953 8.17713,2.89215 11.51525,4.16447"
       style="fill:#190e10;fill-opacity:1;fill-rule:nonzero;stroke:none;stroke-width:0.133333"
       sodipodi:nodetypes="ccccscccccccccccccccsc" />
    <path
       id="path107"
       d="m 314.36477,490.11404 c -0.08,0.45333 -0.17333,0.90666 -0.26667,1.34666 -0.64,3.21334 -1.42666,6.37334 -2.33333,9.48 -1.54245,1.74633 -0.94952,0.8179 -1.04,-0.93326 -1.33333,2.12 -2.62667,4.24 -4,6.32 -2.44335,1.91337 -4.37161,4.41983 -7.11997,6.84003 -0.53333,-0.62667 -1.08,-1.24 -1.62667,-1.86667 0.68,-0.92 1.34667,-1.86666 2.01334,-2.81333 0.38666,-0.56 0.76,-1.13333 1.12,-1.70667 v -0.0133 c 0.14666,-0.22667 0.29333,-0.45333 0.41333,-0.68 0.97333,-1.6 1.84,-3.25333 2.65333,-4.92 1.12,-2.28 2.13334,-4.61333 3.2,-6.96 -1.41333,1.72 -2.85333,3.53333 -4.32,5.34667 -2.12,2.6 -4.32,5.21333 -6.62666,7.56 -0.38667,0.4 -0.77334,0.78666 -1.16,1.16 -0.14667,-0.14667 -0.28,-0.30667 -0.42667,-0.46667 -0.2,-0.22667 -0.4,-0.45333 -0.6,-0.68 0.29333,-0.49333 0.64,-0.98667 0.97333,-1.46667 0.30667,-0.41333 0.62667,-0.81333 0.92,-1.2 0.42667,-0.54666 0.82667,-1.06666 1.13334,-1.50666 1.30666,-1.86667 2.76,-3.62667 4.17333,-5.41334 0.93333,-1.18666 1.85333,-2.38666 2.70667,-3.64 -0.57334,0.54667 -1.70667,1.68 -3.17334,3.12 -2.28,2.29334 -5.38666,5.36 -8.44,8.18667 -0.62666,-0.70667 -1.26666,-1.41333 -1.90666,-2.13333 2.56,-2.6 5.13333,-5.21334 7.61333,-7.86667 -2.26667,2.14667 -5.14667,3.96 -7.86667,5.78667 -0.28,0.18666 -0.56,0.37333 -0.84,0.56 -0.0667,0.0533 -0.12,0.0933 -0.18666,0.13333 -0.66667,-0.74667 -1.33334,-1.48 -2,-2.2 h -0.0133 c -0.46666,-0.52 -0.94666,-1.02667 -1.42666,-1.53333 3.08,-1.92 6.12,-3.81334 8.74666,-6 -3.49333,0.77333 -6.8,2.76 -10.08,4.57333 -0.62666,-0.66667 -1.25333,-1.32 -1.88,-1.97333 2.90667,-1.62667 6.02667,-3.06667 8.52,-5.04 0.24,-0.17334 0.48,-0.36 0.70667,-0.56 -0.69333,-0.13334 -1.38667,-0.17334 -2.06667,-0.12 -3.09333,0.17333 -6.04,1.96 -8.93333,3.86666 -0.42667,-0.44 -0.86667,-0.89333 -1.30667,-1.34666 1.38667,-0.8 2.73334,-1.54667 3.88,-2.32 0.86667,-0.6 1.72,-1.18667 2.58667,-1.78667 1.92,-1.34667 3.82667,-2.70667 5.69333,-4.10667 -3.26666,0.62667 -6.37333,1.68 -9.38666,2.97334 -1.82667,0.78666 -3.61334,1.66666 -5.38667,2.58666 -1.22667,-1.24 -2.45333,-2.45333 -3.69333,-3.66666 0.18666,-0.10667 0.37333,-0.21334 0.56,-0.33334 3.06666,-1.74666 6.09333,-3.44 8.57333,-5.4 -3.09333,-0.0933 -6.04,2.18667 -9.06667,1.82667 2.17334,-1.88 5.4,-2.38667 7.94667,-3.64 -4.36,0.58667 -8.42667,1.69333 -12.50667,3.2 -0.18666,-0.18667 -0.37333,-0.37333 -0.56,-0.54667 -0.0933,-0.0933 -0.18666,-0.17333 -0.28,-0.26666 3.28,-3.05334 10.18667,-5.44 13.93334,-6.54667 -5.44,1.64 -11.01334,2.6 -16.42667,4.41333 -2.98667,-2.4 -6.26667,-4.69333 -8.58667,-7.37333 5.44,-2.58667 13.8,-1.26667 19.49334,-0.78667 11.57333,0.97334 22.38666,4.66667 31.16,12.49334 2.58666,2.32 4.92,5.04 6.81333,8.04"
       style="fill:#501b0a;fill-opacity:1;fill-rule:nonzero;stroke:none;stroke-width:0.133333"
       sodipodi:nodetypes="cccccccccccccccccccccccccccccccccccccccccccccccccccccccccccc" />
    <path
       id="path108"
       d="m 295.80098,510.54808 c 0.0133,0.0133 0,0.0267 0,0.0267 -0.21333,0.53334 -0.42666,1.06667 -0.65333,1.6 -0.21333,0.48 -0.41333,0.96 -0.62667,1.44 -0.0667,0.16 -0.13333,0.33334 -0.21333,0.49334 -0.33333,0.76 -0.69333,1.52 -1.05333,2.28 0.04,-1.61334 0.12,-3.22667 0.12,-4.84 0.0133,-0.56 0.0133,-1.13334 0,-1.69334 -0.08,0.85334 -0.26667,1.70667 -0.49334,2.53334 -0.17333,0.62666 -0.36,1.24 -0.53333,1.85333 -0.24,0.85333 -0.46667,1.85333 -0.72,2.93333 -0.45333,1.85334 -0.98667,3.88 -1.69333,5.70667 l -0.0133,0.0133 c -0.0133,0.0133 -0.0133,0.0267 -0.0267,0.04 -0.18667,0.49334 -0.4,0.98667 -0.64,1.44 -0.04,-0.0267 -0.08,-0.0533 -0.12,-0.08 -0.73334,-0.53333 -1.48,-1.05333 -2.22667,-1.54666 0,-0.0133 0,-0.0133 0,-0.0267 0,-0.0133 0,-0.0133 0.0133,-0.0267 0.10667,-1.04 0.32,-2.08 0.49334,-3.01333 0.0667,-0.34667 0.12,-0.68 0.17333,-1 0.26667,-1.78667 0.58667,-3.57333 0.88,-5.36 0.45333,-2.76 0.82667,-5.53333 0.84,-8.32 v -0.56 c -0.16,0.4 -0.29333,0.81333 -0.41333,1.24 v 0.0133 c -0.6,2.01334 -0.90667,4.14667 -1.45334,6.16 -0.0133,0.08 -0.04,0.14667 -0.0533,0.22667 -0.57333,2.17333 -1.21333,5.18667 -2.06667,8.14667 -0.13333,0.44 -0.26666,0.86666 -0.4,1.29333 -0.46666,-0.28 -0.93333,-0.54667 -1.4,-0.81333 0,0 0,0 -0.0133,0 -0.25333,-0.16 -0.52,-0.30667 -0.77333,-0.45334 0.82666,-4.73333 1.72,-9.6 1.48,-14.22666 -0.0533,-0.89334 -0.14667,-1.78667 -0.29334,-2.65334 -0.10666,-0.62666 -0.22666,-1.24 -0.38666,-1.85333 -0.17334,1.01333 -0.34667,2.04 -0.53334,3.05333 -0.10666,0.72 -0.24,1.42667 -0.37333,2.14667 -0.66667,3.81333 -1.45333,7.6 -2.64,11.33333 -0.0667,0.2 -0.13333,0.41334 -0.2,0.64 -1.25333,-0.64 -2.49333,-1.25333 -3.76,-1.88 0.28,-1.10666 0.54667,-2.24 0.8,-3.37333 0.98667,-4.50667 1.18667,-9 1.33333,-13.53333 0.0267,-0.82667 0.0533,-1.65334 0.08,-2.48 -0.30666,1 -0.61333,2.01333 -0.92,3.04 -1.44,4.85333 -2.93333,9.97333 -4.94666,14.57333 -0.46667,-0.22667 -0.93334,-0.45333 -1.38667,-0.68 0.26667,-1.77333 0.92,-3.68 1.21333,-5 0.82667,-3.69333 2.14667,-7.26667 2.92,-10.96 h 0.0133 c 0,-0.0133 0,-0.0133 0,-0.0267 0,0.0133 -0.0133,0.0133 -0.0133,0.0267 -0.85333,1.86667 -3.57333,8.69333 -6.42666,14.84 -0.86667,-0.42667 -1.72,-0.84 -2.58667,-1.25333 1.37333,-3.37334 2.77333,-6.77334 4.06667,-10.17334 -1.46667,3.21334 -3.78667,6.32 -5.78667,9.37334 -1.52,-0.73334 -3.05333,-1.44 -4.58667,-2.14667 2.12,-2.94667 4.21334,-5.85333 5.81334,-8.88 -2.93334,2.05333 -5.24,5.14667 -7.6,8.06667 -0.82667,-0.37334 -1.64,-0.74667 -2.46667,-1.10667 2.25333,-2.86667 4.85333,-5.61333 6.4,-8.68 -3.82667,0.78667 -6.36,4.14667 -8.74667,7.64 -0.57333,-0.25333 -1.14666,-0.50667 -1.73333,-0.76 0.98667,-1.25333 1.94667,-2.46667 2.70667,-3.61333 1.85333,-2.82667 3.70666,-5.70667 5.42666,-8.6 -4.46666,2.92 -8.13333,6.70666 -11.56,10.74666 -1.58666,-0.68 -3.2,-1.33333 -4.8,-1.98666 2.29334,-2.97334 4.62667,-5.84 6.26667,-8.77334 -2.89333,1.08 -4.76,4.32 -7.69333,5.13334 1.30666,-2.56 4.09333,-4.25334 5.97333,-6.38667 -3.81333,2.2 -7.14667,4.77333 -10.36,7.70667 -0.24,-0.10667 -0.48,-0.2 -0.72,-0.29334 -0.12,-0.04 -0.24,-0.0933 -0.37333,-0.13333 1.89333,-4.08 7.37333,-8.90667 10.41333,-11.34667 -4.41333,3.57334 -9.2,6.58667 -13.52,10.30667 -3.66667,-1.08 -7.57333,-1.96 -10.73333,-3.56 4.05333,-4.45333 12.28,-6.4 17.73333,-8.12 7.06667,-2.22667 14.26667,-3.30667 21.42667,-2.78667 2.85333,0.2 5.69333,0.66667 8.52,1.41334 1.21333,0.32 2.41333,0.68 3.61333,1.10666 0.0267,0.0133 0.0533,0.0133 0.08,0.0267 1.28,0.45333 2.54667,0.98667 3.77333,1.58667 0.45334,0.21333 0.90667,0.44 1.36,0.68 3.64,1.93333 7.01334,4.48 9.76,7.50666 0.16,0.16 0.32,0.33334 0.46667,0.52 0.57333,0.65334 1.10667,1.32 1.61333,2.01334 0.38667,0.52 0.76,1.05333 1.12,1.61333 1.02667,1.62667 1.89334,3.34667 2.54667,5.16 0.34667,0.90667 0.62667,1.84 0.84,2.8 0.2,0.82667 0.36,1.65333 0.45333,2.50667"
       style="fill:#501b0a;fill-opacity:1;fill-rule:nonzero;stroke:none;stroke-width:0.133333" />
    <path
       id="path109"
       d="m 81.509615,488.72587 c -3.61294,-2.34667 -7.493202,-4.10667 -11.159869,-6.33334 2.5204,1.52 7.120399,4.57334 8.933329,7.42667 -0.0796,0.04 -0.17293,0.0933 -0.25306,0.14667 l -0.5204,0.28 c -2.693202,-1.86667 -5.453069,-3.45334 -8.533336,-4.70667 1.626667,1.4 3.893867,2.38667 5.1204,4.17333 -2.280266,-0.30666 -4,-2.54666 -6.266666,-3.06666 1.426533,1.90666 3.333333,3.73333 5.226533,5.6 0.119733,0.10666 0.226533,0.22666 0.3464,0.33333 -1.133333,0.64 -2.266133,1.30667 -3.386533,1.97333 -1.119734,-1 -2.266667,-1.97333 -3.4396,-2.90666 -1.9604,-1.50667 -4.04,-2.88 -6.3072,-3.96 1.093733,1.38666 2.24,2.74666 3.400533,4.08 0.506133,0.61333 1.026533,1.2 1.545733,1.8 0.6808,0.78666 1.5204,1.58666 2.387067,2.44 -0.412533,0.24 -0.813067,0.49333 -1.213067,0.73333 -1.746933,-1.93333 -3.559866,-3.78667 -5.759333,-4.53333 -0.507333,-0.16 -1.014133,-0.25334 -1.560933,-0.29334 0.133867,0.18667 0.2672,0.37334 0.413467,0.56 1.440133,1.89334 3.440133,3.54667 5.253199,5.28 -0.572933,0.36 -1.159466,0.72 -1.7328,1.08 -2.053733,-1.94666 -4.093333,-4.02666 -6.506799,-5.25333 1.5068,2.09333 3.3604,4.06667 5.253066,6.04 -0.440133,0.28 -0.892666,0.57333 -1.333333,0.85333 -0.626533,0.4 -1.253067,0.81334 -1.8796,1.22667 -0.04013,-0.04 -0.08027,-0.0933 -0.1204,-0.13333 -0.159867,-0.18667 -0.333333,-0.37334 -0.506267,-0.57334 -1.640533,-1.84 -3.400533,-3.72 -4.6536,-5.70666 1.3068,2.4 2.707334,4.8 4.066134,7.18666 -0.599467,0.4 -1.199467,0.8 -1.798934,1.2 -1.693733,-2.65333 -3.374,-5.49333 -4.600533,-7.58666 -0.8,-1.34667 -1.4136,-2.38667 -1.7328,-2.88 0.3864,1.06666 0.826,2.12 1.292667,3.16 0.6932,1.57333 1.427066,3.14666 2.026533,4.76 0.133333,0.38666 0.333333,0.84 0.533333,1.32 0.147467,0.33333 0.293867,0.66666 0.4272,1.02666 0.1728,0.42667 0.333334,0.85334 0.453067,1.28 -0.186933,0.13334 -0.3864,0.25334 -0.573467,0.38667 -0.133866,0.08 -0.253066,0.17333 -0.385866,0.25333 -0.214134,-0.34666 -0.427067,-0.70666 -0.627067,-1.06666 -1.253733,-2.16 -2.360533,-4.49334 -3.4136,-6.8 -0.7328,-1.6 -4.698032,-2.64369 -5.404299,-4.16369 0.333334,1.90667 3.897499,3.27035 4.284566,5.15035 0.2796,1.37334 0.599467,2.74667 1,4.10667 0.0536,0.18667 0.106667,0.36 0.1604,0.54667 0,0 0.0124,0.0133 0.0124,0.0267 0.146933,0.48 0.320933,0.97334 0.493866,1.45334 0.2932,0.82666 0.612934,1.64 0.9328,2.45333 -0.5204,0.34667 -1.0396,0.69333 -1.545866,1.05333 -1.415467,-1.46913 -3.331821,-4.69394 -3.893197,-6.35996 -0.614133,-1.77333 -1.1604,-3.57333 -1.733867,-5.37333 -0.146933,1.28 -0.133333,2.58667 0,3.89333 -0.2,-0.48 -0.387066,-0.97333 -0.559866,-1.46666 -0.1068,-0.22667 -0.187067,-0.46667 -0.2672,-0.69334 -0.319867,-0.84 -0.626134,-1.69333 -0.919867,-2.56 -0.0932,-0.22666 -0.1604,-0.45333 -0.2396,-0.66666 -0.320267,-0.94667 -0.627067,-1.90667 -0.9208,-2.86667 -0.1068,-0.32 -0.199467,-0.64 -0.292667,-0.97333 2.426534,-2.97334 5.559867,-5.44 8.933867,-7.16 7.879066,-4.05334 16.492666,-4.70667 25.119199,-3.22667 4.266663,0.73333 10.613593,1.34667 14.093193,4.28 -2.2,1.50667 -5.02653,2.56 -7.66666,3.74667"
       style="fill:#501b0a;fill-opacity:1;fill-rule:nonzero;stroke:none;stroke-width:0.133333"
       sodipodi:nodetypes="ccccccccccccccscccccccccccccccccccccccccccccccccccccccccccccccc" />
    <path
       id="path110"
       d="m 99.956331,511.45043 c -2.3468,-3.38666 -5.1068,-6.37333 -7.57346,-9.64 1.7876,2.46667 4.54693,6.68 5.1068,9.8 -0.1068,0.0133 -0.2,0.0267 -0.29374,0.04 -0.19946,0.0133 -0.3864,0.04 -0.5864,0.0667 -1.78653,-2.74667 -3.7328,-5.26667 -6.10573,-7.58667 0.9724,1.90667 2.69213,3.66667 3.15933,5.78667 -2,-1.14667 -2.74693,-3.86667 -4.65306,-5.2 0.64,2.45333 1.79946,4.98667 2.90613,7.6 -1.2932,0.16 -2.5864,0.34667 -3.8796,0.54667 -1.73333,-3.6 -3.693199,-7.08 -6.399999,-10.05334 0.7068,2.44 1.506267,4.89334 2.333333,7.30667 0.333334,0.98667 0.813467,2.05333 1.279596,3.16 -0.466129,0.0667 -0.932796,0.14667 -1.399996,0.22667 -1.0796,-3.01334 -2.2932,-5.94667 -4.946266,-7.24 0.5468,2.53333 1.933866,5.02666 3.0396,7.54666 -0.679734,0.12 -1.3464,0.22667 -2.026667,0.34667 -1.1604,-2.58667 -2.253067,-5.28 -4.012933,-7.33333 0.600533,2.52 1.572933,5.04 2.559866,7.58666 -1.253066,0.22667 -2.5068,0.45334 -3.759866,0.69334 -0.880267,-2.6 -1.987067,-5.32 -2.440134,-7.93334 0.2932,2.72 0.666667,5.48 1.026534,8.2 -0.7068,0.13334 -1.412934,0.28 -2.1192,0.42667 -0.920933,-5.05333 -1.614133,-10.56 -1.8808,-12.06667 -0.133333,2.85334 0.146933,5.69334 0.05373,8.56 -0.04013,0.96 0.06667,2.33334 -0.04013,3.6 0,0.0933 0,0.2 -0.0136,0.29334 -0.3864,0.08 -0.7604,0.16 -1.1468,0.22666 -0.0396,-0.24 -0.0792,-0.48 -0.106267,-0.73333 -0.5204,-3.53333 -0.626533,-7.28 -0.746933,-10.85333 -0.02653,-0.81334 -0.05307,-1.6 -0.09373,-2.38667 -0.132267,0.61333 -0.266134,1.21333 -0.412534,1.81333 -0.7468,3.34667 -1.4536,6.65334 -1.587466,10.14667 -0.01307,0.25333 -0.02547,0.52 -0.02547,0.77333 -0.0276,0.61334 -0.0276,1.22667 -0.0276,1.85334 -1.053733,0.2 -2.0792,0.41333 -3.106267,0.65333 -0.0136,-0.18667 -0.02653,-0.34667 -0.02653,-0.50667 -0.05373,-0.85333 -0.0672,-1.72 -0.0672,-2.56 0,-2.08 0.1208,-4.14666 0.280133,-6.21333 0.04013,-0.54667 0.08027,-1.10667 0.1204,-1.66667 0.06667,-0.76 0.1328,-1.53333 0.2,-2.30666 -0.226666,0.41333 -0.440133,0.84 -0.6272,1.28 -0.266133,0.61333 -0.506133,1.24 -0.706133,1.88 -1.0672,3.33333 -1.333333,7.06666 -1.6272,10.68 -0.106667,0.0267 -0.212933,0.0533 -0.319733,0.08 -0.466667,-0.78667 -0.9068,-1.57334 -1.346933,-2.38667 -0.07907,-0.14667 -0.1604,-0.29333 -0.239467,-0.44 0.01293,-1.53333 0.06667,-2.96 0.0536,-4.10667 v -0.18666 c -0.01413,-1.57334 0.172933,-3.18667 0.1192,-4.77334 0,-0.0133 -0.0124,-0.0267 -0.0124,-0.0267 0,-0.33334 -0.0276,-0.65334 -0.05373,-0.97334 -0.04,0.14667 -0.08013,0.28 -0.106667,0.42667 -0.5204,2.04 -0.773467,4.13333 -0.973467,6.22667 -0.04013,0.44 -0.08027,0.89333 -0.1204,1.34666 -0.533333,-1.01333 -1.026533,-2.05333 -1.506133,-3.08 -0.373467,-0.74666 -0.7204,-1.50666 -1.053733,-2.26666 -0.173467,-0.37334 -0.333334,-0.74667 -0.493734,-1.12 -0.132266,-0.29334 -0.253066,-0.57334 -0.3864,-0.86667 0.213467,-0.36 0.44,-0.72 0.694267,-1.06667 0.812933,-1.2 1.7724,-2.29333 2.8396,-3.28 0.359867,-0.33333 0.733333,-0.66666 1.119733,-0.98666 0.4932,-0.4 1.013067,-0.78667 1.559867,-1.16 0.147466,-0.0933 0.293733,-0.18667 0.440133,-0.28 2.5864,-1.69334 5.533333,-2.90667 8.559867,-3.61334 0.374,-0.10666 0.7604,-0.18666 1.147466,-0.26666 1.0124,-0.2 2.025467,-0.34667 3.0396,-0.44 h 0.03947 c 0.960533,-0.08 1.920933,-0.12 2.8672,-0.12 2.2,-0.0133 4.372933,0.2 6.479733,0.6 5.33333,0.97333 10.4,3.12 15.13387,6.08 3.652529,2.29333 9.306259,5.26666 11.412529,9.29333 -2.6136,0.57333 -5.62667,0.48 -8.519869,0.57333"
       style="fill:#501b0a;fill-opacity:1;fill-rule:nonzero;stroke:none;stroke-width:0.133333" />
    <path
       id="path113"
       d="m 217.63999,541.06667 c -2.53333,7.4 -20.69333,9.1864 -26.26666,9.46667 -2.8,0.13333 -28.72,-3.35987 -22.85333,3.0932 -3.06667,4.06667 -14.68,0.2932 -19.44,2.0932 1.2,3.1204 7.08,5.16053 9.84,6.9204 -6.65334,-0.0667 -13.14667,-1.6 -19.86667,-1.6136 -6.6132,-0.0129 -20.8132,2.35987 -26.3336,-2.17347 5.0272,-7.13333 19.0272,-5.33333 26.12027,-7.91973 -4.18667,-2.0932 -9.214,-1.51973 -13.39987,-3.64013 4.45307,-0.9068 24.8932,1.93333 26.10653,-1.95987 -4.93333,-3.85307 -12.69333,-2.04013 -18.30653,-3.94693 5.4132,-3.1728 14.0932,-3.4 20.1332,-3.83947 0.0267,0 0.0533,0 0.08,-0.0136 10.49333,1.6 21.45333,1.5068 32.34667,0.54693 4.29333,1.6932 11.02666,0.75987 14.73333,0.91974 5.18666,0.2136 12.41333,-0.3864 17.10666,2.06666"
       style="fill:#6c230f;fill-opacity:1;fill-rule:nonzero;stroke:none;stroke-width:0.133333" />
    <path
       id="path114"
       d="m 212.11066,554.90414 c -4.52267,-1.26813 -9.91467,-1.01347 -14.53333,-0.97867 -6.76267,0.0516 -15.49867,-0.5364 -21.84533,2.3584 1.97733,1.93587 6.32266,1.976 7.848,4.62547 -3.94934,3.90373 -12.17334,1.77867 -16.59067,5.9412 4.512,2.62293 12.01067,1.3896 17.15733,1.37347 6.1,-0.0172 12.312,0.65626 18.388,0.2572 -2.044,-3.1572 -6.644,-5.58534 0.172,-6.33747 5.84933,-0.64533 15.19733,0.68173 19.84933,-3.46093 -2.51466,-3.79374 -9.23066,-3.50574 -10.44533,-3.77867"
       style="fill:#6c230f;fill-opacity:1;fill-rule:nonzero;stroke:none;stroke-width:0.133333" />
    <path
       id="path115"
       d="m 229.97066,547.17187 c -5.75333,-0.0677 -12.58933,-0.25733 -17.76267,2.6776 2.84134,3.86774 22.45467,1.8036 25.87467,-1.5692 -1.76933,-0.7548 -4.13867,-0.6896 -8.112,-1.1084"
       style="fill:#6c230f;fill-opacity:1;fill-rule:nonzero;stroke:none;stroke-width:0.133333" />
    <path
       id="path162"
       d="m 177.18372,344.10666 3.48134,7.05334 7.784,1.132 -5.63334,5.48933 1.32934,7.75333 -6.96134,-3.66 -6.96133,3.66 1.32933,-7.75333 -5.632,-5.48933 7.78267,-1.132 3.48133,-7.05334"
       style="fill:#e36414;fill-opacity:1;fill-rule:nonzero;stroke:none;stroke-width:0.133333" />
    <path
       id="path163"
       d="m 158.92998,357.23015 1.26667,2.56933 2.836,0.412 -2.052,2 0.484,2.82267 -2.53467,-1.332 -2.53733,1.332 0.48533,-2.82267 -2.052,-2 2.836,-0.412 1.268,-2.56933"
       style="fill:#e36414;fill-opacity:1;fill-rule:nonzero;stroke:none;stroke-width:0.133333" />
    <path
       id="path164"
       d="m 148.70594,366.79934 1.26667,2.56933 2.836,0.412 -2.052,2 0.484,2.82267 -2.53467,-1.332 -2.53733,1.332 0.48533,-2.82267 -2.052,-2 2.83467,-0.412 1.26933,-2.56933"
       style="fill:#e36414;fill-opacity:1;fill-rule:nonzero;stroke:none;stroke-width:0.133333" />
    <path
       id="path167"
       d="m 195.4388,357.23015 -1.26667,2.56933 -2.836,0.412 2.052,2 -0.48533,2.82267 2.536,-1.332 2.536,1.332 -0.484,-2.82267 2.05067,-2 -2.83467,-0.412 -1.268,-2.56933"
       style="fill:#e36414;fill-opacity:1;fill-rule:nonzero;stroke:none;stroke-width:0.133333" />
    <path
       id="path168"
       d="m 205.30636,366.79934 -1.268,2.56933 -2.83467,0.412 2.052,2 -0.48533,2.82267 2.536,-1.332 2.536,1.332 -0.484,-2.82267 2.05067,-2 -2.83467,-0.412 -1.268,-2.56933"
       style="fill:#e36414;fill-opacity:1;fill-rule:nonzero;stroke:none;stroke-width:0.133333" />
    <path
       style="font-variation-settings:'wght' 900;fill:none;stroke:#6c230f;stroke-width:6;stroke-linecap:round;stroke-linejoin:round;stroke-dasharray:none;stroke-opacity:1;paint-order:markers fill stroke"
       id="rect1"
       width="215.40288"
       height="215.40288"
       x="-205.69382"
       y="-487.13391"
       transform="rotate(135,-138.2295,107.18678)"
       inkscape:path-effect="#path-effect2"
       sodipodi:type="rect"
       d="M -185.68932,-487.13391 H -9.9114913 a 19.620552,19.620552 45 0 1 19.620552,19.62055 v 179.23335 a 16.548976,16.548976 135 0 1 -16.548976,16.54898 H -186.84116 a 18.852658,18.852658 45 0 1 -18.85266,-18.85266 v -176.54572 a 20.004499,20.004499 135 0 1 20.0045,-20.0045 z" />
    <path
       id="path64"
       d="m 304.44153,580.3732 c -40.43076,-16.05866 -84.57109,-24.08933 -128.70972,-24.08933 -44.13864,0 -88.277253,8.03067 -128.708002,24.08933 6.675181,3.40934 13.121181,6.98267 19.327752,10.70534 -0.436118,6.1 -0.58663,12.16266 -0.45323,18.176 34.50126,-13.70534 72.16652,-20.55734 109.83348,-20.55734 37.66696,0 75.33393,6.852 109.83348,20.55734 0.13513,-6.01334 -0.0154,-12.076 -0.4515,-18.176 6.20656,-3.72267 12.65086,-7.296 19.32774,-10.70534"
       style="fill:#fce5da;fill-opacity:1;fill-rule:nonzero;stroke:#6c230f;stroke-width:1;stroke-opacity:1;stroke-dasharray:none" />
    <text
       xml:space="preserve"
       style="font-style:normal;font-variant:normal;font-weight:normal;font-stretch:normal;font-size:36px;line-height:1.25;font-family:Urbanist;-inkscape-font-specification:'Urbanist, @wght=800';font-variant-ligatures:normal;font-variant-caps:normal;font-variant-numeric:normal;font-variant-east-asian:normal;font-variation-settings:'wght' 800;letter-spacing:0.5px;fill:#e36414;fill-opacity:1"
       x="182.83325"
       y="577.68182"
       id="text2"
       transform="rotate(2.0677428)"><tspan
         sodipodi:role="line"
         id="tspan2"
         x="182.83325"
         y="577.68182"
         style="font-style:normal;font-variant:normal;font-weight:normal;font-stretch:normal;font-size:36px;font-family:Urbanist;-inkscape-font-specification:'Urbanist, @wght=800';font-variant-ligatures:normal;font-variant-caps:normal;font-variant-numeric:normal;font-variant-east-asian:normal;font-variation-settings:'wght' 800;fill:#e36414;fill-opacity:1">&amp;</tspan></text>
    <text
       xml:space="preserve"
       style="font-style:normal;font-variant:normal;font-weight:normal;font-stretch:normal;font-size:24px;line-height:1.25;font-family:Urbanist;-inkscape-font-specification:'Urbanist, @wght=900';font-variant-ligatures:normal;font-variant-caps:normal;font-variant-numeric:normal;font-variant-east-asian:normal;font-variation-settings:'wght' 900;letter-spacing:-0.5px"
       id="text1"><textPath
         xlink:href="#ellipse3"
         id="textPath3"
         style="font-style:normal;font-variant:normal;font-weight:normal;font-stretch:normal;font-size:24px;font-family:Urbanist;-inkscape-font-specification:'Urbanist, @wght=800';font-variant-ligatures:normal;font-variant-caps:normal;font-variant-numeric:normal;font-variant-east-asian:normal;font-variation-settings:'wght' 800;letter-spacing:-0.5px;fill:#e36414;fill-opacity:1">                                                        <tspan
   style="letter-spacing:1.6px"
   id="tspan5">  </tspan>POEIRA</textPath></text>
    <text
       xml:space="preserve"
       style="font-style:normal;font-variant:normal;font-weight:normal;font-stretch:normal;font-size:26.6667px;line-height:1.25;font-family:Urbanist;-inkscape-font-specification:'Urbanist, @wght=900';font-variant-ligatures:normal;font-variant-caps:normal;font-variant-numeric:normal;font-variant-east-asian:normal;font-variation-settings:'wght' 900;letter-spacing:-0.15px;display:inline;fill:#e36414;fill-opacity:1"
       id="text3"
       transform="translate(0.38394708)"
       inkscape:label="Fumaa"
       sodipodi:insensitive="true"><textPath
         xlink:href="#ellipse4"
         id="textPath4"
         style="font-style:normal;font-variant:normal;font-weight:normal;font-stretch:normal;font-size:24px;font-family:Urbanist;-inkscape-font-specification:'Urbanist, @wght=800';font-variant-ligatures:normal;font-variant-caps:normal;font-variant-numeric:normal;font-variant-east-asian:normal;font-variation-settings:'wght' 800;letter-spacing:-0.15px;fill:#e36414;fill-opacity:1">                                                                            <tspan
   style="letter-spacing:-1.3px;fill:#e36414;fill-opacity:1"
   id="tspan4">FUMAA</tspan></textPath></text>
    <ellipse
       style="font-variation-settings:'wght' 900;fill:none;stroke:none;stroke-width:4.67657;stroke-linecap:round;stroke-linejoin:round;paint-order:markers fill stroke"
       id="ellipse3"
       cx="180.62999"
       cy="620.59271"
       rx="123.37592"
       ry="40.027996" />
    <ellipse
       style="font-variation-settings:'wght' 900;fill:none;stroke:none;stroke-width:4.67657;stroke-linecap:round;stroke-linejoin:round;paint-order:markers fill stroke"
       id="ellipse4"
       cx="173.70694"
       cy="620.72839"
       rx="123.37592"
       ry="40.027996" />
  </g>
</svg>
