<svg class="w-full" viewBox="0 0 960 370"><path d="M0 0l138 19 53.37 51 114 7 76 51L480 153l49-42 103 4 82-27 84-66L960 0v370H0z"/><path fill="#001" d="M0 205l73 5c26 10 77 24 130 57 53 33 62 62 115 70 53 8 104.093.743 153-23 34-17 92-53 145-57s94-37 148-44c48 5 72 41 112 52 26 7 81 9 81 9v-78l-26-18c-26-18-80-56-133-67-53-10-108 28-162 49-53 21-85-23-139 15-53 38-124 26-178 15-53-10-69-29-122-74s-71-58-114-59c-30 0-83 36-83 36z"/><g fill="#fff" transform="matrix(1.1 0 0 1.1 -39 -125)"><circle cx="253" cy="339" r="1.3" /><circle cx="179" cy="304" r="1"/><circle cx="621" cy="426" r="1" /><circle cx="541" cy="416" r="2.7" /><circle cx="403" cy="245" r="2.3" /><circle cx="750" cy="329" r="1.8" /><circle cx="616" cy="348" r="2"/><circle cx="722" cy="218" r="4"/><circle cx="173" cy="414" r="1.8" /><circle cx="340" cy="441" r="1.8" /><circle cx="861" cy="212" r="1" /><circle cx="239" cy="255" r="1.3" /><circle cx="179" cy="401" r="1.3" /><circle cx="809" cy="398" r="3"/><circle cx="57" cy="197" r="1.3" /><circle cx="852" cy="442" r="1"/><circle cx="171" cy="377" r="3.6" /><circle cx="159" cy="405" r="3"/><circle cx="724" cy="400" r="4"/><circle cx="581" cy="258" r="1.3" /><circle fill=#fcc cx="83" cy="-364" r="1" transform="scale(1 -1)"/><circle cx="404" cy="297" r="1.3" /><circle cx="327" cy="401" r="1" /><circle cx="-326" cy="-294" r="1" transform="scale(-1)"/></g></svg>
