<svg viewBox="0 0 16.955 20.849" class="fill-brown-400"><path stroke-width=".578" d="M16.026 17.266l-1.294-.185.89-.254c1.478-.428.467-3.946-1.012-3.518L7.8 15.98l-6.073-.736c-.982-.139-1.53 1.242-1.392 2.31-.861.89.057 3.64 1.404 3.26l4.806-1.381 8.995 1.276c1.526.22 2.01-3.223.486-3.443z"/><path class="fill-orange-600" d="M14.1 9.855c.202-1.486-.5-4-2.5-6 .25 1.5-1.11 1.103-1.11 1.103C11.24 2.458 8.26.5 5.26 0c.32 1.798 1.373 3.748-.28 5.441-.186.19.13-2.138-.122-1.936-1.25 1-2.757 4.58-2.757 6.35 0 3.5 1.787 5.54 5.16 5.976 3.354-.677 6.355-2.41 6.84-5.976zm-9.112 1.75c-.176-.79-.03-2.224.97-3.224-.125.75 1.198 1.95 1.198 1.95-.375-1.25.192-3.95 1.692-4.2-.18 1-.138 2.504 1.112 3.504.625.5 1.14 1.084 1.14 1.97 0 1.75-3.324 2.312-3.803 2.232-.459-.06-2.024-.949-2.31-2.232z"/></svg>
