<svg viewBox="0 0 267.245 289.03"><g transform="translate(-298.417 -215.037)"><path fill="#230f04" d="M558.013 335.225c6.163 6.164 7.649 17.317 7.649 27.971 0 65.595-46.238 115.767-101.961 129.726-10.307 2.582-31.485 11.145-31.485 11.145s-21.18-8.488-30.927-10.733C339.085 479 298.417 422.564 298.417 363.196c0-16.236 3.12-22.671 8.42-27.971l95.777-107.982c16.273-16.275 42.664-16.275 58.937 0"/><path fill="#913520" d="M557.598 341.822c4.738 5.462 4.244 16.575 4.255 21.271.118 53.728-37.132 112.6-106.953 128.964-8.715 2.043-22.851 7.117-22.851 7.117s-16.856-6.913-20.423-7.62c-71.612-14.212-108.543-74.317-108.578-128.358-.006-8.83-.152-17.972 8.826-26.786l91.925-104.167c15.57-15.57 40.928-15.614 56.417 0 18.46 18.609 61.602 68.336 97.382 109.58z"/><path fill="#25938f" d="M317.075 338.81l91.232-104.942c14.369-13.996 35.23-12.788 50.644 2.75 31.61 31.865 59.732 72.999 91.244 104.96-108.784 42.263-215.47 53.98-233.12-2.769z"/><path fill="#2a2225"  d="M432.481 489.218c-52.305.346-124.506-53.11-124.795-125.947-.034-8.662 3.535-17.234 9.735-24.088.43-.474 1.074-1.049 1.573-1.26.47-.2 1.74-.149 2.72-.155 103.977-.659 106.234-1.337 222.414-.281.36.003 1.186.142 1.717.369.406.174 4.062 3.151 4.062 3.151 5.814 6.366 8.452 14.318 8.4 22.454-.286 44.69-41.6 125.2-125.826 125.757z"/><path d="M337.325 399.267v-22.4H351.5v4.416h-9.76v3.776h7.616v4.416h-7.616v5.376h9.76v4.416zm26.34.416q-1.888 0-3.616-.592-1.712-.592-3.008-1.712-1.28-1.12-1.84-2.656l4.144-1.536q.192.544.8 1.024.608.464 1.52.768.912.288 2 .288 1.04 0 1.952-.304.928-.32 1.488-.88.576-.56.576-1.312t-.592-1.248q-.592-.496-1.52-.784-.928-.304-1.904-.464-2.416-.352-4.336-1.136-1.904-.8-3.008-2.192-1.104-1.408-1.104-3.568 0-2.08 1.168-3.632 1.184-1.552 3.104-2.416 1.936-.864 4.176-.864 1.856 0 3.584.592t3.008 1.712q1.296 1.12 1.856 2.688l-4.144 1.504q-.192-.544-.8-1.008-.608-.464-1.52-.752t-1.984-.288q-1.024-.016-1.952.304-.912.32-1.504.88-.576.56-.576 1.28 0 .944.544 1.424.56.48 1.472.688.912.208 2.016.368 2.272.336 4.192 1.2 1.92.848 3.072 2.272 1.168 1.408 1.168 3.44 0 2.08-1.168 3.632t-3.088 2.416q-1.92.864-4.176.864zm22.404 0q-2.272 0-4.272-.896-2-.912-3.52-2.512-1.504-1.6-2.368-3.696-.848-2.112-.848-4.512 0-2.416.848-4.512.864-2.112 2.368-3.696 1.52-1.6 3.52-2.496 2-.912 4.272-.912 2.72 0 5.008 1.264 2.288 1.248 3.792 3.344l-3.936 2.128q-.896-1.056-2.16-1.68-1.264-.64-2.704-.64-1.36 0-2.56.56t-2.112 1.552q-.896.992-1.408 2.288-.512 1.296-.512 2.8 0 1.488.512 2.8.512 1.296 1.408 2.288.912.976 2.112 1.552 1.2.56 2.56.56 1.456 0 2.704-.64 1.264-.64 2.16-1.696l3.936 2.144q-1.504 2.08-3.792 3.344-2.288 1.264-5.008 1.264zm12.244-.416v-22.4h8.896q1.824 0 3.296.928 1.488.912 2.352 2.464.88 1.536.88 3.408 0 1.472-.512 2.736-.512 1.248-1.44 2.192-.928.944-2.16 1.472l5.328 9.2h-5.088l-5.104-8.8h-2.032v8.8zm4.416-13.216h3.952q.72 0 1.312-.352.608-.368.96-.976.368-.624.368-1.376 0-.736-.368-1.344-.352-.624-.96-.992-.592-.368-1.312-.368h-3.952zm15.973 13.216v-22.4h4.416v22.4zm26.196-22.4v4.416h-6.592v17.984h-4.416v-17.984h-6.592v-4.416zm12.82 22.816q-2.272 0-4.272-.896-2-.912-3.52-2.512t-2.384-3.696q-.864-2.112-.864-4.512 0-2.4.864-4.496.864-2.112 2.384-3.712t3.52-2.496q2-.912 4.272-.912 2.288 0 4.288.912 2 .896 3.52 2.496t2.368 3.712q.864 2.096.864 4.496 0 2.4-.864 4.512-.848 2.096-2.368 3.696t-3.52 2.512q-2 .896-4.288.896zm0-4.416q1.36 0 2.56-.56 1.2-.576 2.112-1.568.912-.992 1.424-2.288.528-1.296.528-2.784 0-1.488-.528-2.784-.512-1.312-1.424-2.288-.912-.992-2.112-1.552-1.2-.576-2.56-.576t-2.56.576q-1.2.56-2.112 1.552-.912.992-1.44 2.288-.512 1.296-.512 2.784 0 1.488.512 2.8.528 1.296 1.44 2.288.912.976 2.112 1.552 1.2.56 2.56.56zm14.34 4v-22.4h8.895q1.824 0 3.296.928 1.488.912 2.352 2.464.88 1.536.88 3.408 0 1.472-.512 2.736-.512 1.248-1.44 2.192-.928.944-2.16 1.472l5.328 9.2h-5.088l-5.104-8.8h-2.032v8.8zm4.415-13.216h3.952q.72 0 1.312-.352.608-.368.96-.976.368-.624.368-1.376 0-.736-.368-1.344-.352-.624-.96-.992-.592-.368-1.312-.368h-3.952zm15.493 13.216v-22.4h14.176v4.416h-9.76v3.776h7.616v4.416h-7.616v5.376h9.76v4.416zm26.34.416q-1.888 0-3.616-.592-1.712-.592-3.008-1.712-1.28-1.12-1.84-2.656l4.144-1.536q.192.544.8 1.024.608.464 1.52.768.912.288 2 .288 1.04 0 1.952-.304.928-.32 1.488-.88.576-.56.576-1.312t-.592-1.248q-.592-.496-1.52-.784-.928-.304-1.904-.464-2.416-.352-4.336-1.136-1.904-.8-3.008-2.192-1.104-1.408-1.104-3.568 0-2.08 1.168-3.632 1.184-1.552 3.104-2.416 1.936-.864 4.176-.864 1.856 0 3.584.592t3.008 1.712q1.296 1.12 1.856 2.688l-4.144 1.504q-.192-.544-.8-1.008-.608-.464-1.52-.752t-1.984-.288q-1.024-.016-1.952.304-.912.32-1.504.88-.576.56-.576 1.28 0 .944.544 1.424.56.48 1.472.688.912.208 2.016.368 2.272.336 4.192 1.2 1.92.848 3.072 2.272 1.168 1.408 1.168 3.44 0 2.08-1.168 3.632t-3.088 2.416q-1.92.864-4.176.864z" fill="#fef5e0"/><path fill="#2a2225" d="M375.15 318.684l-7.958-7.39-48.198 26.629 52.177-.198 3.979-19.041"/><path fill="#fef5e0" d="M367.192 311.295l-5.681 9.947-3.222-1.894-28.42 14.778-8.863 2.685 46.186-25.516"/><path fill="#fade54" d="M440.442 236.19c-16.301-3.23-32.702 6.385-37.604 22.624-5.217 17.28 4.56 35.518 21.842 40.735 11.518 3.477 23.461.29 31.69-7.338a35.002 35.002 0 01-.07-.022 35.002 35.002 0 01-22.513-44.085 35.002 35.002 0 016.655-11.914z"/><path fill="#2a2225" d="M334.662 337.304l62.123-34.789 17.367 1.357 33.646-23.132 79.827 56.986-192.928 2.328"/><path fill="#fef5e0" d="M447.798 280.74l-7.335 16.919-16.57 9.997-5.781 9.401-3.96-13.185 33.646-23.132M396.785 302.515l.354 8.14-9.143 7.195-18.44 6.435 2.12-7.622 25.109-14.148M482.124 305.635l-9.7 12.417-.96 8.831-6.102 7.514-13.07.262 16.268-10.844.42-7.4 13.144-10.78"/><path fill="#fef5e0" d="M371.677 316.663l-12.778 10.206-11.019 3.348 11.383.624 10.293-6.556 2.12-7.622"/><path fill="#2a2225" d="M493.49 322.061l12.125-10.61 40.23 26.405-36.44-.26-15.915-15.535"/><path fill="#fef5e0" d="M505.615 311.45l-.378 10.231-10.23 7.58-16.296 5.305 16.673-14.399 10.23-8.717"/><path fill="#25938f" d="M340.21 403.625s1.644 49.165 69.749 68.455c14.742 4.176 31.55 1.651 47.214.128 62.892-6.12 66.696-68.583 66.696-68.583H340.21"/><path fill="#35ccc6" d="M411.17 403.625s-6.055 7.396-4.663 11.189c1.66 4.528 11.182 2.074 12.882 6.588 1.352 3.589-5.142 6.967-4.242 10.695 1.631 6.758 15.689 13.744 15.689 13.744l9.08.455c3.996-4.954-16.221-8.847-14.516-15.79 1.314-5.352 12.293-1.163 15.553-5.606 2.252-3.069-1.786-8.343.47-11.41 2.205-2.997 7.192-2.08 10.514-3.758 3.257-1.645 9.083-6.107 9.083-6.107z"/><path fill="#414140" d="M383.733 426.92l-1.608 1.144 1.3-2.623-2.275-11-1.106 6.095 1.106 2.596-1.369-1.129-3.99 21.989 11.504.157-3.562-17.23"/><path fill="#414140" d="M362.264 421.622l-1.608 1.024 1.301-2.348-2.275-9.845-1.106 5.455 1.106 2.323-1.37-1.01-2.158 9.533 3.442 10.228 6.23.062-3.562-15.422"/><path fill="#414140" d="M367.71 424.073l2.243 1.29-1.818-2.955 3.179-12.386 1.545 6.864-1.545 2.922 1.913-1.271 5.573 24.76-16.067.177 4.977-19.401"/><path fill="#262625" d="M366.872 428.29l-1.608 1.014 1.3-2.324-2.275-9.743-1.106 5.398 1.106 2.3-1.37-1-5.05 19.567 9.46 11.357 3.723-9.362-4.18-17.207"/><path fill="#262625" d="M379.259 431.985l-2.243 1.324 1.817-3.033-3.179-12.708-1.544 7.043 1.544 2.998-1.913-1.304-6.498 24.78 3.248 4.606 7.471 5.492 6.273-9.293-4.976-19.905M348.209 418.297l-1.608.947 1.301-2.17-2.276-9.1-1.106 5.042 1.106 2.148-1.369-.934-2.087 10.02 9.601 8.3-3.562-14.253"/><path fill="#262625" d="M350.166 421.41l2.243 1.325-1.818-3.033 3.18-12.708 1.544 7.043-1.545 2.998 1.913-1.304 5.573 25.403-7.897 2.742-5.37-13.76 2.177-8.705M397.167 440.244l-5.092 3.003 4.124-6.88-7.215-28.847-3.503 15.984 3.503 6.81-4.343-2.965-6.877 33.249 30.697 24.827-11.294-45.181"/><path fill="#414140" d="M491.05 426.69l-2.243 1.323 1.816-3.03-3.179-12.71-1.543 7.042 1.543 3-1.911-1.306-6.01 27.155 16.504-1.568-4.977-19.905"/><path fill="#414140" d="M497.662 419.788l2.243 1.323-1.816-3.031 3.179-12.709 1.543 7.042-1.543 3 1.912-1.306 5.573 25.405-7.63 3.889-8.438-3.707 4.977-19.906"/><path fill="#414140" d="M513.919 426.225l-1.608 1.02 1.3-2.34-2.275-9.81-1.106 5.436 1.106 2.315-1.369-1.007-4.49 21.937 5.32-2.63 5.068-7.506-1.946-7.415"/><path fill="#262625" d="M474.612 436.354l-4.124-6.88 7.26-25.175 3.458 12.312-3.503 6.809 4.343-2.965 10.066 41.118-20.378 16.806-11.653-6.782 9.681-39.348"/><path fill="#262625" d="M498.427 432.399l-2.243 1.402 1.816-3.214-3.179-13.476-1.543 7.466 1.543 3.182-1.912-1.385-5.572 26.94 4.426 7.957 11.91-8.553-5.246-20.32"/><path fill="#262625" d="M509.827 433.163l-2.243 1.322 1.816-3.031-3.178-12.708-1.544 7.04 1.544 3.001-1.912-1.306-5.573 25.405 3.512.04 10.073-9.785-2.495-9.978"/><path fill="#262625" d="M514.976 423.374l1.608.947-1.301-2.17 2.275-9.099 1.106 5.042-1.106 2.147 1.37-.934 2.898 13.212-5.338 8.133-6.2-.275 4.688-17.003"/><path fill="#262625" d="M444.176 441.986l1.93-.406 13.882 31.36-17.13 2.14 1.318-33.094"/><path fill="#fade54" d="M439.308 474.097a31.154 31.154 0 0015.848-4.599c.004 0 .005 0 .007-.003L444.31 442.02l-5.003 32.076"/><path fill="#262625" d="M446.106 441.58l-29.44 5.076-13.197 28.425h39.388l3.249-33.5"/><path fill="#fade54" d="M458 281.417s.014-3.602-1.139-4.755c-1.152-1.152-4.755-1.138-4.755-1.138s3.606-.063 4.755-1.228c1.125-1.14 1.139-4.666 1.139-4.666s-.02 3.564 1.116 4.71c1.154 1.166 4.778 1.184 4.778 1.184s-3.604.004-4.756 1.16c-1.145 1.15-1.138 4.733-1.138 4.733zM383.808 305.47s.014-3.604-1.139-4.756c-1.152-1.152-4.755-1.139-4.755-1.139s3.606-.062 4.755-1.227c1.125-1.14 1.139-4.666 1.139-4.666s-.019 3.564 1.116 4.71c1.154 1.166 4.778 1.183 4.778 1.183s-3.604.005-4.755 1.161c-1.146 1.15-1.139 4.733-1.139 4.733zM389.702 287.31s.014-3.602-1.139-4.754c-1.152-1.153-4.755-1.139-4.755-1.139s3.605-.062 4.755-1.228c1.125-1.14 1.139-4.665 1.139-4.665s-.02 3.563 1.116 4.71c1.154 1.166 4.777 1.183 4.777 1.183s-3.603.005-4.755 1.161c-1.145 1.15-1.138 4.733-1.138 4.733zM447.387 261.801s.014-3.603-1.139-4.755c-1.152-1.152-4.755-1.139-4.755-1.139s3.605-.062 4.755-1.227c1.125-1.14 1.139-4.666 1.139-4.666s-.02 3.564 1.116 4.71c1.154 1.166 4.777 1.183 4.777 1.183s-3.603.005-4.755 1.161c-1.145 1.15-1.138 4.733-1.138 4.733zM483.142 291.738s.014-3.602-1.138-4.755c-1.153-1.152-4.755-1.138-4.755-1.138s3.605-.063 4.755-1.228c1.124-1.14 1.138-4.666 1.138-4.666s-.019 3.564 1.117 4.71c1.154 1.166 4.777 1.184 4.777 1.184s-3.603.005-4.755 1.16c-1.146 1.15-1.139 4.733-1.139 4.733z"/><path d="M320.192 352.78h4.396l7.112 19.6h-4.102l-1.176-3.248h-8.064l-1.176 3.248h-4.102zm-.42 12.488h5.236l-2.632-7.182zm21.054 7.476q-1.988 0-3.738-.784-1.75-.798-3.08-2.198-1.316-1.4-2.072-3.234-.742-1.848-.742-3.948 0-2.114.742-3.948.756-1.848 2.072-3.234 1.33-1.4 3.08-2.184 1.75-.798 3.738-.798 2.38 0 4.382 1.106 2.002 1.092 3.318 2.926l-3.444 1.862q-.784-.924-1.89-1.47-1.106-.56-2.366-.56-1.19 0-2.24.49-1.05.49-1.848 1.358-.784.868-1.232 2.002-.448 1.134-.448 2.45 0 1.302.448 2.45.448 1.134 1.232 2.002.798.854 1.848 1.358 1.05.49 2.24.49 1.274 0 2.366-.56 1.106-.56 1.89-1.484l3.444 1.876q-1.316 1.82-3.318 2.926t-4.382 1.106zM356 352.78h4.396l7.112 19.6h-4.102l-1.176-3.248h-8.064l-1.176 3.248h-4.102zm-.42 12.488h5.236l-2.632-7.182zm12.458 7.112l3.808-19.6h3.262l4.55 11.998 4.564-11.998h3.262l3.808 19.6h-3.948l-2.17-11.242-4.186 11.046h-2.66l-4.172-11.046-2.184 11.242zm24.918 0v-19.6h7.224q1.61 0 2.898.812 1.302.812 2.072 2.17.77 1.344.77 2.968 0 1.652-.784 3.01-.784 1.344-2.1 2.142-1.302.798-2.856.798h-3.36v7.7zm3.864-11.564h2.926q.644 0 1.162-.308.518-.322.826-.854.322-.546.322-1.204 0-.644-.322-1.176-.308-.546-.826-.868-.518-.322-1.162-.322h-2.926zm13.901-8.036h4.396l7.112 19.6h-4.102l-1.176-3.248h-8.064l-1.176 3.248h-4.102zm-.42 12.488h5.236l-2.632-7.182zm12.458 7.112l3.808-19.6h3.262l4.55 11.998 4.564-11.998h3.262l3.808 19.6h-3.948l-2.17-11.242-4.186 11.046h-2.66l-4.172-11.046-2.184 11.242zm24.919 0v-19.6h12.404v3.864h-8.54v3.304h6.664v3.864h-6.664v4.704h8.54v3.864zm14.361 0v-19.6h4.172l7.644 12.614V352.78h3.864v19.6h-4.172l-7.644-12.614v12.614zm32.73-19.6v3.864h-5.768v15.736h-3.864v-15.736h-5.768v-3.864zm9.63 19.964q-1.988 0-3.738-.784-1.75-.798-3.08-2.198t-2.086-3.234q-.756-1.848-.756-3.948 0-2.1.756-3.934.756-1.848 2.086-3.248 1.33-1.4 3.08-2.184 1.75-.798 3.738-.798 2.002 0 3.752.798 1.75.784 3.08 2.184 1.33 1.4 2.072 3.248.756 1.834.756 3.934t-.756 3.948q-.742 1.834-2.072 3.234t-3.08 2.198q-1.75.784-3.752.784zm0-3.864q1.19 0 2.24-.49 1.05-.504 1.848-1.372.798-.868 1.246-2.002.462-1.134.462-2.436t-.462-2.436q-.448-1.148-1.246-2.002-.798-.868-1.848-1.358-1.05-.504-2.24-.504-1.19 0-2.24.504-1.05.49-1.848 1.358-.798.868-1.26 2.002-.448 1.134-.448 2.436t.448 2.45q.462 1.134 1.26 2.002.798.854 1.848 1.358 1.05.49 2.24.49zm16.88 3.5v-19.6h6.496q2.03 0 3.794.77 1.778.756 3.122 2.114 1.358 1.344 2.114 3.122.77 1.764.77 3.794 0 2.03-.77 3.808-.756 1.764-2.114 3.122-1.344 1.344-3.122 2.114-1.764.756-3.794.756zm3.864-3.864h2.632q1.204 0 2.268-.462 1.078-.462 1.904-1.274.826-.812 1.288-1.89.476-1.078.476-2.31t-.476-2.296q-.462-1.078-1.288-1.89-.812-.826-1.89-1.288-1.064-.462-2.282-.462h-2.632zm13.451 3.864v-19.6h12.404v3.864h-8.54v3.304h6.664v3.864h-6.664v4.704h8.54v3.864z" fill="#fef5e0"/><g stroke-width=".6">
<circle cx="365.407" cy="338.351" r="9" fill="#f50052" stroke="#fef5e0"/><path fill="#9a031e" stroke="#fef5e0" d="M445.972 330.274c3.555 0 7.908-1.423 7.908-1.423 2.501.994 4.274 1.215 7.907 1.423v12.849c0 2.502-6.175 3.272-7.907 4.728-1.73-1.402-7.908-2.246-7.908-4.728z"/><path fill="#5f0f40" stroke="#fef5e0" d="M411.253 330.458l8.347 14.458a1.29 1.29 0 01-1.117 1.935h-16.617a1.26 1.26 0 01-1.09-1.89l8.373-14.503a1.215 1.215 0 012.104 0z"/><path fill="#e36414" stroke="#fef5e0" d="M498.617 329.395l7.652 7.652a1.86 1.86 0 010 2.63l-7.613 7.613a1.914 1.914 0 01-2.707 0l-7.28-7.28a2.331 2.331 0 010-3.297l7.318-7.318a1.86 1.86 0 012.63 0z"/></g></svg>
