<svg viewBox="0 0 267.245 289.03"><path fill="currentColor" d="M133.666 0C123 0 112.334 4.068 104.197 12.205L8.42 120.188C3.12 125.487 0 131.923 0 148.16c0 59.369 40.67 115.805 102.873 130.137 9.746 2.245 30.926 10.732 30.926 10.732s21.177-8.562 31.484-11.144c55.723-13.959 101.961-64.13 101.961-129.725 0-10.654-1.485-21.809-7.648-27.972L163.135 12.204C154.998 4.068 144.332 0 133.666 0zM98.002 74.953H198.8v27.6h-47v28.6h37.4v27.6h-37.4v28.6h47v27.6h-74.6v-23.2h-39.3l-8.4 23.2h-29.3l50.8-140zm19.398 27.6l-22.398 61.6h29.2v-61.6H117.4z"/></svg>
